<?xml version="1.0" standalone="no"?>
<!DOCTYPE svg PUBLIC "-//W3C//DTD SVG 1.1//EN" "http://www.w3.org/Graphics/SVG/1.1/DTD/svg11.dtd" >
<svg xmlns="http://www.w3.org/2000/svg" xmlns:xlink="http://www.w3.org/1999/xlink" version="1.1">
<metadata>
Created by FontForge 20150318 at Thu Aug 27 01:53:44 2015
 By uniteet7
Copyright (c) Olivier Gourvat - Mostardesign Studio, 2010. All rights reserved.
</metadata>
<defs>
<font id="UnicodSansCondensedLight" horiz-adv-x="480" >
  <font-face 
    font-family="UnicodSansCondensedLight"
    font-weight="400"
    font-stretch="condensed"
    units-per-em="1000"
    panose-1="2 11 5 3 0 0 0 2 0 4"
    ascent="793"
    descent="-207"
    x-height="556"
    cap-height="743"
    bbox="-111 -196 1095 993"
    underline-thickness="50"
    underline-position="-50"
    unicode-range="U+0020-FB06"
  />
<missing-glyph horiz-adv-x="400" 
d="M6 0v665h388v-665h-388zM74 618l126 -235l125 235h-251zM52 561v-469q3 10 33 70.5t59 115.5l29 55zM348 561l-122 -228l122 -227v455zM325 48l-125 235l-126 -235h251z" />
    <glyph glyph-name="f_f" unicode="ff" horiz-adv-x="583" 
d="M108 382v-374q0 -8 -12 -8h-36q-12 0 -12 8v639q0 39 23 67.5t61 28.5h437q10 0 10 -10v-39q0 -10 -10 -10h-137q-14 0 -22.5 -13t-8.5 -33v-197h135q10 0 10 -10v-39q0 -10 -10 -10h-135v-374q0 -8 -12 -8h-36q-12 0 -12 8v633q0 22 8 43h-210q-14 0 -22.5 -13t-8.5 -33
v-197h135q11 0 11 -10v-39q0 -10 -11 -10h-135z" />
    <glyph glyph-name="fi" unicode="fi" horiz-adv-x="453" 
d="M108 382v-374q0 -8 -12 -8h-36q-12 0 -12 8v645q0 39 23 68t61 29h144q10 0 10 -10v-40q0 -10 -10 -10h-137q-14 0 -22.5 -13t-8.5 -33v-203h135q11 0 11 -10v-39q0 -10 -11 -10h-135zM397 546v-536q0 -10 -11 -10h-36q-10 0 -10 10v536q0 10 10 10h36q11 0 11 -10z
M397 740v-61q0 -10 -11 -10h-36q-10 0 -10 10v61q0 10 10 10h36q11 0 11 -10z" />
    <glyph glyph-name="fl" unicode="fl" horiz-adv-x="493" 
d="M327 76v614h-188q-14 0 -22.5 -13t-8.5 -33v-203h135q11 0 11 -10v-39q0 -10 -11 -10h-135v-374q0 -8 -12 -8h-36q-12 0 -12 8v645q0 39 23 68t61 29h242q12 0 12 -8v-662q0 -27 16 -27h56q11 0 11 -10v-33q0 -10 -11 -10h-64q-32 0 -49.5 21t-17.5 55z" />
    <glyph glyph-name="f_f_i" unicode="ffi" horiz-adv-x="746" 
d="M108 382v-374q0 -8 -12 -8h-36q-12 0 -12 8v638q0 39 23 68t61 29h437q10 0 10 -10v-39q0 -10 -10 -10h-137q-14 0 -22.5 -13t-8.5 -33v-197h135q10 0 10 -10v-39q0 -10 -10 -10h-135v-374q0 -8 -12 -8h-36q-12 0 -12 8v633q0 22 8 43h-210q-14 0 -22.5 -13t-8.5 -33
v-197h135q11 0 11 -10v-39q0 -10 -11 -10h-135zM690 546v-536q0 -10 -11 -10h-36q-10 0 -10 10v536q0 10 10 10h36q11 0 11 -10zM690 733v-54q0 -10 -11 -10h-36q-10 0 -10 10v54q0 10 10 10h36q11 0 11 -10z" />
    <glyph glyph-name="f_f_l" unicode="ffl" horiz-adv-x="770" 
d="M108 382v-374q0 -8 -12 -8h-36q-12 0 -12 8v638q0 39 23 68t61 29h520q12 0 12 -8v-655q0 -27 16 -27h56q10 0 10 -10v-33q0 -10 -10 -10h-64q-32 0 -49.5 21t-17.5 55v608h-188q-14 0 -22.5 -13t-8.5 -33v-197h135q10 0 10 -10v-34q0 -10 -10 -10h-135v-379q0 -8 -12 -8
h-36q-12 0 -12 8v617q0 47 16 59h-203q-14 0 -22.5 -13t-8.5 -33v-197h135q11 0 11 -10v-39q0 -10 -11 -10h-135z" />
    <glyph glyph-name="f_h" unicode="fh" horiz-adv-x="666" 
d="M108 382v-374q0 -8 -12 -8h-36q-12 0 -12 8v638q0 39 23 68t61 29h245q12 0 12 -8v-179h158q38 0 60.5 -29t22.5 -67v-452q0 -8 -12 -8h-34q-12 0 -12 8v449q0 19 -8 32t-23 13h-151v-494q0 -8 -12 -8h-36q-12 0 -12 8v676h-191q-14 0 -22.5 -13t-8.5 -33v-197h135
q11 0 11 -10v-39q0 -10 -11 -10h-135z" />
    <glyph glyph-name="f_b" unicode="fb" horiz-adv-x="699" 
d="M132 743h254q12 0 12 -8v-179h182q38 0 60.5 -29t22.5 -66v-364q0 -40 -25 -68.5t-60 -28.5h-156q-39 0 -60.5 26t-21.5 69v589h-201q-14 0 -22.5 -13t-8.5 -33v-197h135q11 0 11 -10v-39q0 -10 -11 -10h-135v-374q0 -8 -12 -8h-36q-12 0 -12 8v638q0 39 23 68t61 29z
M399 502v-405q0 -44 31 -44h141q14 0 23.5 12t9.5 34v358q0 20 -8.5 32.5t-23.5 12.5h-173z" />
    <glyph glyph-name="f_j" unicode="fj" horiz-adv-x="470" 
d="M108 387v-379q0 -8 -12 -8h-36q-12 0 -12 8v638q0 39 23 68t61 29h144q10 0 10 -10v-39q0 -10 -10 -10h-137q-14 0 -22.5 -13t-8.5 -33v-197h135q11 0 11 -10v-34q0 -10 -11 -10h-135zM402 733v-51q0 -10 -11 -10h-39q-10 0 -10 10v51q0 10 10 10h39q11 0 11 -10z
M344 -113v656q0 13 10 13h37q10 0 10 -13v-661q0 -36 -17 -57t-48 -21h-83q-12 0 -12 10v37q0 11 12 11h75q16 0 16 25z" />
    <glyph glyph-name="f_k" unicode="fk" horiz-adv-x="658" 
d="M330 10v674h-191q-14 0 -22.5 -13t-8.5 -33v-197h135q11 0 11 -10v-34q0 -10 -11 -10h-135v-379q0 -8 -12 -8h-36q-12 0 -12 8v638q0 39 23 68t61 29h246q10 0 10 -10v-451l163 260q10 14 22 14h33q13 0 13 -10q0 -5 -5 -14l-106 -169q-13 -19 -28 -29h-1q13 -3 20.5 -9
t10.5 -11t11 -20l3 -6l110 -255h-1q5 -8 6 -10q3 -6 3 -13q0 -10 -13 -10h-29q-15 0 -24 20l-116 267l-53 -83q-19 -28 -19 -65v-129q0 -10 -10 -10h-38q-10 0 -10 10z" />
    <glyph glyph-name=".notdef" horiz-adv-x="400" 
d="M6 0v665h388v-665h-388zM74 618l126 -235l125 235h-251zM52 561v-469q3 10 33 70.5t59 115.5l29 55zM348 561l-122 -228l122 -227v455zM325 48l-125 235l-126 -235h251z" />
    <glyph glyph-name=".null" horiz-adv-x="0" 
 />
    <glyph glyph-name="nonmarkingreturn" horiz-adv-x="333" 
 />
    <glyph glyph-name="space" unicode=" " horiz-adv-x="272" 
 />
    <glyph glyph-name="exclam" unicode="!" horiz-adv-x="165" 
d="M111 740l-4 -561q0 -10 -12 -10h-25q-12 0 -12 10l-4 561q0 10 12 10h33q12 0 12 -10zM103 91h-42q-4 0 -4 -10v-71q0 -10 4 -10h42q4 0 4 10v71q0 10 -4 10z" />
    <glyph glyph-name="quotedbl" unicode="&#x22;" horiz-adv-x="256" 
d="M106 733l-5 -191q0 -10 -12 -10h-23q-10 0 -12 10l-6 191q0 10 12 10h34q12 0 12 -10zM208 733l-6 -191q-2 -10 -12 -10h-23q-12 0 -12 10q-1 31 -3 95.5t-2 95.5q0 10 12 10h34q12 0 12 -10z" />
    <glyph glyph-name="numbersign" unicode="#" horiz-adv-x="594" 
d="M338 357l-121 2l-28 -149q-2 -11 -15 -11h-31q-12 0 -10 11l29 147h-103q-13 0 -10 12l12 32q2 12 14 12l100 -2l26 140h-100q-13 0 -10 12l11 32q4 12 15 12l97 -2l27 132q3 12 16 12h30q11 0 9 -12l-27 -130q21 0 61.5 -1t61.5 -1l27 132q3 12 14 12h31q11 0 9 -12
l-28 -130h95q12 0 9 -12l-12 -33q-4 -11 -16 -11l-88 2l-26 -140h90q13 0 10 -12l-12 -33q-3 -11 -16 -11l-85 2l-29 -149q-2 -11 -14 -11h-30q-10 0 -8 11zM352 411l26 140q-21 0 -60.5 1t-60.5 1l-28 -140q21 0 61.5 -1t61.5 -1z" />
    <glyph glyph-name="dollar" unicode="$" horiz-adv-x="422" 
d="M292 0h-55v-113q0 -13 -12 -13h-31q-12 0 -12 13v113h-130q-4 0 -8.5 4t-4.5 9v33q0 4 4.5 8t8.5 4h235q17 0 29.5 13.5t12.5 38.5v106q0 49 -25 66l-211 110q-60 34 -60 128v112q0 52 28 80.5t66 28.5h55v107q0 13 12 13h31q12 0 12 -13v-107h122q3 0 8 -4.5t5 -8.5v-33
q0 -5 -4.5 -8.5t-8.5 -3.5h-225q-18 0 -31 -14.5t-13 -39.5v-110q0 -55 27 -69l216 -113q53 -28 53 -123v-107q0 -52 -28 -79.5t-66 -27.5z" />
    <glyph glyph-name="percent" unicode="%" horiz-adv-x="663" 
d="M271 686v-267q0 -24 -13.5 -42t-37.5 -18h-111q-25 0 -38.5 18t-13.5 42v269q0 25 15.5 43.5t37.5 18.5h108q20 0 36.5 -20t16.5 -44zM215 430v248q0 19 -13 19h-76q-12 0 -12 -21v-246q0 -19 11 -19h77q13 0 13 19zM201 10l295 730q4 10 -1 10h-33q-2 0 -8 -10
l-296 -730q0 -10 2 -10h34q5 0 7 10zM606 327v-267q0 -24 -13.5 -42t-37.5 -18h-111q-25 0 -38.5 18t-13.5 42v269q0 25 15.5 43.5t37.5 18.5h108q20 0 36.5 -20t16.5 -44zM550 71v248q0 19 -12 19h-77q-12 0 -12 -21v-246q0 -19 11 -19h78q12 0 12 19z" />
    <glyph glyph-name="ampersand" unicode="&#x26;" horiz-adv-x="573" 
d="M222 337l-95 -97q-22 -30 -22 -78v-49q0 -25 13.5 -40.5t31.5 -15.5h152q26 0 75 64zM148 536l87 -110l92 100q20 28 20 89v9q0 26 -11.5 43.5t-29.5 17.5h-136q-41 0 -41 -61v-4q0 -60 19 -84zM524 238l-76 -110l69 -103q10 -12 10 -15q0 -10 -11 -10h-33q-11 0 -24 19
q-4 6 -20 27.5t-25 33.5q-36 -47 -55 -63.5t-43 -16.5h-177q-44 0 -66.5 29.5t-24.5 79.5v47q0 28 2 46t14 45t35 49l93 93l-65 81q-35 48 -45 72.5t-9 66.5v28q0 37 9 55q29 49 76 51h160q47 -2 71 -43q16 -28 16 -63v-28q0 -47 -9 -73t-43 -63l-88 -97l147 -208l53 76
q13 19 25 19h32q12 0 12 -10l-6 -10z" />
    <glyph glyph-name="quotesingle" unicode="'" horiz-adv-x="154" 
d="M106 733l-5 -191q0 -10 -12 -10h-23q-10 0 -12 10l-6 191q0 10 12 10h34q12 0 12 -10z" />
    <glyph glyph-name="parenleft" unicode="(" horiz-adv-x="238" 
d="M215 -188q0 -8 -12 -8h-15q-14 0 -21 11q-51 81 -79 200t-28 249v13q0 129 29 251.5t80 203.5q7 11 21 11h16q12 0 12 -8q0 -5 -4 -10h1q-99 -182 -99 -448v-13q0 -264 97 -442q2 -6 2 -10z" />
    <glyph glyph-name="parenright" unicode=")" horiz-adv-x="238" 
d="M22 -188q0 5 4 10h-1q97 178 97 442v13q0 264 -100 448q-2 6 -2 10q0 8 12 8h15q14 0 22 -11q53 -80 81 -200.5t28 -254.5v-13q0 -129 -28 -248.5t-79 -200.5q-7 -11 -21 -11h-16q-12 0 -12 8z" />
    <glyph glyph-name="asterisk" unicode="*" horiz-adv-x="346" 
d="M304 634l-92 -62l94 -60q4 -4 4 -7l-18 -39q-3 -6 -12 -2l-82 59q0 -21 1 -61t1 -61q0 -6 -9 -6h-35q-8 0 -8 5l2 123l-82 -58h1q-10 -10 -15 1l-17 38q-1 1 -1 2.5t1 2.5l99 63l-92 61h1q-3 1 -4.5 3.5t-1 4t0.5 2.5h-1l15 35q1 3 5 4.5t10 -2.5h-1l82 -59q0 21 -1 61
t-1 61q0 7 10 7h32q10 0 10 -7l-2 -121l81 60q8 5 13 -2l17 -39q2 -7 -5 -7z" />
    <glyph glyph-name="plus" unicode="+" horiz-adv-x="390" 
d="M170 395v151q0 10 12 10h31q12 0 12 -10v-151h121q12 0 12 -10v-39q0 -10 -12 -10h-121v-158q0 -10 -12 -10h-31q-12 0 -12 10v158h-119q-12 0 -12 10v39q0 10 12 10h119z" />
    <glyph glyph-name="comma" unicode="," horiz-adv-x="215" 
d="M171 98l-70 -160q-6 -12 -20 -12h-26q-4 0 -6.5 2.5t-0.5 6.5h-1l59 160q9 13 20 13h36q5 0 8 -3t1 -7z" />
    <glyph glyph-name="hyphen" unicode="-" horiz-adv-x="355" 
d="M295 251h-237q-13 0 -13 13v33q0 5 4.5 9t8.5 4h237q5 0 9.5 -4t4.5 -9v-33q0 -13 -14 -13z" />
    <glyph glyph-name="period" unicode="." horiz-adv-x="160" 
d="M112 63v-53q0 -10 -10 -10h-44q-10 0 -10 10v53q0 10 10 10h44q10 0 10 -10z" />
    <glyph glyph-name="slash" unicode="/" horiz-adv-x="298" 
d="M282 733l-208 -723q-5 -10 -15 -10h-33q-9 0 -9 10l209 723q3 10 15 10h32q11 0 9 -10z" />
    <glyph glyph-name="zero" unicode="0" 
d="M305 0h-121q-50 0 -80.5 41.5t-30.5 97.5v465q0 55 30.5 97t80.5 42h121q51 0 81 -42t30 -97v-465q0 -56 -30 -97.5t-81 -41.5zM191 57h107q27 0 44 23t17 53v474q0 30 -17 53.5t-44 23.5h-107q-26 0 -43.5 -23.5t-17.5 -53.5v-474q0 -30 17.5 -53t43.5 -23z" />
    <glyph glyph-name="one" unicode="1" 
d="M242 11v651q0 22 -17 22h-76q-5 0 -9 4t-4 8v34q0 5 4.5 9t8.5 4h84q31 0 48.5 -21.5t17.5 -57.5v-653q0 -11 -11 -11h-34q-12 0 -12 11z" />
    <glyph glyph-name="two" unicode="2" 
d="M401 0h-301q-15 0 -26 12.5t-11 31.5v116q0 63 32 94l245 226q22 21 22 74v77q0 23 -12 38t-27 15h-232q-5 0 -9 4t-4 8v34q0 5 4.5 9t8.5 4h233q39 0 67.5 -29t28.5 -83v-77q0 -49 -9.5 -75t-42.5 -56l-195 -176l-36 -35q-19 -17 -19 -58v-97h283q4 0 8.5 -3.5t4.5 -8.5
v-32q0 -5 -4 -9t-9 -4z" />
    <glyph glyph-name="three" unicode="3" 
d="M319 0h-232q-4 0 -8.5 4t-4.5 9v33q0 5 5 8.5t8 3.5h220q14 0 25 13.5t11 33.5v206q0 17 -9.5 31t-24.5 15h-184q-5 0 -9 4t-4 9v36q0 5 4.5 8.5t8.5 3.5h170q13 0 23.5 13t11.5 32v174q0 19 -10 33t-25 14h-208q-3 0 -8 4t-5 8v34q0 5 5 9t8 4h219q40 0 61 -29t21 -69
v-179q0 -55 -40 -70q25 -10 39 -33t14 -43v-222q0 -41 -24 -69.5t-58 -28.5z" />
    <glyph glyph-name="four" unicode="4" 
d="M310 685l-198 -342h1q-11 -23 -11 -60v-54h208v456zM74 392l198 339h-1q6 12 22 12h63q12 0 12 -13v-501h51q5 0 9.5 -4.5t4.5 -8.5v-33q0 -5 -5 -9t-9 -4h-51v-159q0 -11 -12 -11h-34q-12 0 -12 11v159h-226q-15 0 -26 12.5t-11 31.5v78q0 29 4.5 48.5t22.5 51.5z" />
    <glyph glyph-name="five" unicode="5" 
d="M318 0h-207q-5 0 -9 4t-4 9v33q0 5 4.5 8.5t8.5 3.5h193q24 0 41 20t17 55v172q0 21 -10.5 35.5t-28.5 14.5h-225q-16 0 -16 17v328q0 20 12 31.5t28 11.5h240q4 0 8 -4t4 -9v-33q0 -5 -4 -8.5t-8 -3.5h-212q-12 0 -12 -19v-192l-1 -58q12 0 36.5 -0.5t36.5 -0.5h124
q38 0 61 -34t23 -75v-183q0 -52 -29 -87.5t-71 -35.5z" />
    <glyph glyph-name="six" unicode="6" 
d="M388 685h-217q-31 0 -31 -43v-227h205q39 0 60 -29.5t21 -68.5v-219q0 -47 -23 -72.5t-59 -25.5h-179q-34 0 -58.5 25.5t-24.5 73.5v539q0 48 22.5 76.5t63.5 28.5h220q4 0 8.5 -4t4.5 -9v-33q0 -4 -4 -8t-9 -4zM171 58h165q32 0 32 40v212q0 19 -9.5 32.5t-24.5 13.5
h-194v-258q0 -40 31 -40z" />
    <glyph glyph-name="seven" unicode="7" 
d="M143 0h-28q-13 0 -13 13q0 3 5 10h-1v1q1 2 1 4l98 243l146 364l23 51q-19 0 -28 -1q-5 0 -15.5 -0.5t-15.5 -0.5h-226q-11 0 -11 12v34q0 13 11 13h335q4 0 7.5 -4t3.5 -8v-34q0 -7 -5 -20l-263 -655q-10 -22 -24 -22z" />
    <glyph glyph-name="eight" unicode="8" 
d="M193 392l-75 65q-23 22 -34.5 47.5t-13 42t-1.5 45.5v45q0 37 14 63q24 41 71 43h183q44 -2 69 -43q17 -34 17 -63v-45q0 -29 -1.5 -45.5t-13 -42t-34.5 -47.5l-77 -65l85 -72q24 -23 36.5 -50.5t14 -44t1.5 -45.5v-71q0 -53 -25 -80t-67 -29h-193q-39 0 -65 30.5
t-26 78.5v71q0 30 1.5 46.5t13.5 43.5t35 50zM246 363l-111 -95q-22 -24 -22 -83v-73q0 -55 41 -55h184q17 0 29 15t12 40v77q0 56 -24 79zM147 507l99 -90l98 90q22 19 22 74v48q0 25 -10.5 40.5t-27.5 15.5h-165q-16 0 -26.5 -15.5t-10.5 -40.5v-43q0 -56 21 -79z" />
    <glyph glyph-name="nine" unicode="9" 
d="M105 57h216q32 0 32 43v227q-12 0 -36.5 -0.5t-36.5 -0.5h-132q-40 0 -61 29.5t-21 68.5v221q0 47 23.5 72.5t59.5 25.5h178q34 0 59 -25.5t25 -73.5v-539q0 -48 -22.5 -76.5t-64.5 -28.5h-219q-4 0 -9 3.5t-5 9.5v32q0 12 14 12zM321 684h-164q-32 0 -32 -40v-213
q0 -19 9 -32.5t24 -13.5h195v259q0 40 -32 40z" />
    <glyph glyph-name="colon" unicode=":" horiz-adv-x="160" 
d="M112 63v-53q0 -10 -10 -10h-44q-10 0 -10 10v53q0 10 10 10h44q10 0 10 -10zM112 546v-53q0 -10 -10 -10h-44q-10 0 -10 10v53q0 10 10 10h44q10 0 10 -10z" />
    <glyph glyph-name="semicolon" unicode=";" horiz-adv-x="202" 
d="M158 546v-53q0 -10 -11 -10h-43q-10 0 -10 10v53q0 10 10 10h43q11 0 11 -10zM156 98l-70 -160q-6 -12 -20 -12h-26q-9 0 -9 9l62 164q4 9 17 9h36q6 0 9 -3t1 -7z" />
    <glyph glyph-name="less" unicode="&#x3c;" horiz-adv-x="384" 
d="M89 410l161 203q8 10 17 10h45q15 0 2 -17l-171 -218q-5 -10 0 -20l171 -218q13 -17 -2 -17h-45q-9 0 -17 10l-161 203q-13 17 -13 33q0 15 13 31z" />
    <glyph glyph-name="equal" unicode="=" horiz-adv-x="450" 
d="M399 435h-350q-12 0 -12 13v42q0 13 12 13h350q12 0 12 -13v-42q0 -13 -12 -13zM399 219h-350q-12 0 -12 13v41q0 13 12 13h350q12 0 12 -13v-41q0 -13 -12 -13z" />
    <glyph glyph-name="greater" unicode="&#x3e;" horiz-adv-x="384" 
d="M147 613l161 -203q13 -18 13 -31q0 -16 -13 -33l-161 -203q-8 -10 -17 -10h-45q-15 0 -2 17l171 218q5 10 0 20l-171 218q-13 17 2 17h43q12 0 19 -10z" />
    <glyph glyph-name="question" unicode="?" horiz-adv-x="402" 
d="M140 179q0 -10 -13 -10h-33q-12 0 -12 10v23q0 60 17 83l180 243q17 27 17 70v47q0 39 -30 39h-226q-12 0 -12 10v39q0 10 12 10h236q31 0 54 -23t23 -65v-63q0 -64 -36 -109l-85 -112q-56 -73 -74 -100.5t-18 -44.5v-47zM134 91h-42q-4 0 -4 -10v-71q0 -10 4 -10h42
q4 0 4 10v71q0 10 -4 10z" />
    <glyph glyph-name="at" unicode="@" horiz-adv-x="774" 
d="M423 318l-106 -32q-6 -2 -11 -6t-7.5 -8t-4.5 -9.5t-2.5 -9t-1.5 -8.5v-5l-6 -61q-2 -15 2 -22.5t9.5 -8.5t16.5 -1h93q28 0 35 36l23 150q-8 -5 -40 -15zM308 579h174q22 0 37.5 -20t14.5 -52l-47 -360h65q28 0 48 22.5t25 52.5q2 18 15.5 136t19.5 176q5 60 -19 104.5
t-72 44.5h-264q-49 0 -87 -40.5t-47 -103.5l-15 -138l-31 -281q-11 -58 16 -104.5t73 -46.5h355q10 0 10 -10l-4 -38q0 -9 -11 -9h-358q-71 0 -107.5 59.5t-30.5 137.5l48 430q9 79 59 140.5t122 61.5h279q70 0 106.5 -59.5t30.5 -137.5l-34 -329q-6 -50 -39 -88.5
t-76 -38.5h-284q-22 0 -37 19.5t-12 51.5l9 98q9 66 43 79l164 55q18 11 24 34l7 59q2 35 -26 35h-151q-8 0 -8 10l6 44q1 6 9 6z" />
    <glyph glyph-name="A" unicode="A" horiz-adv-x="504" 
d="M140 283h226l-102 397q-4 11 -9 11q-9 0 -13 -11zM380 231h-254q-55 -203 -59 -220q-4 -11 -13 -11h-36q-3 0 -6 2.5t-2 5.5l183 697q11 40 44 44q15 2 31 0q35 -6 45 -44l183 -697q1 -3 -2 -5.5t-6 -2.5h-36q-9 0 -13 11z" />
    <glyph glyph-name="B" unicode="B" horiz-adv-x="467" 
d="M116 397h160q36 0 58.5 30t22.5 69v114q0 29 -17 51.5t-43 22.5h-181v-287zM278 336h-162v-277h194q26 0 42.5 22.5t16.5 51.5v115q0 43 -27 65.5t-64 22.5zM319 0h-248q-12 0 -12 15v713q0 15 12 15h236q50 0 78.5 -41.5t28.5 -96.5v-114q0 -36 -16 -68t-42 -49
q31 -13 51 -48t20 -75v-113q0 -55 -29 -96.5t-79 -41.5z" />
    <glyph glyph-name="C" unicode="C" horiz-adv-x="437" 
d="M382 0h-221q-51 0 -82 41.5t-31 95.5v469q0 54 31 95.5t82 41.5h221q4 0 8 -3.5t4 -8.5v-34q0 -5 -4 -8.5t-8 -3.5h-215q-27 0 -44 -23t-17 -52v-478q0 -29 17 -52t44 -23h215q4 0 8 -3.5t4 -8.5v-33q0 -5 -4 -8.5t-8 -3.5z" />
    <glyph glyph-name="D" unicode="D" horiz-adv-x="486" 
d="M117 57h200q25 0 42.5 23t17.5 52v479q0 29 -17.5 52t-42.5 23h-200v-629zM324 0h-253q-12 0 -12 14v715q0 14 12 14h253q49 0 79.5 -42t30.5 -95v-469q0 -53 -30.5 -95t-79.5 -42z" />
    <glyph glyph-name="E" unicode="E" horiz-adv-x="417" 
d="M380 0h-265q-27 0 -46.5 24t-19.5 58v579q0 32 17.5 57t48.5 25h263q4 0 9.5 -4.5t5.5 -8.5v-33q0 -5 -5 -9t-10 -4h-255q-17 0 -17 -20v-249h217q5 0 9 -4.5t4 -8.5v-33q0 -5 -4.5 -9t-8.5 -4h-217v-277q0 -20 17 -20h257q4 0 8.5 -4.5t4.5 -8.5v-33q0 -5 -4.5 -9
t-8.5 -4z" />
    <glyph glyph-name="F" unicode="F" horiz-adv-x="394" 
d="M106 356v-343q0 -13 -10 -13h-38q-9 0 -9 13v648q0 36 19.5 59t45.5 23h252q4 0 8 -4t4 -9v-33q0 -5 -4 -9t-8 -4h-243q-7 0 -12 -6t-5 -14v-249h219q9 0 9 -13v-33q0 -13 -9 -13h-219z" />
    <glyph glyph-name="G" unicode="G" horiz-adv-x="478" 
d="M380 333h-150q-4 0 -9 3.5t-5 8.5v38q0 4 4.5 8t9.5 4h174q18 0 28.5 -15t10.5 -34v-297q0 -21 -11.5 -35t-27.5 -14h-244q-51 0 -81.5 41.5t-30.5 95.5v469q0 54 30.5 95.5t81.5 41.5h242q5 0 9 -4t4 -8v-33q0 -5 -4.5 -8.5t-8.5 -3.5h-235q-27 0 -44 -23t-17 -52v-479
q0 -29 17 -52t44 -23h214q9 0 9 12v250q0 14 -10 14z" />
    <glyph glyph-name="H" unicode="H" horiz-adv-x="532" 
d="M472 733v-723q0 -10 -10 -10h-37q-11 0 -11 10v347h-298v-347q0 -10 -10 -10h-37q-11 0 -11 10v723q0 10 11 10h37q10 0 10 -10v-319h298v319q0 10 11 10h37q10 0 10 -10z" />
    <glyph glyph-name="I" unicode="I" horiz-adv-x="186" 
d="M122 733v-723q0 -10 -11 -10h-37q-10 0 -10 10v723q0 10 10 10h37q11 0 11 -10z" />
    <glyph glyph-name="J" unicode="J" horiz-adv-x="190" 
d="M99 -111v841q0 13 11 13h36q11 0 11 -13v-846q0 -36 -17.5 -57t-48.5 -21h-109q-12 0 -12 10v37q0 11 12 11h101q16 0 16 25z" />
    <glyph glyph-name="K" unicode="K" horiz-adv-x="490" 
d="M390 20l-165 377l-85 -131q-15 -24 -19.5 -38.5t-4.5 -43.5v-174q0 -10 -10 -10h-37q-11 0 -11 10v723q0 10 11 10h37q10 0 10 -10v-405l237 395h-1q0 1 1 1h1q13 19 24 19h27q13 0 13 -10q0 -5 -5 -14q-150 -253 -165 -274l-3 -4q13 1 23.5 -10.5t21.5 -35.5l123 -286
q7 -16 20 -45.5t17 -39.5q4 -8 4 -14q0 -10 -12 -10h-28q-15 0 -24 20z" />
    <glyph glyph-name="L" unicode="L" horiz-adv-x="395" 
d="M360 0h-235q-32 0 -49.5 21.5t-17.5 56.5v652q0 13 11 13h37q11 0 11 -13v-647q0 -24 17 -24h226q13 0 13 -11v-37q0 -11 -13 -11z" />
    <glyph glyph-name="M" unicode="M" horiz-adv-x="733" 
d="M681 687v-677q0 -10 -11 -10h-37q-11 0 -11 10v660q0 25 -10 25q-9 0 -16 -22l-174 -643q-11 -37 -56 -37q-44 0 -55 37q-173 636 -166 643h-7q-7 22 -16 22q-11 0 -11 -25v-660q0 -10 -10 -10h-39q-10 0 -10 10v677q0 26 15.5 44.5t46.5 18.5q62 0 77 -55l163 -605l3 -9
q7 -26 10 -26q4 0 12 32q0 1 1 3l162 607q15 53 72 53q34 0 50.5 -18.5t16.5 -44.5z" />
    <glyph glyph-name="N" unicode="N" horiz-adv-x="529" 
d="M418 733q0 10 10 10h38q11 0 11 -10v-672q0 -26 -16 -47t-40 -21h-16q-55 0 -70 46l-199 634q-9 22 -16 22q-10 0 -10 -21v-664q0 -10 -10 -10h-38q-10 0 -10 10v677q0 25 14.5 44t38.5 19h15q50 0 64 -36l202 -640q8 -21 22 -21q10 0 10 24v656z" />
    <glyph glyph-name="O" unicode="O" horiz-adv-x="491" 
d="M326 0h-162q-51 0 -81 41.5t-30 96.5v467q0 55 30 96.5t81 41.5h162q50 0 80.5 -42t30.5 -96v-467q0 -54 -30.5 -96t-80.5 -42zM171 59h148q27 0 43.5 22.5t16.5 51.5v477q0 29 -16.5 51.5t-43.5 22.5h-148q-27 0 -44 -22.5t-17 -51.5v-477q0 -29 17 -51.5t44 -22.5z" />
    <glyph glyph-name="P" unicode="P" horiz-adv-x="446" 
d="M117 317v-304q0 -13 -11 -13h-36q-11 0 -11 13v648q0 32 18.5 57t48.5 25h189q50 0 80.5 -42t30.5 -96v-149q0 -55 -30.5 -97t-80.5 -42h-198zM309 684h-175q-17 0 -17 -20v-288h192q26 0 42.5 23t16.5 52v159q0 29 -16.5 51.5t-42.5 22.5z" />
    <glyph glyph-name="Q" unicode="Q" horiz-adv-x="490" 
d="M170 59h148q26 0 43 22.5t17 51.5v477q0 29 -17 51.5t-43 22.5h-148q-26 0 -43 -22.5t-17 -51.5v-477q0 -29 17 -51.5t43 -22.5zM375 11l42 -83q0 -5 1 -5q6 -10 6 -13q0 -13 -13 -13h-23q-19 0 -28 22q-6 12 -19.5 40t-18.5 41h-158q-51 0 -81 41.5t-30 96.5v467
q0 55 30 96.5t81 41.5h160q50 0 80.5 -42t30.5 -96v-467q0 -77 -62 -127h2z" />
    <glyph glyph-name="R" unicode="R" horiz-adv-x="460" 
d="M309 684h-175q-17 0 -17 -20v-289h192q26 0 43 23t17 52v160q0 29 -17 51.5t-43 22.5zM117 316v-303q0 -13 -11 -13h-36q-11 0 -11 13v648q0 32 18 57t48 25h190q50 0 80.5 -42t30.5 -96v-150q0 -55 -30.5 -97t-80.5 -42l-23 1q20 -16 30 -32l112 -254q5 -13 5 -18
q0 -13 -11 -13h-29q-13 0 -24 21l-28 63l-49 111l-17 39l-24 52q-15 30 -42 30h-98z" />
    <glyph glyph-name="S" unicode="S" horiz-adv-x="422" 
d="M293 0h-240q-4 0 -9 4t-5 9v33q0 13 14 13h234q17 0 30 13t13 38v106q0 50 -26 67l-211 110q-60 32 -60 129v112q0 52 28 80.5t66 28.5h233q4 0 8.5 -4.5t4.5 -8.5v-33q0 -5 -4.5 -9t-8.5 -4h-230q-17 0 -28.5 -13.5t-11.5 -39.5v-110q0 -56 27 -70l217 -113
q53 -29 53 -124v-107q0 -52 -28 -79.5t-66 -27.5z" />
    <glyph glyph-name="T" unicode="T" horiz-adv-x="448" 
d="M198 684h-180q-13 0 -13 13v33q0 4 4.5 8.5t8.5 4.5h411q5 0 9 -4.5t4 -8.5v-33q0 -5 -4.5 -9t-8.5 -4h-173v-671q0 -13 -10 -13h-37q-11 0 -11 13v671z" />
    <glyph glyph-name="U" unicode="U" horiz-adv-x="483" 
d="M378 123v610q0 10 10 10h37q10 0 10 -10v-601q0 -52 -30.5 -92t-80.5 -40h-164q-51 0 -81.5 40t-30.5 92v601q0 10 10 10h37q11 0 11 -10v-610q0 -25 13.5 -45.5t34.5 -20.5h173q21 0 35 20.5t16 45.5z" />
    <glyph glyph-name="V" unicode="V" horiz-adv-x="527" 
d="M274 79q147 573 168 644q7 20 20 20h31q4 0 7 -2t2 -5l-185 -709q-2 -11 -13 -21t-24 -12h-6q-6 -1 -11 -1l-17 1q-12 2 -22.5 11.5t-13.5 21.5q-186 707 -186 709q0 7 10 7h30q16 0 20 -20q20 -57 170 -644v-3l1 -2q4 -19 9 -19t9 19l1 2v3z" />
    <glyph glyph-name="W" unicode="W" horiz-adv-x="773" 
d="M387 497l-81 -449q-5 -25 -22.5 -40t-44.5 -15q-58 0 -71 57l-142 677q-1 7 3 11.5t8 4.5h18q26 0 36 -37l133 -638q4 -19 15 -19q9 0 13 19l90 480q3 15 16 24t29 9q37 0 46 -33l90 -480q4 -19 13 -19q11 0 15 19l132 638q3 16 13 26.5t24 10.5h18q14 0 11 -16
l-142 -677q-13 -57 -71 -57q-27 0 -44.5 15t-22.5 40z" />
    <glyph glyph-name="X" unicode="X" horiz-adv-x="460" 
d="M201 370l-76 158l-96 199q-3 7 1.5 11.5t9.5 4.5h29q4 0 7.5 -1t7 -4t5.5 -5t5 -6.5l4 -6t3 -6.5l3 -5q0 -1 1 -3l128 -279l128 279v1q1 1 1 2l3 5q2 5 3 6.5l4 6t5 6.5t5.5 5t7 4t7.5 1h29q5 0 9.5 -4.5t1.5 -11.5l-170 -357l167 -354q3 -7 -1.5 -11.5t-9.5 -4.5h-29
q-4 0 -7.5 1t-7 4t-5.5 5t-5 6.5l-4 6t-4 6.5l-2 5v1q-1 1 -1 2l-125 276l-125 -276q0 -1 -1 -3l-2 -5q-3 -5 -4 -6.5l-4 -6t-5 -6.5t-5.5 -5t-7 -4t-7.5 -1h-29q-5 0 -9.5 4.5t-1.5 11.5l108 226z" />
    <glyph glyph-name="Y" unicode="Y" horiz-adv-x="470" 
d="M255 0h-34q-12 0 -12 10v259l-180 458q-3 7 1.5 11.5t9.5 4.5h27q17 0 29 -29l142 -371l143 371q12 29 28 29h28q5 0 9.5 -4.5t1.5 -11.5l-181 -458v-259q0 -10 -12 -10z" />
    <glyph glyph-name="Z" unicode="Z" horiz-adv-x="470" 
d="M31 68l352 623l-57 -7h-265q-5 0 -10 4t-5 9v33q0 5 5 9t10 4h371q12 0 12 -13v-28q0 -14 -7 -23q-1 -1 -3 -5.5t-3 -5.5h1q-69 -142 -345 -617l59 7h269q5 0 10 -4t5 -9v-32q0 -5 -5 -9t-10 -4h-378q-12 0 -12 13v31z" />
    <glyph glyph-name="bracketleft" unicode="[" horiz-adv-x="246" 
d="M60 -115v777q0 35 17.5 57t48.5 22h84q5 0 10 -4t5 -9v-33q0 -5 -5.5 -8.5t-9.5 -3.5h-74q-8 0 -13 -8.5t-5 -18.5v-765q0 -10 5 -18.5t13 -8.5h76q13 0 13 -12v-33q0 -13 -13 -13h-86q-31 0 -48.5 22t-17.5 57z" />
    <glyph glyph-name="backslash" unicode="\" horiz-adv-x="298" 
d="M225 10l-208 723q0 10 9 10h32q10 0 15 -10l209 -723q2 -10 -10 -10h-33q-12 0 -14 10z" />
    <glyph glyph-name="bracketright" unicode="]" horiz-adv-x="246" 
d="M185 662v-777q0 -35 -17.5 -57t-48.5 -22h-85q-14 0 -14 13v33q0 12 14 12h75q8 0 13 8.5t5 18.5v765q0 10 -5 18.5t-13 8.5h-75q-5 0 -9.5 3.5t-4.5 8.5v33q0 13 14 13h85q31 0 48.5 -22t17.5 -57z" />
    <glyph glyph-name="asciicircum" unicode="^" horiz-adv-x="396" 
d="M176 782h48q16 0 26 -19h-1l98 -169q2 -4 -0.5 -6.5t-6.5 -2.5h-25q-11 0 -17 8l-94 136q-3 5 -4 5l-5 -5l-93 -136q-6 -8 -17 -8h-25q-4 0 -6.5 2.5t-0.5 6.5l97 169h-1q10 19 27 19z" />
    <glyph glyph-name="underscore" unicode="_" horiz-adv-x="634" 
d="M582 -96h-533q-11 0 -11 13v34q0 4 3.5 8t7.5 4h533q4 0 8 -4t4 -8v-34q0 -13 -12 -13z" />
    <glyph glyph-name="grave" unicode="`" horiz-adv-x="216" 
d="M113 634l-66 127q-2 4 1 7t8 3h34q10 0 21 -16l57 -124h-1q2 -4 -0.5 -6.5t-6.5 -2.5h-27q-13 0 -20 12z" />
    <glyph glyph-name="a" unicode="a" horiz-adv-x="384" 
d="M258 496h-180q-11 0 -11 10v40q0 10 11 10h196q29 0 49.5 -19.5t20.5 -56.5v-404q0 -34 -17.5 -55t-49.5 -21h-167q-28 0 -49 19t-21 55v111q0 72 40 88l182 61h-1q16 8 20.5 17.5t4.5 28.5v77q0 24 -6.5 31.5t-21.5 7.5zM263 270l-148 -48q-17 -8 -17 -44v-80
q0 -41 31 -41h126q31 0 31 43v183q-6 -6 -23 -13z" />
    <glyph glyph-name="b" unicode="b" horiz-adv-x="407" 
d="M107 497v-399q0 -41 31 -41h140q14 0 23 11t9 32v355q0 18 -8.5 30t-23.5 12h-171zM106 732v-176h180q38 0 60 -29.5t22 -67.5v-360q0 -41 -24.5 -70t-58.5 -29h-155q-39 0 -60 26.5t-21 70.5v635q0 11 12 11h33q12 0 12 -11z" />
    <glyph glyph-name="c" unicode="c" horiz-adv-x="342" 
d="M137 57h165q4 0 8.5 -4t4.5 -8v-32q0 -5 -4.5 -9t-8.5 -4h-172q-33 0 -57 28.5t-24 69.5v360q0 39 22 68.5t59 29.5h172q4 0 8.5 -4t4.5 -9v-33q0 -5 -4.5 -9t-8.5 -4h-164q-15 0 -23.5 -12t-8.5 -30v-357q0 -41 31 -41z" />
    <glyph glyph-name="d" unicode="d" horiz-adv-x="407" 
d="M298 99v398h-171q-15 0 -23.5 -12t-8.5 -30v-354q0 -21 9.5 -32t23.5 -11h139q31 0 31 41zM298 556v176q0 4 4 7.5t8 3.5h35q12 0 12 -11v-635q0 -44 -21.5 -70.5t-60.5 -26.5h-154q-35 0 -59.5 29t-24.5 70v360q0 38 22 67.5t60 29.5h179z" />
    <glyph glyph-name="e" unicode="e" horiz-adv-x="392" 
d="M139 57h175q11 0 11 -10v-37q0 -10 -11 -10h-196q-29 0 -49.5 19.5t-20.5 56.5v404q0 34 17.5 55t49.5 21h167q28 0 49 -19t21 -55v-111q0 -72 -40 -88l-182 -61h1q-16 -8 -20.5 -17.5t-4.5 -28.5v-74q0 -45 33 -45zM129 285l148 48q18 10 18 44v79q0 41 -31 41h-127
q-31 0 -31 -43v-182q6 6 23 13z" />
    <glyph glyph-name="f" unicode="f" horiz-adv-x="290" 
d="M108 383v-375q0 -8 -12 -8h-36q-12 0 -12 8v638q0 39 23 68t61 29h144q10 0 10 -10v-39q0 -10 -10 -10h-137q-14 0 -22.5 -13t-8.5 -33v-195h135q11 0 11 -10v-40q0 -10 -11 -10h-135z" />
    <glyph glyph-name="g" unicode="g" horiz-adv-x="403" 
d="M294 57v399q0 41 -31 41h-124q-14 0 -23 -11t-9 -32v-355q0 -18 8.5 -30t22.5 -12h156zM294 -88v88h-163q-38 0 -60 29.5t-22 67.5v360q0 41 24.5 70t59.5 29h138q39 0 60.5 -26.5t21.5 -70.5v-547q0 -48 -23.5 -78t-63.5 -30h-176q-10 0 -10 13v33q0 12 10 12h166
q15 0 26.5 14.5t11.5 35.5z" />
    <glyph glyph-name="h" unicode="h" horiz-adv-x="385" 
d="M349 460v-452q0 -8 -12 -8h-35q-12 0 -12 8v444q0 19 -8 32t-23 13h-151v-489q0 -8 -12 -8h-36q-12 0 -12 8v727q0 8 12 8h35q12 0 12 -8v-179h159q38 0 60.5 -29t22.5 -67z" />
    <glyph glyph-name="i" unicode="i" horiz-adv-x="169" 
d="M113 733v-61q0 -10 -11 -10h-36q-10 0 -10 10v61q0 10 10 10h36q11 0 11 -10zM113 546v-536q0 -10 -11 -10h-36q-10 0 -10 10v536q0 10 10 10h36q11 0 11 -10z" />
    <glyph glyph-name="j" unicode="j" horiz-adv-x="200" 
d="M142 733v-51q0 -10 -11 -10h-39q-10 0 -10 10v51q0 10 10 10h39q11 0 11 -10zM84 -113v656q0 13 10 13h37q10 0 10 -13v-661q0 -36 -17 -57t-48 -21h-83q-12 0 -12 10v37q0 11 12 11h75q16 0 16 25z" />
    <glyph glyph-name="k" unicode="k" horiz-adv-x="376" 
d="M356 24l1 -1q3 -6 3 -13q0 -10 -13 -10h-29q-15 0 -24 20l-116 273l-53 -83q-19 -32 -19 -65v-135q0 -10 -10 -10h-38q-10 0 -10 10v723q0 10 10 10h38q10 0 10 -10v-451l163 260q10 14 22 14h31q13 0 13 -10q0 -5 -5 -14l-105 -169q-14 -20 -26 -29h-1q19 -6 26.5 -13.5
t15.5 -27.5l2 -5l110 -255h-1q2 -4 4 -7z" />
    <glyph glyph-name="l" unicode="l" horiz-adv-x="215" 
d="M183 0h-64q-32 0 -49.5 21t-17.5 55v659q0 8 12 8h35q12 0 12 -8v-651q0 -27 16 -27h56q11 0 11 -10v-37q0 -10 -11 -10z" />
    <glyph glyph-name="m" unicode="m" horiz-adv-x="634" 
d="M528 8v447q0 18 -8.5 30t-24.5 12h-117q-15 0 -23.5 -12t-8.5 -30v-447q0 -8 -12 -8h-34q-12 0 -12 8v447q0 18 -8.5 30t-24.5 12h-117q-15 0 -23.5 -12t-8.5 -30v-447q0 -8 -12 -8h-34q-12 0 -12 8v447q0 39 23 70t61 31h128q41 0 55 -41v-1l1 1q17 41 55 41h131
q38 0 61 -30.5t23 -70.5v-447q0 -8 -12 -8h-34q-12 0 -12 8z" />
    <glyph glyph-name="n" unicode="n" horiz-adv-x="414" 
d="M366 455v-447q0 -8 -12 -8h-34q-12 0 -12 8v442q0 19 -8.5 33t-24.5 14h-136q-15 0 -23 -14t-8 -33v-442q0 -8 -12 -8h-36q-12 0 -12 8v447q0 39 23 70t61 31h150q38 0 61 -30.5t23 -70.5z" />
    <glyph glyph-name="o" unicode="o" horiz-adv-x="416" 
d="M368 455v-356q0 -40 -21 -69.5t-58 -29.5h-159q-39 0 -60.5 29.5t-21.5 69.5v357q0 42 24.5 71t58.5 29h153q31 0 57.5 -31.5t26.5 -69.5zM310 103v348q0 19 -8.5 32.5t-23.5 13.5h-138q-14 0 -23.5 -13t-9.5 -34v-347q0 -19 9 -32.5t23 -13.5h139q15 0 23.5 13.5
t8.5 32.5z" />
    <glyph glyph-name="p" unicode="p" horiz-adv-x="407" 
d="M107 456v-397h171q15 0 23.5 12t8.5 30v353q0 21 -9 32t-23 11h-140q-31 0 -31 -41zM106 0v-184q0 -11 -12 -11h-33q-12 0 -12 11v643q0 44 21 70.5t60 26.5h155q34 0 58.5 -29t24.5 -70v-360q0 -38 -22 -67.5t-60 -29.5h-180z" />
    <glyph glyph-name="q" unicode="q" horiz-adv-x="407" 
d="M298 59v397q0 41 -31 41h-139q-14 0 -23.5 -11t-9.5 -32v-353q0 -18 8.5 -30t23.5 -12h171zM298 -185v185h-179q-38 0 -60 29.5t-22 67.5v360q0 41 24.5 70t59.5 29h154q39 0 60.5 -26.5t21.5 -70.5v-644q0 -11 -12 -11h-35q-12 0 -12 11z" />
    <glyph glyph-name="r" unicode="r" horiz-adv-x="275" 
d="M50 10v449q0 38 23 67.5t61 29.5h111q10 0 10 -10v-39q0 -10 -10 -10h-104q-9 0 -19 -11t-10 -35v-441q0 -10 -11 -10h-41q-10 0 -10 10z" />
    <glyph glyph-name="s" unicode="s" horiz-adv-x="393" 
d="M308 497h-174q-27 0 -27 -36v-69q0 -31 30 -54l132 -79q44 -28 56.5 -50.5t12.5 -51.5v-74q0 -43 -21.5 -63t-47.5 -20h-206q-10 0 -10 10v37q0 10 10 10h183q36 0 36 48v37q0 36 -28 55l-134 82q-70 43 -70 102v89q0 43 20.5 64.5t54.5 21.5h183q10 0 10 -10v-39
q0 -10 -10 -10z" />
    <glyph glyph-name="t" unicode="t" horiz-adv-x="270" 
d="M224 0h-94q-31 0 -56.5 26.5t-25.5 68.5v626q0 10 11 14l36 14h-1q7 3 10.5 -0.5t3.5 -9.5v-183h102q11 0 11 -10v-34q0 -10 -11 -10h-102v-399q0 -46 32 -46h84q10 0 10 -10v-37q0 -10 -10 -10z" />
    <glyph glyph-name="u" unicode="u" horiz-adv-x="414" 
d="M366 546v-449q0 -39 -23 -68t-61 -29h-150q-38 0 -61 29.5t-23 67.5v449q0 10 10 10h38q10 0 10 -10v-438q0 -20 9 -35.5t24 -15.5h135q16 0 24.5 15.5t8.5 35.5v438q0 10 11 10h38q10 0 10 -10z" />
    <glyph glyph-name="v" unicode="v" horiz-adv-x="423" 
d="M159 28l-136 515q-2 6 1.5 9.5t12.5 3.5h22q22 0 28 -23l121 -465q0 -16 7 -16q1 0 6 12q1 2 1 4l118 464q6 24 28 24h22q9 0 12.5 -3.5t1.5 -9.5l-136 -515q-5 -15 -19.5 -25t-34.5 -10q-44 0 -55 35z" />
    <glyph glyph-name="w" unicode="w" horiz-adv-x="618" 
d="M367 72l-58 288l-59 -288q-10 -47 -27 -63t-39 -16q-45 0 -62 75l-101 475q0 13 14 13h22q10 0 17.5 -7t9.5 -15l93 -459q2 -22 8 -22q3 0 8 18q0 1 0.5 2t0.5 2l74 348q4 15 16 23.5t25 8.5t25.5 -8.5t15.5 -23.5l74 -348q4 -22 9 -22q3 0 8 22l93 459q2 8 9.5 15
t17.5 7h21q9 0 12.5 -3t2.5 -10l-101 -475q-18 -75 -62 -75q-23 0 -40 16t-27 63z" />
    <glyph glyph-name="x" unicode="x" horiz-adv-x="365" 
d="M218 278l129 -268q2 -4 -2 -7t-7 -3h-34q-19 0 -28 19l-93 200l-93 -200q0 -1 -1 -3q-7 -16 -26 -16h-34q-3 0 -6.5 3.5t-2.5 6.5l130 268l-130 268q-1 3 2.5 6.5t6.5 3.5h34q19 0 26 -16v-1q1 -1 1 -2l93 -200l93 200q9 19 28 19h34q3 0 7 -3t2 -7z" />
    <glyph glyph-name="y" unicode="y" horiz-adv-x="423" 
d="M158 -183l46 176q-36 2 -45 35l-136 515q-2 6 1.5 9.5t12.5 3.5h22q22 0 28 -23l121 -460q0 -16 7 -16q1 0 6 12q1 2 1 4l118 459q9 24 28 24h22q9 0 12.5 -3.5t1.5 -9.5l-136 -515l-49 -200q-6 -24 -23 -24h-24q-8 0 -11.5 3t-2.5 10z" />
    <glyph glyph-name="z" unicode="z" horiz-adv-x="369" 
d="M112 95l-30 -40q24 0 35 1q6 0 18.5 0.5t18.5 0.5h168q10 0 10 -12v-32q0 -13 -10 -13h-289q-12 0 -12 13v31q0 10 7 24l113 196q76 134 114 196l26 38h-31q-6 0 -17.5 -0.5t-17.5 -0.5h-169q-11 0 -11 13v33q0 13 11 13h288q12 0 12 -13v-31q0 -9 -7 -23z" />
    <glyph glyph-name="braceleft" unicode="{" horiz-adv-x="258" 
d="M138 376q0 -36 -13.5 -69.5t-39.5 -35.5q27 -1 41.5 -34.5t14.5 -70.5v-287q0 -19 6 -19h83q12 0 12 -10v-36q0 -10 -12 -10h-89q-28 0 -43.5 18.5t-15.5 49.5v296l-1.5 25.5t-3.5 22t-9.5 20t-17.5 6.5q-22 0 -22 18v21q0 19 22 19q14 0 21.5 14t8.5 26t2 34v301
q0 31 15.5 49.5t43.5 18.5h89q12 0 12 -10v-35q0 -10 -12 -10h-85q-7 0 -7 -19v-293z" />
    <glyph glyph-name="bar" unicode="|" horiz-adv-x="170" 
d="M113 733v-919q0 -10 -12 -10h-31q-12 0 -12 10v919q0 10 12 10h31q12 0 12 -10z" />
    <glyph glyph-name="braceright" unicode="}" horiz-adv-x="258" 
d="M117 166q0 37 14.5 70.5t41.5 34.5q-27 2 -40.5 35.5t-13.5 69.5v293q0 19 -6 19h-85q-12 0 -12 10v35q0 10 12 10h89q28 0 43 -18.5t15 -49.5v-295q0 -2 0.5 -5t0.5 -4q4 -55 17 -66q6 -5 14 -5q23 0 23 -19v-21q0 -18 -23 -18q-10 0 -16 -5.5t-9 -19.5t-4 -20.5
t-2 -25.5q0 -1 -0.5 -4t-0.5 -5v-290q0 -31 -15 -49.5t-43 -18.5h-89q-12 0 -12 10v36q0 10 12 10h82q7 0 7 19v287z" />
    <glyph glyph-name="asciitilde" unicode="~" horiz-adv-x="422" 
d="M54 311h-6q-12 0 -12 15v31q0 25 15 41.5t35 16.5h251q13 0 13 29q0 6 5.5 10.5t11.5 4.5h7q12 0 12 -10v-36q0 -25 -15.5 -41.5t-35.5 -16.5h-250q-14 0 -14 -29q0 -15 -17 -15z" />
    <glyph glyph-name="exclamdown" unicode="&#xa1;" horiz-adv-x="165" 
d="M111 -184l-4 561q0 10 -12 10h-25q-12 0 -12 -10l-4 -561q0 -10 12 -10h33q12 0 12 10zM103 465h-42q-4 0 -4 10v71q0 10 4 10h42q4 0 4 -10v-71q0 -10 -4 -10z" />
    <glyph glyph-name="cent" unicode="&#xa2;" horiz-adv-x="342" 
d="M307 1l-81 -1v-113q0 -10 -12 -10h-32q-12 0 -12 10v113q-6 0 -19 0.5t-20 0.5q-34 1 -58.5 28t-24.5 67v364q0 38 22.5 67t60.5 29h39v106q0 10 12 10h32q12 0 12 -10v-106h81q11 0 11 -10v-39q0 -10 -11 -10h-169q-15 0 -23.5 -12.5t-8.5 -32.5v-351q0 -44 32 -44h169
q11 0 11 -10v-36q0 -10 -11 -10z" />
    <glyph glyph-name="sterling" unicode="&#xa3;" horiz-adv-x="368" 
d="M342 0h-308q-11 0 -11 10v37q0 10 11 10h34q26 40 26 84v295h-64q-10 0 -10 10v39q0 10 10 10h64v114q0 53 30.5 93.5t81.5 40.5h88q11 0 11 -10v-39q0 -10 -11 -10h-80q-27 0 -45 -26t-18 -58v-105h106q10 0 10 -10v-39q0 -10 -10 -10h-106v-283q0 -66 -26 -96h217
q10 0 10 -10v-37q0 -10 -10 -10z" />
    <glyph glyph-name="currency" unicode="&#xa4;" horiz-adv-x="489" 
d="M79 587l55 -66q46 24 112 24q69 0 116 -29q7 8 26 32.5t30 36.5q13 13 18 0h-1l18 -23q4 -8 0 -14l-54 -66h1q22 -54 22 -149q0 -101 -21 -148h-1l52 -65q4 -6 0 -14q-2 -3 -8.5 -11.5t-9.5 -11.5h1q-5 -13 -18 0l-52 65q-47 -28 -119 -28q-68 0 -115 26l-52 -65
q-13 -13 -18 0h1l-18 23q-4 8 0 14l51 64h-1q-24 51 -24 151q0 98 25 153h1l-52 64q-4 6 0 14q2 3 8.5 11.5t9.5 11.5h-1q5 13 18 0zM368 333q0 40 -3 63t-14 47.5t-37 36t-68 11.5q-41 0 -67 -11.5t-37 -36t-14 -48t-3 -62.5q0 -40 3 -63t14 -48t37 -36.5t67 -11.5
q42 0 68 11.5t37 36.5t14 48t3 63z" />
    <glyph glyph-name="yen" unicode="&#xa5;" horiz-adv-x="470" 
d="M209 103h-148q-12 0 -12 10v38q0 10 12 10h148v81h-148q-12 0 -12 10v38q0 10 12 10h136l-168 427q-3 7 1.5 11.5t9.5 4.5h27q17 0 29 -29l142 -371l143 371q12 29 28 29h28q5 0 9.5 -4.5t1.5 -11.5l-169 -427h136q12 0 12 -10v-38q0 -10 -12 -10h-148v-81h148
q12 0 12 -10v-38q0 -10 -12 -10h-148v-93q0 -10 -12 -10h-34q-12 0 -12 10v93z" />
    <glyph glyph-name="brokenbar" unicode="&#xa6;" horiz-adv-x="183" 
d="M119 733v-397q0 -10 -12 -10h-31q-12 0 -12 10v397q0 10 12 10h31q12 0 12 -10zM119 211v-397q0 -10 -12 -10h-31q-12 0 -12 10v397q0 10 12 10h31q12 0 12 -10z" />
    <glyph glyph-name="section" unicode="&#xa7;" horiz-adv-x="458" 
d="M354 134v71q0 73 -26 88l-226 115v-77q0 -70 28 -84zM313 -196h-232q-11 0 -11 10v39q0 10 11 10h225q21 0 34.5 15.5t13.5 46.5v104q0 40 -26 54l-219 112q-61 32 -61 130v308q0 54 28.5 82t68.5 28h220q10 0 10 -10v-39q0 -10 -10 -10h-214q-49 0 -49 -62v-106
q0 -45 28 -60l226 -112q24 -13 37 -37.5t15 -43t2 -46.5v-305q0 -53 -29 -80.5t-68 -27.5z" />
    <glyph glyph-name="dieresis" unicode="&#xa8;" horiz-adv-x="302" 
d="M121 733v-61q0 -10 -11 -10h-36q-10 0 -10 10v61q0 10 10 10h36q11 0 11 -10zM238 733v-61q0 -10 -11 -10h-36q-10 0 -10 10v61q0 10 10 10h36q11 0 11 -10z" />
    <glyph glyph-name="copyright" unicode="&#xa9;" horiz-adv-x="610" 
d="M574 379q0 -44 -2 -75.5t-8 -68t-17.5 -61.5t-31.5 -50t-48 -40t-69 -24t-93 -9q-61 0 -106.5 11t-74.5 34.5t-47 50t-27 68t-11.5 77t-2.5 87.5t2.5 88t11.5 78t27 69t47 50.5t74.5 35t106.5 11.5q72 0 123 -18t79 -45.5t43.5 -74.5t19.5 -89t4 -105zM538 379
q0 56 -3.5 93t-17 78t-37.5 64.5t-68 39.5t-107 16t-107 -16t-68 -39.5t-37 -65t-16.5 -78t-3.5 -92.5t3.5 -92.5t16.5 -77.5t37.5 -64.5t68 -39t106.5 -15.5t107 15.5t68 39t37.5 64.5t17 77.5t3.5 92.5zM376 179h-116q-28 0 -44.5 21.5t-16.5 48.5v244q0 28 16.5 49.5
t44.5 21.5h116q7 0 7 -6v-30q0 -5 -7 -5h-106q-27 0 -27 -35v-232q0 -37 27 -37h106q7 0 7 -5v-30q0 -5 -7 -5z" />
    <glyph glyph-name="ordfeminine" unicode="&#xaa;" horiz-adv-x="263" 
d="M182 449v43q0 19 -12 19h-111q-9 0 -9 6v33q0 6 9 6h119q21 0 36 -14.5t15 -41.5v-222q0 -25 -13 -40.5t-36 -15.5h-95q-21 0 -36 14t-15 41v60q0 49 26 61l117 37h-1q6 3 6 14zM180 391l-93 -30h1q-7 -4 -7 -24v-56q0 -15 9 -15h84q8 0 8 16v110zM186 395l-4 -3v5h7z
" />
    <glyph glyph-name="guillemotleft" unicode="&#xab;" horiz-adv-x="408" 
d="M143 82l-108 160q-15 22 -15 31q0 11 15 33l108 160q7 10 18 10h40q14 0 2 -17l-116 -175q-7 -11 0 -20l116 -175q12 -17 -2 -17h-40q-11 0 -18 10zM297 82l-108 160q-15 20 -15 31q0 12 15 33l108 160q8 10 17 10h40q15 0 3 -17l-116 -175q-8 -10 0 -20l116 -175
q12 -17 -3 -17h-40q-9 0 -17 10z" />
    <glyph glyph-name="logicalnot" unicode="&#xac;" horiz-adv-x="470" 
d="M373 497h-317q-12 0 -12 10v39q0 10 12 10h358q12 0 12 -10v-235q0 -10 -12 -10h-29q-12 0 -12 10v186z" />
    <glyph glyph-name="registered" unicode="&#xae;" horiz-adv-x="528" 
d="M492 475q0 -51 -4 -88t-18 -75t-38.5 -61.5t-66.5 -38t-101 -14.5q-61 0 -104.5 15t-67 37.5t-36.5 61.5t-16.5 74.5t-3.5 88.5t3.5 88.5t17 74t37.5 61t66.5 37.5t103.5 15t103.5 -15t66.5 -37.5t37.5 -61t17 -74t3.5 -88.5zM456 475q0 46 -3 77t-14 65.5t-31 54.5
t-56.5 33t-87.5 13q-52 0 -88.5 -13.5t-56.5 -33t-30.5 -54t-13.5 -65.5t-3 -77q0 -47 2.5 -77t13.5 -65t30.5 -54.5t56.5 -33t89 -13.5q61 0 101 18t59 54.5t25.5 75t6.5 95.5zM287 601h-65q-4 0 -4 -9v-109h69q9 0 14.5 9t5.5 20v60q0 11 -5.5 20t-14.5 9zM218 451v-131
q0 -5 -7 -5h-23q-7 0 -7 5v279q0 13 8.5 23.5t21.5 10.5h83q21 0 35 -18t14 -40v-65q0 -23 -13.5 -41t-35.5 -18l-17 1q15 -4 21 -15l50 -113l2 -4q0 -5 -8 -5h-20q-8 0 -11 7l-2 2l-36 81l-15 33q-6 13 -16 13h-24z" />
    <glyph glyph-name="macron" unicode="&#xaf;" horiz-adv-x="666" 
 />
    <glyph glyph-name="degree" unicode="&#xb0;" horiz-adv-x="234" 
d="M20 638q0 48 28.5 82t68.5 34t68.5 -34t28.5 -82t-28.5 -82t-68.5 -34t-68.5 34t-28.5 82zM69 638q0 -28 13.5 -46.5t34.5 -18.5q20 0 34 18.5t14 46.5t-14 46.5t-34 18.5q-21 0 -34.5 -18.5t-13.5 -46.5z" />
    <glyph glyph-name="plusminus" unicode="&#xb1;" horiz-adv-x="390" 
d="M338 1h-286q-12 0 -12 10v36q0 10 12 10h286q12 0 12 -10v-36q0 -10 -12 -10zM168 342v155q0 10 12 10h30q12 0 12 -10v-155h120q12 0 12 -10v-39q0 -10 -12 -10h-120v-158q0 -10 -12 -10h-30q-12 0 -12 10v158h-120q-12 0 -12 10v39q0 10 12 10h120z" />
    <glyph glyph-name="twosuperior" unicode="&#xb2;" horiz-adv-x="280" 
d="M214 330h-160q-11 0 -19.5 9t-8.5 21v63q0 37 21 56l131 121q8 9 8 34v41q0 22 -13 22h-124q-6 0 -10.5 4t-4.5 9v19q0 14 15 14h125q24 0 41 -17.5t17 -50.5v-41q0 -27 -6 -42.5t-25 -33.5l-85 -77l-40 -36q-6 -6 -6 -25v-45h144q5 0 9.5 -4t4.5 -10v-17q0 -6 -4.5 -10
t-9.5 -4z" />
    <glyph glyph-name="threesuperior" unicode="&#xb3;" horiz-adv-x="280" 
d="M177 330h-124q-15 0 -15 14v17q0 5 5.5 9.5t9.5 4.5h117q12 0 12 18v111q0 4 -4.5 10t-8.5 8h-97q-4 0 -9 4.5t-5 9.5v18q0 7 5 10.5t9 3.5h92q9 0 11 17v94q0 18 -11 18h-111q-6 0 -10.5 4t-4.5 9v19q0 5 5.5 9.5t9.5 4.5h117q24 0 38 -18.5t14 -41.5v-97q0 -21 -14 -36
h-1q20 -13 20 -42v-119q0 -25 -14.5 -42t-35.5 -17z" />
    <glyph glyph-name="acute" unicode="&#xb4;" horiz-adv-x="216" 
d="M172 761l-66 -127q-7 -12 -20 -12h-27q-4 0 -6.5 2.5t-0.5 6.5h-1l57 124q11 16 21 16h34q5 0 8 -3t1 -7z" />
    <glyph glyph-name="mu" unicode="&#xb5;" horiz-adv-x="414" 
d="M106 11v-197q0 -10 -10 -10h-38q-10 0 -10 10v732q0 10 10 10h38q10 0 10 -10v-442q1 -19 10 -33t23 -14h135q16 0 24.5 15.5t8.5 35.5v438q0 10 11 10h38q10 0 10 -10v-449q0 -39 -23 -68t-61 -29h-150q-15 0 -26 11z" />
    <glyph glyph-name="mu" unicode="&#x3bc;" horiz-adv-x="414" 
d="M106 11v-197q0 -10 -10 -10h-38q-10 0 -10 10v732q0 10 10 10h38q10 0 10 -10v-442q1 -19 10 -33t23 -14h135q16 0 24.5 15.5t8.5 35.5v438q0 10 11 10h38q10 0 10 -10v-449q0 -39 -23 -68t-61 -29h-150q-15 0 -26 11z" />
    <glyph glyph-name="paragraph" unicode="&#xb6;" horiz-adv-x="446" 
d="M241 309h-63q-55 0 -87.5 43.5t-32.5 101.5v144q0 58 32.5 101.5t87.5 43.5h208q12 0 12 -10v-919q0 -10 -12 -10h-29q-12 0 -12 10v876h-51v-876q0 -10 -12 -10h-29q-12 0 -12 10v495z" />
    <glyph glyph-name="periodcentered" unicode="&#xb7;" horiz-adv-x="160" 
d="M112 413v-53q0 -10 -10 -10h-44q-10 0 -10 10v53q0 10 10 10h44q10 0 10 -10z" />
    <glyph glyph-name="cedilla" unicode="&#xb8;" horiz-adv-x="220" 
d="M172 -39l-66 -127q-7 -12 -20 -12h-27q-4 0 -6.5 2.5t-0.5 6.5h-1l57 124q11 16 21 16h34q5 0 8 -3t1 -7z" />
    <glyph glyph-name="onesuperior" unicode="&#xb9;" horiz-adv-x="280" 
d="M132 343v349q0 5 -2 5h-40q-5 0 -9.5 4t-4.5 9v19q0 6 4.5 10t9.5 4h44q21 0 32.5 -14t11.5 -36v-350q0 -13 -14 -13h-18q-14 0 -14 13z" />
    <glyph glyph-name="ordmasculine" unicode="&#xba;" horiz-adv-x="217" 
d="M197 685v-175q0 -23 -12.5 -40t-34.5 -17h-80q-25 0 -37.5 16.5t-12.5 40.5v176q0 24 15 40.5t35 16.5h76q19 0 35 -18t16 -40zM150 514v168q0 15 -8 15h-66q-3 0 -6 -7t-3 -14v-162q0 -15 9 -15h66q8 0 8 15z" />
    <glyph glyph-name="guillemotright" unicode="&#xbb;" horiz-adv-x="408" 
d="M385 242l-108 -160q-7 -10 -18 -10h-40q-14 0 -2 17l116 175q7 9 0 20l-116 175q-12 17 2 17h40q11 0 18 -10l108 -160q15 -22 15 -33q0 -9 -15 -31zM231 242l-108 -160q-8 -10 -17 -10h-40q-15 0 -3 17l116 175q8 10 0 20l-116 175q-12 17 3 17h40q9 0 17 -10l108 -160
q15 -21 15 -33q0 -11 -15 -31z" />
    <glyph glyph-name="onequarter" unicode="&#xbc;" horiz-adv-x="720" 
d="M518 348l-93 -160h1q-5 -11 -5 -29v-23h97v212zM393 221l106 182h-1q5 10 18 10h34q6 0 10 -4.5t4 -9.5v-263h20q4 0 9.5 -4.5t5.5 -8.5v-18q0 -13 -15 -13h-20v-79q0 -13 -14 -13h-18q-14 0 -14 13v79h-114q-11 0 -19 8.5t-8 21.5v42q0 28 16 57zM506 740l-296 -730
q-5 -10 -15 -10h-20q-12 0 -9 10l296 730q6 10 15 10h20q11 0 9 -10zM176 343v349q0 5 -2 5h-40q-5 0 -9.5 4t-4.5 9v19q0 6 4.5 10t9.5 4h44q21 0 32.5 -14t11.5 -36v-350q0 -13 -14 -13h-18q-14 0 -14 13z" />
    <glyph glyph-name="onehalf" unicode="&#xbd;" horiz-adv-x="720" 
d="M486 740l-296 -730q-2 -10 -14 -10h-20q-12 0 -10 10l296 730q5 10 16 10h20q4 0 7 -3t1 -7zM176 343v349q0 5 -2 5h-40q-5 0 -9.5 4t-4.5 9v19q0 6 4.5 10t9.5 4h44q21 0 32.5 -14t11.5 -36v-350q0 -13 -14 -13h-18q-14 0 -14 13zM576 0h-161q-11 0 -19.5 9t-8.5 21v63
q0 36 21 56l132 121q8 9 8 34v41q0 22 -13 22h-124q-6 0 -10.5 4t-4.5 9v19q0 14 15 14h124q24 0 41.5 -17.5t17.5 -50.5v-41q0 -27 -6 -42.5t-25 -33.5l-119 -109q-11 -8 -13 -29v-45h145q5 0 9.5 -4t4.5 -10v-17q0 -6 -4.5 -10t-9.5 -4z" />
    <glyph glyph-name="threequarters" unicode="&#xbe;" horiz-adv-x="720" 
d="M551 740l-296 -730q-5 -10 -14 -10h-20q-12 0 -10 10l296 730q5 10 15 10h20q5 0 8 -3t1 -7zM530 348l-93 -160h1q-5 -11 -5 -29v-23h97v212zM405 221l106 182h-1q5 10 18 10h34q6 0 10 -4.5t4 -9.5v-263h20q4 0 9.5 -4.5t5.5 -8.5v-18q0 -13 -15 -13h-20v-79
q0 -13 -14 -13h-18q-14 0 -14 13v79h-114q-11 0 -19 8.5t-8 21.5v42q0 28 16 57zM241 330h-124q-15 0 -15 14v17q0 5 5.5 9.5t9.5 4.5h117q12 0 12 18v111q0 4 -4.5 10t-8.5 8h-97q-4 0 -9.5 4.5t-5.5 9.5v18q0 7 5.5 10.5t9.5 3.5h92q9 0 11 17v94q0 18 -11 18h-111
q-6 0 -10.5 4t-4.5 9v19q0 5 5.5 9.5t9.5 4.5h116q25 0 38.5 -18t13.5 -42v-97q0 -22 -13 -36h-1q20 -13 20 -42v-119q0 -25 -14.5 -42t-35.5 -17z" />
    <glyph glyph-name="questiondown" unicode="&#xbf;" horiz-adv-x="401" 
d="M260 377q0 10 13 10h33q12 0 12 -10v-23q0 -60 -17 -83l-180 -243q-17 -27 -17 -70v-47q0 -39 30 -39h226q12 0 12 -10v-39q0 -10 -12 -10h-236q-31 0 -54 23t-23 65v63q0 64 36 109l85 112q56 73 74 100.5t18 44.5v47zM308 465h-42q-4 0 -4 10v71q0 10 4 10h42
q4 0 4 -10v-71q0 -10 -4 -10z" />
    <glyph glyph-name="Agrave" unicode="&#xc0;" horiz-adv-x="504" 
d="M223 810l-67 127q-2 10 10 10h29q11 0 18 -9l61 -131q4 -9 -9 -9h-22q-14 0 -20 12zM366 283h-226l102 397q4 11 13 11q5 0 9 -11zM126 231h254l59 -220q4 -11 13 -11h36q3 0 6 2.5t2 5.5l-183 697q-10 38 -45 44q-16 2 -31 0q-33 -4 -44 -44l-183 -697q-1 -3 2 -5.5
t6 -2.5h36q9 0 13 11q4 17 59 220z" />
    <glyph glyph-name="Aacute" unicode="&#xc1;" horiz-adv-x="504" 
d="M345 937l-66 -127q-7 -12 -20 -12h-27q-13 0 -9 9l58 124q11 16 21 16h33q6 0 9 -3t1 -7zM140 283h226l-102 397q-4 11 -9 11q-9 0 -13 -11zM380 231h-254q-55 -203 -59 -220q-4 -11 -13 -11h-36q-3 0 -6 2.5t-2 5.5l183 697q11 40 44 44q15 2 31 0q35 -6 45 -44
l183 -697q1 -3 -2 -5.5t-6 -2.5h-36q-9 0 -13 11z" />
    <glyph glyph-name="Acircumflex" unicode="&#xc2;" horiz-adv-x="504" 
d="M226 947h48q17 0 26 -19l68 -120h-1q2 -4 -0.5 -6.5t-7.5 -2.5h-24q-14 0 -18 8h1l-64 99q-3 5 -4 5l-4 -5l-64 -99q-6 -8 -17 -8h-25q-13 0 -9 9l68 120q10 19 27 19zM140 283h226l-102 397q-4 11 -9 11q-9 0 -13 -11zM380 231h-254q-55 -203 -59 -220q-4 -11 -13 -11
h-36q-3 0 -6 2.5t-2 5.5l183 697q11 40 44 44q15 2 31 0q35 -6 45 -44l183 -697q1 -3 -2 -5.5t-6 -2.5h-36q-9 0 -13 11z" />
    <glyph glyph-name="Atilde" unicode="&#xc3;" horiz-adv-x="504" 
d="M140 283h226l-102 397q-4 11 -9 11q-9 0 -13 -11zM380 231h-254q-55 -203 -59 -220q-4 -11 -13 -11h-36q-3 0 -6 2.5t-2 5.5l183 697q11 40 44 44q15 2 31 0q35 -6 45 -44l183 -697q1 -3 -2 -5.5t-6 -2.5h-36q-9 0 -13 11zM170 806h-9q-12 0 -12 10v29q0 25 15 41.5
t35 16.5h96q5 0 9 6.5t4 15.5t7 15.5t16 6.5h8q12 0 12 -10v-29q0 -25 -15 -41.5t-35 -16.5h-95q-14 0 -14 -22q0 -9 -6.5 -15.5t-15.5 -6.5z" />
    <glyph glyph-name="Adieresis" unicode="&#xc4;" horiz-adv-x="504" 
d="M140 283h226l-102 397q-4 11 -9 11q-9 0 -13 -11zM380 231h-254q-55 -203 -59 -220q-4 -11 -13 -11h-36q-3 0 -6 2.5t-2 5.5l183 697q11 40 44 44q15 2 31 0q35 -6 45 -44l183 -697q1 -3 -2 -5.5t-6 -2.5h-36q-9 0 -13 11zM223 920v-61q0 -10 -11 -10h-36q-10 0 -10 10
v61q0 10 10 10h36q11 0 11 -10zM339 920v-61q0 -10 -10 -10h-36q-10 0 -10 10v61q0 10 10 10h36q10 0 10 -10z" />
    <glyph glyph-name="Aring" unicode="&#xc5;" horiz-adv-x="504" 
d="M172 900q0 38 23 65.5t55 27.5t55 -27.5t23 -65.5t-23 -65t-55 -27t-55 27t-23 65zM215 900q0 -20 10 -34t25 -14q14 0 24.5 14t10.5 34t-10.5 34.5t-24.5 14.5q-15 0 -25 -14.5t-10 -34.5zM366 283h-226l102 397q4 11 13 11q5 0 9 -11zM126 231h254l59 -220
q4 -11 13 -11h36q3 0 6 2.5t2 5.5l-183 697q-10 38 -45 44q-16 2 -31 0q-33 -4 -44 -44l-183 -697q-1 -3 2 -5.5t6 -2.5h36q9 0 13 11q4 17 59 220z" />
    <glyph glyph-name="AE" unicode="&#xc6;" horiz-adv-x="710" 
d="M345 284v400h-83q-21 0 -28 -31l-95 -369h206zM10 8l177 680q18 55 78 55h416q10 0 10 -10v-39q0 -10 -10 -10h-262q-7 0 -11.5 -8.5t-4.5 -19.5v-246h219q10 0 10 -10v-38q0 -10 -10 -10h-219v-267q0 -28 16 -28h262q10 0 10 -10v-37q0 -10 -10 -10h-270q-27 0 -46.5 22
t-19.5 54v154h-220l-58 -219q-4 -11 -13 -11h-36q-3 0 -6 2.5t-2 5.5z" />
    <glyph glyph-name="Ccedilla" unicode="&#xc7;" horiz-adv-x="437" 
d="M158 -128l59 128h-56q-51 0 -82 41t-31 95v471q0 54 31 95t82 41h225q10 0 10 -10v-39q0 -10 -10 -10h-219q-27 0 -44 -24t-17 -54v-471q0 -30 17 -54t44 -24h219q10 0 10 -10v-37q0 -10 -10 -10h-108l-65 -125q-6 -12 -20 -12h-27q-4 0 -6.5 2.5t-0.5 6.5h-1z" />
    <glyph glyph-name="Egrave" unicode="&#xc8;" horiz-adv-x="417" 
d="M214 810l-67 127q-2 10 10 10h33q11 0 18 -9l61 -131q4 -9 -9 -9h-26q-13 0 -20 12zM380 0h-265q-27 0 -46.5 24t-19.5 58v579q0 32 17.5 57t48.5 25h263q4 0 9.5 -4.5t5.5 -8.5v-33q0 -5 -5 -9t-10 -4h-255q-17 0 -17 -20v-249h217q5 0 9 -4.5t4 -8.5v-33q0 -5 -4.5 -9
t-8.5 -4h-217v-277q0 -20 17 -20h257q4 0 8.5 -4.5t4.5 -8.5v-33q0 -5 -4.5 -9t-8.5 -4z" />
    <glyph glyph-name="Eacute" unicode="&#xc9;" horiz-adv-x="417" 
d="M290 937l-66 -127q-7 -12 -20 -12h-26q-13 0 -8 9h-1l61 131q4 9 17 9h34q5 0 8 -3t1 -7zM380 0h-265q-27 0 -46.5 24t-19.5 58v579q0 32 17.5 57t48.5 25h263q4 0 9.5 -4.5t5.5 -8.5v-33q0 -5 -5 -9t-10 -4h-255q-17 0 -17 -20v-249h217q5 0 9 -4.5t4 -8.5v-33
q0 -5 -4.5 -9t-8.5 -4h-217v-277q0 -20 17 -20h257q4 0 8.5 -4.5t4.5 -8.5v-33q0 -5 -4.5 -9t-8.5 -4z" />
    <glyph glyph-name="Ecircumflex" unicode="&#xca;" horiz-adv-x="417" 
d="M380 0h-265q-27 0 -46.5 24t-19.5 58v579q0 32 17.5 57t48.5 25h263q4 0 9.5 -4.5t5.5 -8.5v-33q0 -5 -5 -9t-10 -4h-255q-17 0 -17 -20v-249h217q5 0 9 -4.5t4 -8.5v-33q0 -5 -4.5 -9t-8.5 -4h-217v-277q0 -20 17 -20h257q4 0 8.5 -4.5t4.5 -8.5v-33q0 -5 -4.5 -9
t-8.5 -4zM184 947h48q17 0 26 -19l68 -120h-1q2 -4 -0.5 -6.5t-6.5 -2.5h-25q-11 0 -17 8l-64 99q-3 5 -4 5l-4 -5l-64 -99q-6 -8 -17 -8h-25q-4 0 -6.5 2.5t-0.5 6.5h-1l68 120q9 19 26 19z" />
    <glyph glyph-name="Edieresis" unicode="&#xcb;" horiz-adv-x="417" 
d="M178 920v-61q0 -10 -10 -10h-36q-10 0 -10 10v61q0 10 10 10h36q10 0 10 -10zM295 920v-61q0 -10 -10 -10h-36q-11 0 -11 10v61q0 10 11 10h36q10 0 10 -10zM380 0h-265q-27 0 -46.5 24t-19.5 58v579q0 32 17.5 57t48.5 25h263q4 0 9.5 -4.5t5.5 -8.5v-33q0 -5 -5 -9
t-10 -4h-255q-17 0 -17 -20v-249h217q5 0 9 -4.5t4 -8.5v-33q0 -5 -4.5 -9t-8.5 -4h-217v-277q0 -20 17 -20h257q4 0 8.5 -4.5t4.5 -8.5v-33q0 -5 -4.5 -9t-8.5 -4z" />
    <glyph glyph-name="Igrave" unicode="&#xcc;" horiz-adv-x="186" 
d="M69 810l-66 127q-2 4 1 7t8 3h34q10 0 21 -16l57 -124h-1q2 -4 -0.5 -6.5t-6.5 -2.5h-27q-13 0 -20 12zM124 10v723q0 10 -11 10h-37q-10 0 -10 -10v-723q0 -10 10 -10h37q11 0 11 10z" />
    <glyph glyph-name="Iacute" unicode="&#xcd;" horiz-adv-x="186" 
d="M126 733v-723q0 -10 -11 -10h-37q-10 0 -10 10v723q0 10 10 10h37q11 0 11 -10zM184 937l-66 -127q-7 -12 -20 -12h-27q-13 0 -9 9l58 124q11 16 21 16h33q6 0 9 -3t1 -7z" />
    <glyph glyph-name="Icircumflex" unicode="&#xce;" horiz-adv-x="186" 
d="M126 733v-723q0 -10 -11 -10h-37q-10 0 -10 10v723q0 10 10 10h37q11 0 11 -10zM73 947h48q17 0 26 -19l68 -120h-1q2 -4 -0.5 -6.5t-7.5 -2.5h-24q-14 0 -18 8h1l-64 99q-3 5 -4 5l-4 -5l-64 -99q-6 -8 -17 -8h-25q-13 0 -9 9l68 120q10 19 27 19z" />
    <glyph glyph-name="Idieresis" unicode="&#xcf;" horiz-adv-x="186" 
d="M122 733v-723q0 -10 -11 -10h-37q-10 0 -10 10v723q0 10 10 10h37q11 0 11 -10zM63 920v-61q0 -10 -10 -10h-36q-11 0 -11 10v61q0 10 11 10h36q10 0 10 -10zM180 920v-61q0 -10 -10 -10h-36q-11 0 -11 10v61q0 10 11 10h36q10 0 10 -10z" />
    <glyph glyph-name="Eth" unicode="&#xd0;" horiz-adv-x="510" 
d="M86 355h-56q-13 0 -13 13v33q0 5 4.5 9t8.5 4h56v314q0 6 4.5 10.5t9.5 4.5h250q49 0 79.5 -42t30.5 -96v-467q0 -54 -30.5 -96t-79.5 -42h-250q-5 0 -9.5 4.5t-4.5 10.5v340zM143 57h199q26 0 43 22.5t17 51.5v479q0 29 -17 51.5t-43 22.5h-199v-270h108q12 0 12 -13
v-33q0 -13 -12 -13h-108v-298z" />
    <glyph glyph-name="Ntilde" unicode="&#xd1;" horiz-adv-x="529" 
d="M184 806h-9q-12 0 -12 10v29q0 25 15.5 41.5t35.5 16.5h95q13 0 13 22q0 9 7 15.5t16 6.5h9q12 0 12 -10v-29q0 -25 -15.5 -41.5t-35.5 -16.5h-95q-14 0 -14 -22q0 -9 -6.5 -15.5t-15.5 -6.5zM418 733q0 10 10 10h38q11 0 11 -10v-672q0 -26 -16 -47t-40 -21h-16
q-55 0 -70 46l-199 634q-9 22 -16 22q-10 0 -10 -21v-664q0 -10 -10 -10h-38q-10 0 -10 10v677q0 25 14.5 44t38.5 19h15q50 0 64 -36l202 -640q8 -21 22 -21q10 0 10 24v656z" />
    <glyph glyph-name="Ograve" unicode="&#xd2;" horiz-adv-x="491" 
d="M227 810l-66 127q-2 4 1 7t8 3h34q10 0 21 -16l57 -124h-1q2 -4 -0.5 -6.5t-6.5 -2.5h-27q-13 0 -20 12zM164 0h162q50 0 80.5 42t30.5 96v467q0 54 -30.5 96t-80.5 42h-162q-51 0 -81 -41.5t-30 -96.5v-467q0 -55 30 -96.5t81 -41.5zM319 59h-148q-27 0 -44 22.5
t-17 51.5v477q0 29 17 51.5t44 22.5h148q27 0 43.5 -22.5t16.5 -51.5v-477q0 -29 -16.5 -51.5t-43.5 -22.5z" />
    <glyph glyph-name="Oacute" unicode="&#xd3;" horiz-adv-x="491" 
d="M306 937l-66 -127q-7 -12 -20 -12h-26q-13 0 -8 9h-1l61 131q4 9 17 9h34q5 0 8 -3t1 -7zM326 0h-162q-51 0 -81 41.5t-30 96.5v467q0 55 30 96.5t81 41.5h162q50 0 80.5 -42t30.5 -96v-467q0 -54 -30.5 -96t-80.5 -42zM171 59h148q27 0 43.5 22.5t16.5 51.5v477
q0 29 -16.5 51.5t-43.5 22.5h-148q-27 0 -44 -22.5t-17 -51.5v-477q0 -29 17 -51.5t44 -22.5z" />
    <glyph glyph-name="Ocircumflex" unicode="&#xd4;" horiz-adv-x="491" 
d="M222 947h48q16 0 26 -19l68 -120q4 -9 -9 -9h-25q-13 0 -17 8h1l-64 99q-3 5 -4 5l-5 -5l-64 -99h1q-4 -8 -17 -8h-25q-13 0 -9 9l68 120q10 19 27 19zM326 0h-162q-51 0 -81 41.5t-30 96.5v467q0 55 30 96.5t81 41.5h162q50 0 80.5 -42t30.5 -96v-467q0 -54 -30.5 -96
t-80.5 -42zM171 59h148q27 0 43.5 22.5t16.5 51.5v477q0 29 -16.5 51.5t-43.5 22.5h-148q-27 0 -44 -22.5t-17 -51.5v-477q0 -29 17 -51.5t44 -22.5z" />
    <glyph glyph-name="Otilde" unicode="&#xd5;" horiz-adv-x="491" 
d="M326 0h-162q-51 0 -81 41.5t-30 96.5v467q0 55 30 96.5t81 41.5h162q50 0 80.5 -42t30.5 -96v-467q0 -54 -30.5 -96t-80.5 -42zM171 59h148q27 0 43.5 22.5t16.5 51.5v477q0 29 -16.5 51.5t-43.5 22.5h-148q-27 0 -44 -22.5t-17 -51.5v-477q0 -29 17 -51.5t44 -22.5z
M165 806h-9q-12 0 -12 10v29q0 25 15 41.5t35 16.5h96q5 0 9 6.5t4 15.5t7 15.5t16 6.5h8q12 0 12 -10v-29q0 -25 -15 -41.5t-35 -16.5h-95q-14 0 -14 -22q0 -9 -6.5 -15.5t-15.5 -6.5z" />
    <glyph glyph-name="Odieresis" unicode="&#xd6;" horiz-adv-x="491" 
d="M215 920v-61q0 -10 -10 -10h-36q-11 0 -11 10v61q0 10 11 10h36q10 0 10 -10zM332 920v-61q0 -10 -10 -10h-36q-11 0 -11 10v61q0 10 11 10h36q10 0 10 -10zM326 0h-162q-51 0 -81 41.5t-30 96.5v467q0 55 30 96.5t81 41.5h162q50 0 80.5 -42t30.5 -96v-467
q0 -54 -30.5 -96t-80.5 -42zM171 59h148q27 0 43.5 22.5t16.5 51.5v477q0 29 -16.5 51.5t-43.5 22.5h-148q-27 0 -44 -22.5t-17 -51.5v-477q0 -29 17 -51.5t44 -22.5z" />
    <glyph glyph-name="multiply" unicode="&#xd7;" horiz-adv-x="323" 
d="M168 375l85 106q10 12 17 0l19 -24q6 -6 0 -14l-88 -110l88 -110q6 -8 0 -14l-19 -24q-8 -13 -17 0l-85 107l-85 -107q-10 -10 -18 0l-19 24q-6 6 0 14l88 110l-88 110q-6 8 0 14l19 24q8 13 18 0z" />
    <glyph glyph-name="Oslash" unicode="&#xd8;" horiz-adv-x="462" 
d="M88 24l-7 -14q-5 -10 -15 -10h-33q-12 0 -9 10l31 62q-12 33 -12 64v471q0 54 30.5 95t81.5 41h164q37 0 63 -23l7 13h-1q3 10 15 10h32q11 0 9 -10l-29 -57q15 -33 15 -69v-471q0 -54 -30.5 -95t-80.5 -41h-164q-40 0 -67 24zM162 57h150q26 0 43.5 24t17.5 54v457
l-256 -507h-1q18 -28 46 -28zM312 685h-150q-27 0 -44 -24t-17 -54v-444l253 498h1q-19 24 -43 24z" />
    <glyph glyph-name="Ugrave" unicode="&#xd9;" horiz-adv-x="483" 
d="M246 810l-66 127q-2 4 1 7t9 3h33q10 0 21 -16l58 -124q4 -9 -9 -9h-27q-13 0 -20 12zM378 123v610q0 10 10 10h37q10 0 10 -10v-601q0 -52 -30.5 -92t-80.5 -40h-164q-51 0 -81.5 40t-30.5 92v601q0 10 10 10h37q11 0 11 -10v-610q0 -25 13.5 -45.5t34.5 -20.5h173
q21 0 35 20.5t16 45.5z" />
    <glyph glyph-name="Uacute" unicode="&#xda;" horiz-adv-x="483" 
d="M302 937l-66 -127q-7 -12 -20 -12h-26q-13 0 -8 9h-1l61 131q4 9 17 9h34q5 0 8 -3t1 -7zM378 123v610q0 10 10 10h37q10 0 10 -10v-601q0 -52 -30.5 -92t-80.5 -40h-164q-51 0 -81.5 40t-30.5 92v601q0 10 10 10h37q11 0 11 -10v-610q0 -25 13.5 -45.5t34.5 -20.5h173
q21 0 35 20.5t16 45.5z" />
    <glyph glyph-name="Ucircumflex" unicode="&#xdb;" horiz-adv-x="483" 
d="M218 947h48q16 0 26 -19l68 -120q4 -9 -9 -9h-25q-13 0 -17 8h1l-64 99q-3 5 -4 5l-5 -5l-64 -99h1q-4 -8 -17 -8h-25q-13 0 -9 9l68 120q10 19 27 19zM378 123v610q0 10 10 10h37q10 0 10 -10v-601q0 -52 -30.5 -92t-80.5 -40h-164q-51 0 -81.5 40t-30.5 92v601
q0 10 10 10h37q11 0 11 -10v-610q0 -25 13.5 -45.5t34.5 -20.5h173q21 0 35 20.5t16 45.5z" />
    <glyph glyph-name="Udieresis" unicode="&#xdc;" horiz-adv-x="483" 
d="M211 920v-61q0 -10 -10 -10h-36q-11 0 -11 10v61q0 10 11 10h36q10 0 10 -10zM328 920v-61q0 -10 -10 -10h-36q-11 0 -11 10v61q0 10 11 10h36q10 0 10 -10zM378 123v610q0 10 10 10h37q10 0 10 -10v-601q0 -52 -30.5 -92t-80.5 -40h-164q-51 0 -81.5 40t-30.5 92v601
q0 10 10 10h37q11 0 11 -10v-610q0 -25 13.5 -45.5t34.5 -20.5h173q21 0 35 20.5t16 45.5z" />
    <glyph glyph-name="Yacute" unicode="&#xdd;" horiz-adv-x="470" 
d="M255 0h-34q-12 0 -12 10v259l-180 458q-3 7 1.5 11.5t9.5 4.5h27q17 0 29 -29l142 -371l143 371q12 29 28 29h28q5 0 9.5 -4.5t1.5 -11.5l-181 -458v-259q0 -10 -12 -10zM312 937l-67 -127q-6 -12 -20 -12h-26q-13 0 -9 9l61 131q7 9 18 9h33q12 0 10 -10z" />
    <glyph glyph-name="Thorn" unicode="&#xde;" horiz-adv-x="407" 
d="M49 11v721q0 11 11 11h34q12 0 12 -11v-156h180q38 0 60.5 -29.5t22.5 -67.5v-215q0 -42 -24.5 -70.5t-59.5 -28.5h-179v-154q0 -11 -12 -11h-34q-11 0 -11 11zM107 517v-294h171q32 0 32 43v209q0 18 -8.5 30t-23.5 12h-171z" />
    <glyph glyph-name="germandbls" unicode="&#xdf;" horiz-adv-x="446" 
d="M316 0h-166q-12 0 -12 9v40q0 8 12 8h158q15 0 23.5 11.5t8.5 29.5v201q0 49 -42 49h-107q-10 0 -10 6v49q0 6 10 6h80q16 0 28.5 20t12.5 46v161q0 21 -11.5 34.5t-25.5 13.5h-133q-16 0 -26 -13.5t-10 -32.5v-629q0 -9 -11 -9h-37q-10 0 -10 10v633q0 46 21 73t61 27
h156q35 0 59.5 -29.5t24.5 -72.5v-166q0 -26 -12 -49t-33 -32q36 -6 54.5 -34t18.5 -61v-200q0 -40 -22 -69.5t-60 -29.5z" />
    <glyph glyph-name="agrave" unicode="&#xe0;" horiz-adv-x="384" 
d="M185 634l-67 127q-2 10 10 10h34q10 0 17 -9l61 -131q4 -9 -9 -9h-26q-13 0 -20 12zM258 496h-180q-11 0 -11 10v40q0 10 11 10h196q29 0 49.5 -19.5t20.5 -56.5v-404q0 -34 -17.5 -55t-49.5 -21h-167q-28 0 -49 19t-21 55v111q0 72 40 88l182 61h-1q16 8 20.5 17.5
t4.5 28.5v77q0 24 -6.5 31.5t-21.5 7.5zM263 270l-148 -48q-17 -8 -17 -44v-80q0 -41 31 -41h126q31 0 31 43v183q-6 -6 -23 -13z" />
    <glyph glyph-name="aacute" unicode="&#xe1;" horiz-adv-x="384" 
d="M258 496h-180q-11 0 -11 10v40q0 10 11 10h196q29 0 49.5 -19.5t20.5 -56.5v-404q0 -34 -17.5 -55t-49.5 -21h-167q-28 0 -49 19t-21 55v111q0 72 40 88l182 61h-1q16 8 20.5 17.5t4.5 28.5v77q0 24 -6.5 31.5t-21.5 7.5zM263 270l-148 -48q-17 -8 -17 -44v-80
q0 -41 31 -41h126q31 0 31 43v183q-6 -6 -23 -13zM267 761l-66 -127q-7 -12 -20 -12h-27q-4 0 -6.5 2.5t-0.5 6.5h-1l57 124q11 16 21 16h34q5 0 8 -3t1 -7z" />
    <glyph glyph-name="acircumflex" unicode="&#xe2;" horiz-adv-x="384" 
d="M163 771h48q17 0 27 -19l68 -120q4 -9 -9 -9h-25q-11 0 -17 8l-64 99q-3 5 -4 5l-4 -5l-64 -99h1q-4 -8 -18 -8h-24q-13 0 -8 9h-1l68 120q9 19 26 19zM258 496h-180q-11 0 -11 10v40q0 10 11 10h196q29 0 49.5 -19.5t20.5 -56.5v-404q0 -34 -17.5 -55t-49.5 -21h-167
q-28 0 -49 19t-21 55v111q0 72 40 88l182 61h-1q16 8 20.5 17.5t4.5 28.5v77q0 24 -6.5 31.5t-21.5 7.5zM263 270l-148 -48q-17 -8 -17 -44v-80q0 -41 31 -41h126q31 0 31 43v183q-6 -6 -23 -13z" />
    <glyph glyph-name="atilde" unicode="&#xe3;" horiz-adv-x="384" 
d="M106 630h-8q-12 0 -12 10v29q0 25 15 41.5t35 16.5h95q14 0 14 22q0 9 6.5 15.5t15.5 6.5h9q12 0 12 -10v-29q0 -25 -15 -41.5t-35 -16.5h-96q-5 0 -9 -6.5t-4 -15.5t-7 -15.5t-16 -6.5zM258 496h-180q-11 0 -11 10v40q0 10 11 10h196q29 0 49.5 -19.5t20.5 -56.5v-404
q0 -34 -17.5 -55t-49.5 -21h-167q-28 0 -49 19t-21 55v111q0 72 40 88l182 61h-1q16 8 20.5 17.5t4.5 28.5v77q0 24 -6.5 31.5t-21.5 7.5zM263 270l-148 -48q-17 -8 -17 -44v-80q0 -41 31 -41h126q31 0 31 43v183q-6 -6 -23 -13z" />
    <glyph glyph-name="adieresis" unicode="&#xe4;" horiz-adv-x="384" 
d="M157 733v-61q0 -10 -11 -10h-36q-10 0 -10 10v61q0 10 10 10h36q11 0 11 -10zM274 733v-61q0 -10 -11 -10h-36q-10 0 -10 10v61q0 10 10 10h36q11 0 11 -10zM258 496h-180q-11 0 -11 10v40q0 10 11 10h196q29 0 49.5 -19.5t20.5 -56.5v-404q0 -34 -17.5 -55t-49.5 -21
h-167q-28 0 -49 19t-21 55v111q0 72 40 88l182 61h-1q16 8 20.5 17.5t4.5 28.5v77q0 24 -6.5 31.5t-21.5 7.5zM263 270l-148 -48q-17 -8 -17 -44v-80q0 -41 31 -41h126q31 0 31 43v183q-6 -6 -23 -13z" />
    <glyph glyph-name="aring" unicode="&#xe5;" horiz-adv-x="384" 
d="M109 750q0 38 22.5 65.5t54.5 27.5t55.5 -27.5t23.5 -65.5t-23.5 -65t-55.5 -27t-54.5 27t-22.5 65zM152 750q0 -20 10 -34t24 -14q15 0 25.5 14t10.5 34t-10.5 34.5t-25.5 14.5q-14 0 -24 -14.5t-10 -34.5zM258 496h-180q-11 0 -11 10v40q0 10 11 10h196
q29 0 49.5 -19.5t20.5 -56.5v-404q0 -34 -17.5 -55t-49.5 -21h-167q-28 0 -49 19t-21 55v111q0 72 40 88l182 61h-1q16 8 20.5 17.5t4.5 28.5v77q0 24 -6.5 31.5t-21.5 7.5zM263 270l-148 -48q-17 -8 -17 -44v-80q0 -41 31 -41h126q31 0 31 43v183q-6 -6 -23 -13z" />
    <glyph glyph-name="ae" unicode="&#xe6;" horiz-adv-x="630" 
d="M377 57h175q10 0 10 -10v-37q0 -10 -10 -10h-197q-22 0 -38 18q-14 -18 -40 -18h-167q-28 0 -49 19t-21 55v111q0 72 40 88l182 61h-1q24 11 25 38v80q0 45 -33 45h-175q-11 0 -11 10v39q0 10 11 10h196q25 0 40 -17q11 17 39 17h167q28 0 49 -19t21 -55v-111
q0 -72 -40 -88l-183 -61h1q-15 -8 -19.5 -17.5t-4.5 -28.5v-74q0 -45 33 -45zM263 273l-151 -48q-18 -10 -18 -44v-83q0 -41 32 -41h129q31 0 31 43v186q-6 -6 -23 -13zM367 283l150 48q18 10 18 44v81q0 41 -31 41h-130q-30 0 -30 -43v-184q6 6 23 13z" />
    <glyph glyph-name="ccedilla" unicode="&#xe7;" horiz-adv-x="342" 
d="M307 0h-77l-64 -125q-7 -12 -20 -12h-27q-13 0 -9 9l60 128h-39q-34 0 -58.5 28t-24.5 68v364q0 38 22.5 67t60.5 29h176q11 0 11 -10v-39q0 -10 -11 -10h-169q-15 0 -23.5 -12.5t-8.5 -32.5v-351q0 -44 32 -44h169q11 0 11 -10v-37q0 -10 -11 -10z" />
    <glyph glyph-name="egrave" unicode="&#xe8;" horiz-adv-x="392" 
d="M174 634l-67 127q-2 10 10 10h33q11 0 18 -9l61 -131q4 -9 -9 -9h-26q-13 0 -20 12zM139 57h175q11 0 11 -10v-37q0 -10 -11 -10h-196q-29 0 -49.5 19.5t-20.5 56.5v404q0 34 17.5 55t49.5 21h167q28 0 49 -19t21 -55v-111q0 -72 -40 -88l-182 -61h1q-16 -8 -20.5 -17.5
t-4.5 -28.5v-74q0 -45 33 -45zM129 285l148 48q18 10 18 44v79q0 41 -31 41h-127q-31 0 -31 -43v-182q6 6 23 13z" />
    <glyph glyph-name="eacute" unicode="&#xe9;" horiz-adv-x="392" 
d="M277 761l-67 -127q-6 -12 -20 -12h-26q-13 0 -9 9l61 131q7 9 18 9h33q12 0 10 -10zM139 57h175q11 0 11 -10v-37q0 -10 -11 -10h-196q-29 0 -49.5 19.5t-20.5 56.5v404q0 34 17.5 55t49.5 21h167q28 0 49 -19t21 -55v-111q0 -72 -40 -88l-182 -61h1q-16 -8 -20.5 -17.5
t-4.5 -28.5v-74q0 -45 33 -45zM129 285l148 48q18 10 18 44v79q0 41 -31 41h-127q-31 0 -31 -43v-182q6 6 23 13z" />
    <glyph glyph-name="ecircumflex" unicode="&#xea;" horiz-adv-x="392" 
d="M139 57h175q11 0 11 -10v-37q0 -10 -11 -10h-196q-29 0 -49.5 19.5t-20.5 56.5v404q0 34 17.5 55t49.5 21h167q28 0 49 -19t21 -55v-111q0 -72 -40 -88l-182 -61h1q-16 -8 -20.5 -17.5t-4.5 -28.5v-74q0 -45 33 -45zM129 285l148 48q18 10 18 44v79q0 41 -31 41h-127
q-31 0 -31 -43v-182q6 6 23 13zM172 771h48q17 0 26 -19l68 -120h-1q2 -4 -0.5 -6.5t-6.5 -2.5h-25q-11 0 -17 8l-64 99q-3 5 -4 5l-4 -5l-64 -99q-6 -8 -17 -8h-25q-4 0 -6.5 2.5t-0.5 6.5h-1l68 120q9 19 26 19z" />
    <glyph glyph-name="edieresis" unicode="&#xeb;" horiz-adv-x="392" 
d="M166 733v-61q0 -10 -11 -10h-36q-10 0 -10 10v61q0 10 10 10h36q11 0 11 -10zM282 733v-61q0 -10 -10 -10h-36q-10 0 -10 10v61q0 10 10 10h36q10 0 10 -10zM139 57h175q11 0 11 -10v-37q0 -10 -11 -10h-196q-29 0 -49.5 19.5t-20.5 56.5v404q0 34 17.5 55t49.5 21h167
q28 0 49 -19t21 -55v-111q0 -72 -40 -88l-182 -61h1q-16 -8 -20.5 -17.5t-4.5 -28.5v-74q0 -45 33 -45zM129 285l148 48q18 10 18 44v79q0 41 -31 41h-127q-31 0 -31 -43v-182q6 6 23 13z" />
    <glyph glyph-name="igrave" unicode="&#xec;" horiz-adv-x="172" 
d="M69 634l-66 127q-2 4 1 7t8 3h34q10 0 21 -16l57 -124h-1q2 -4 -0.5 -6.5t-6.5 -2.5h-27q-13 0 -20 12zM115 10v536q0 10 -11 10h-36q-10 0 -10 -10v-536q0 -10 10 -10h36q11 0 11 10z" />
    <glyph glyph-name="iacute" unicode="&#xed;" horiz-adv-x="172" 
d="M120 546v-536q0 -10 -10 -10h-40q-10 0 -10 10v536q0 10 10 10h40q10 0 10 -10zM178 761l-67 -127q-6 -12 -20 -12h-26q-13 0 -9 9l61 131q7 9 17 9h34q12 0 10 -10z" />
    <glyph glyph-name="icircumflex" unicode="&#xee;" horiz-adv-x="172" 
d="M120 546v-536q0 -10 -10 -10h-40q-10 0 -10 10v536q0 10 10 10h40q10 0 10 -10zM66 771h48q17 0 27 -19l68 -120q4 -9 -9 -9h-25q-13 0 -17 8h1l-64 99l-5 5l-4 -5l-64 -99h1q-4 -8 -17 -8h-25q-13 0 -9 9l68 120q10 19 26 19z" />
    <glyph glyph-name="idieresis" unicode="&#xef;" horiz-adv-x="172" 
d="M116 546v-536q0 -10 -10 -10h-40q-10 0 -10 10v536q0 10 10 10h40q10 0 10 -10zM56 733v-61q0 -10 -10 -10h-36q-11 0 -11 10v61q0 10 11 10h36q10 0 10 -10zM173 733v-61q0 -10 -11 -10h-36q-10 0 -10 10v61q0 10 10 10h36q11 0 11 -10z" />
    <glyph glyph-name="eth" unicode="&#xf0;" horiz-adv-x="417" 
d="M366 439v-338q0 -41 -21 -71t-58 -30h-157q-39 0 -60 30t-21 71v353q0 43 24 72.5t58 29.5h175l-2 8q-3 7 -5 10l-36 83l-55 -39q-4 -3 -10.5 -1t-6.5 11v28q0 12 17 25q6 4 17.5 12.5t17.5 12.5h-2l-34 76q-2 5 1 9.5t9 4.5h32q7 0 11 -7q21 -43 26 -54l77 51
q4 3 9.5 0.5t5.5 -10.5v-27q0 -15 -7 -19l-66 -43h2l30 -58q20 -34 24.5 -69.5t4.5 -120.5zM307 100v397h-167q-14 0 -23.5 -12t-9.5 -32v-353q0 -17 9 -30t23 -13h137q14 0 22.5 12.5t8.5 30.5z" />
    <glyph glyph-name="ntilde" unicode="&#xf1;" horiz-adv-x="414" 
d="M126 630h-8q-12 0 -12 10v29q0 25 15 41.5t35 16.5h95q14 0 14 22q0 9 6.5 15.5t15.5 6.5h9q12 0 12 -10v-29q0 -25 -15 -41.5t-35 -16.5h-96q-5 0 -9 -6.5t-4 -15.5t-7 -15.5t-16 -6.5zM366 455v-447q0 -8 -12 -8h-34q-12 0 -12 8v442q0 19 -8.5 33t-24.5 14h-136
q-15 0 -23 -14t-8 -33v-442q0 -8 -12 -8h-36q-12 0 -12 8v447q0 39 23 70t61 31h150q38 0 61 -30.5t23 -70.5z" />
    <glyph glyph-name="ograve" unicode="&#xf2;" horiz-adv-x="416" 
d="M186 634l-67 127q-2 10 10 10h33q11 0 18 -9l61 -131q4 -9 -9 -9h-26q-13 0 -20 12zM368 455v-356q0 -40 -21 -69.5t-58 -29.5h-159q-39 0 -60.5 29.5t-21.5 69.5v357q0 42 24.5 71t58.5 29h153q31 0 57.5 -31.5t26.5 -69.5zM310 103v348q0 19 -8.5 32.5t-23.5 13.5h-138
q-14 0 -23.5 -13t-9.5 -34v-347q0 -19 9 -32.5t23 -13.5h139q15 0 23.5 13.5t8.5 32.5z" />
    <glyph glyph-name="oacute" unicode="&#xf3;" horiz-adv-x="416" 
d="M282 761l-66 -127q-7 -12 -20 -12h-26q-13 0 -8 9h-1l61 131q4 9 17 9h34q5 0 8 -3t1 -7zM368 455v-356q0 -40 -21 -69.5t-58 -29.5h-159q-39 0 -60.5 29.5t-21.5 69.5v357q0 42 24.5 71t58.5 29h153q31 0 57.5 -31.5t26.5 -69.5zM310 103v348q0 19 -8.5 32.5t-23.5 13.5
h-138q-14 0 -23.5 -13t-9.5 -34v-347q0 -19 9 -32.5t23 -13.5h139q15 0 23.5 13.5t8.5 32.5z" />
    <glyph glyph-name="ocircumflex" unicode="&#xf4;" horiz-adv-x="416" 
d="M368 455v-356q0 -40 -21 -69.5t-58 -29.5h-159q-39 0 -60.5 29.5t-21.5 69.5v357q0 42 24.5 71t58.5 29h153q31 0 57.5 -31.5t26.5 -69.5zM310 103v348q0 19 -8.5 32.5t-23.5 13.5h-138q-14 0 -23.5 -13t-9.5 -34v-347q0 -19 9 -32.5t23 -13.5h139q15 0 23.5 13.5
t8.5 32.5zM184 771h48q17 0 26 -19l68 -120h-1q2 -4 -0.5 -6.5t-6.5 -2.5h-25q-11 0 -17 8l-64 99q-3 5 -4 5l-4 -5l-64 -99q-6 -8 -17 -8h-25q-4 0 -6.5 2.5t-0.5 6.5h-1l68 120q9 19 26 19z" />
    <glyph glyph-name="otilde" unicode="&#xf5;" horiz-adv-x="416" 
d="M127 630h-9q-12 0 -12 10v29q0 25 15.5 41.5t35.5 16.5h95q14 0 14 22q0 9 6.5 15.5t15.5 6.5h9q12 0 12 -10v-29q0 -25 -15.5 -41.5t-35.5 -16.5h-95q-13 0 -13 -22q0 -9 -7 -15.5t-16 -6.5zM368 455v-356q0 -40 -21 -69.5t-58 -29.5h-159q-39 0 -60.5 29.5t-21.5 69.5
v357q0 42 24.5 71t58.5 29h153q31 0 57.5 -31.5t26.5 -69.5zM310 103v348q0 19 -8.5 32.5t-23.5 13.5h-138q-14 0 -23.5 -13t-9.5 -34v-347q0 -19 9 -32.5t23 -13.5h139q15 0 23.5 13.5t8.5 32.5z" />
    <glyph glyph-name="odieresis" unicode="&#xf6;" horiz-adv-x="416" 
d="M178 733v-61q0 -10 -11 -10h-36q-10 0 -10 10v61q0 10 10 10h36q11 0 11 -10zM294 733v-61q0 -10 -10 -10h-36q-10 0 -10 10v61q0 10 10 10h36q10 0 10 -10zM368 455v-356q0 -40 -21 -69.5t-58 -29.5h-159q-39 0 -60.5 29.5t-21.5 69.5v357q0 42 24.5 71t58.5 29h153
q31 0 57.5 -31.5t26.5 -69.5zM310 103v348q0 19 -8.5 32.5t-23.5 13.5h-138q-14 0 -23.5 -13t-9.5 -34v-347q0 -19 9 -32.5t23 -13.5h139q15 0 23.5 13.5t8.5 32.5z" />
    <glyph glyph-name="divide" unicode="&#xf7;" horiz-adv-x="390" 
d="M342 303h-294q-12 0 -12 10v43q0 10 12 10h294q12 0 12 -10v-43q0 -10 -12 -10zM226 550v-53q0 -10 -10 -10h-43q-11 0 -11 10v53q0 10 11 10h43q10 0 10 -10zM226 171v-53q0 -10 -10 -10h-43q-11 0 -11 10v53q0 10 11 10h43q10 0 10 -10z" />
    <glyph glyph-name="oslash" unicode="&#xf8;" horiz-adv-x="435" 
d="M325 399l-189 -321h1q11 -21 24 -21h132q15 0 23.5 13.5t8.5 32.5v296zM123 450v-292l193 320q-13 19 -23 19h-137q-14 0 -23.5 -13t-9.5 -34zM96 19l-21 -36q-7 -10 -16 -10h-34q-4 0 -7 3t-1 7l51 85h-1q-3 10 -3 31v357q0 42 24.5 71t58.5 29h153q22 0 46 -22
q3 4 10.5 15t9.5 16h-1q5 10 15 10h36q3 0 5.5 -1t3.5 -2t1 -2l-49 -81h1q6 -22 6 -34v-356q0 -40 -21 -69.5t-59 -29.5h-158q-31 0 -50 19z" />
    <glyph glyph-name="ugrave" unicode="&#xf9;" horiz-adv-x="414" 
d="M194 634l-66 127q-2 4 1 7t9 3h33q10 0 21 -16l58 -124q4 -9 -9 -9h-27q-13 0 -20 12zM366 97v449q0 10 -10 10h-38q-11 0 -11 -10v-438q0 -20 -8.5 -35.5t-24.5 -15.5h-135q-15 0 -24 15.5t-9 35.5v438q0 10 -10 10h-38q-10 0 -10 -10v-449q0 -38 23 -67.5t61 -29.5h150
q38 0 61 29t23 68z" />
    <glyph glyph-name="uacute" unicode="&#xfa;" horiz-adv-x="414" 
d="M282 761l-66 -127q-7 -12 -20 -12h-26q-13 0 -8 9h-1l61 131q4 9 17 9h34q5 0 8 -3t1 -7zM366 546v-449q0 -39 -23 -68t-61 -29h-150q-38 0 -61 29.5t-23 67.5v449q0 10 10 10h38q10 0 10 -10v-438q0 -20 9 -35.5t24 -15.5h135q16 0 24.5 15.5t8.5 35.5v438q0 10 11 10
h38q10 0 10 -10z" />
    <glyph glyph-name="ucircumflex" unicode="&#xfb;" horiz-adv-x="414" 
d="M183 771h48q17 0 27 -19l68 -120q4 -9 -9 -9h-25q-11 0 -17 8l-64 99q-3 5 -4 5l-4 -5l-64 -99h1q-4 -8 -18 -8h-24q-13 0 -8 9h-1l68 120q9 19 26 19zM366 546v-449q0 -39 -23 -68t-61 -29h-150q-38 0 -61 29.5t-23 67.5v449q0 10 10 10h38q10 0 10 -10v-438
q0 -20 9 -35.5t24 -15.5h135q16 0 24.5 15.5t8.5 35.5v438q0 10 11 10h38q10 0 10 -10z" />
    <glyph glyph-name="udieresis" unicode="&#xfc;" horiz-adv-x="414" 
d="M177 733v-61q0 -10 -11 -10h-36q-10 0 -10 10v61q0 10 10 10h36q11 0 11 -10zM294 733v-61q0 -10 -11 -10h-36q-10 0 -10 10v61q0 10 10 10h36q11 0 11 -10zM366 546v-449q0 -39 -23 -68t-61 -29h-150q-38 0 -61 29.5t-23 67.5v449q0 10 10 10h38q10 0 10 -10v-438
q0 -20 9 -35.5t24 -15.5h135q16 0 24.5 15.5t8.5 35.5v438q0 10 11 10h38q10 0 10 -10z" />
    <glyph glyph-name="yacute" unicode="&#xfd;" horiz-adv-x="423" 
d="M157 -183l47 176q-36 2 -45 35l-136 515q-2 6 1.5 9.5t12.5 3.5h22q22 0 28 -23l121 -460q0 -16 7 -16q1 0 6 12q1 2 1 4l118 459q9 24 28 24h22q9 0 12.5 -3.5t1.5 -9.5l-136 -515l-50 -200q-6 -24 -22 -24h-24q-18 0 -15 13zM295 761l-67 -127q-6 -12 -20 -12h-26
q-13 0 -9 9l61 131q7 9 18 9h33q12 0 10 -10z" />
    <glyph glyph-name="thorn" unicode="&#xfe;" horiz-adv-x="407" 
d="M49 -183v915q0 11 12 11h33q12 0 12 -11v-176h180q38 0 60 -29.5t22 -67.5v-360q0 -41 -24.5 -70t-58.5 -29h-179v-183q0 -11 -12 -11h-33q-12 0 -12 11zM107 497v-439h171q14 0 23 11t9 32v354q0 18 -8.5 30t-23.5 12h-171z" />
    <glyph glyph-name="ydieresis" unicode="&#xff;" horiz-adv-x="423" 
d="M158 -183l46 176q-36 2 -45 35l-136 515q-2 6 1.5 9.5t12.5 3.5h22q22 0 28 -23l121 -460q0 -16 7 -16q1 0 6 12q1 2 1 4l118 459q9 24 28 24h22q9 0 12.5 -3.5t1.5 -9.5l-136 -515l-49 -200q-6 -24 -23 -24h-24q-8 0 -11.5 3t-2.5 10zM184 733v-61q0 -10 -11 -10h-36
q-10 0 -10 10v61q0 10 10 10h36q11 0 11 -10zM300 733v-61q0 -10 -10 -10h-36q-10 0 -10 10v61q0 10 10 10h36q10 0 10 -10z" />
    <glyph glyph-name="dotlessi" unicode="&#x131;" horiz-adv-x="169" 
d="M113 546v-536q0 -10 -11 -10h-36q-10 0 -10 10v536q0 10 10 10h36q11 0 11 -10z" />
    <glyph glyph-name="Lslash" unicode="&#x141;" horiz-adv-x="434" 
d="M248 468l-93 -122h1v-265q0 -24 16 -24h226q14 0 14 -11v-35q0 -11 -14 -11h-235q-31 0 -48 21.5t-17 56.5v193l-58 -75q-5 -5 -12 -5t-7 6v41q0 14 5 21l73 95h-1v376q0 13 10 13h38q10 0 10 -13v-300l78 102q5 5 12 5t7 -6v-42q0 -13 -5 -21z" />
    <glyph glyph-name="lslash" unicode="&#x142;" horiz-adv-x="259" 
d="M156 732v-330l59 78q3 4 7.5 6t8 0t3.5 -7v-42q0 -15 -6 -20h1l-74 -97h1v-238q0 -24 16 -24h55q4 0 7.5 -4t3.5 -8v-33q0 -13 -11 -13h-63q-31 0 -48.5 21.5t-17.5 56.5v167l-59 -76q-4 -4 -8 -5.5t-7 0t-3 6.5v41q0 15 2 19l76 96h-1v406q0 11 11 11h35q12 0 12 -11z
" />
    <glyph glyph-name="OE" unicode="&#x152;" horiz-adv-x="749" 
d="M382 129v477q0 30 -17.5 54t-43.5 24h-150q-27 0 -44 -24t-17 -54v-471q0 -30 17 -54t44 -24h150q25 0 43 22t18 50zM449 0q-33 0 -52 28q-26 -28 -69 -28h-164q-51 0 -81.5 41t-30.5 95v471q0 54 30.5 95t81.5 41h164q39 0 69 -28q21 28 52 28h269q11 0 11 -10v-39
q0 -10 -11 -10h-261q-8 0 -12.5 -7.5t-4.5 -16.5v-246h221q10 0 10 -10v-38q0 -10 -10 -10h-221v-275q0 -24 17 -24h261q11 0 11 -10v-37q0 -10 -11 -10h-269z" />
    <glyph glyph-name="oe" unicode="&#x153;" horiz-adv-x="654" 
d="M401 57h175q10 0 10 -10v-37q0 -10 -10 -10h-197q-29 0 -45 17q-19 -17 -45 -17h-159q-39 0 -60.5 29.5t-21.5 69.5v357q0 42 24.5 71t58.5 29h153q32 0 46 -18q14 18 47 18h167q28 0 49 -19t21 -55v-111q0 -72 -40 -88l-183 -61h1q-23 -12 -24 -38v-82q0 -45 33 -45z
M310 103v351q-2 18 -10.5 30.5t-21.5 12.5h-138q-14 0 -23.5 -13t-9.5 -34v-347q0 -19 9 -32.5t23 -13.5h139q15 0 23.5 13.5t8.5 32.5zM391 285l150 48q17 8 17 44v79q0 41 -31 41h-129q-30 0 -30 -43v-182q6 6 23 13z" />
    <glyph glyph-name="Scaron" unicode="&#x160;" horiz-adv-x="422" 
d="M293 0h-240q-4 0 -9 4t-5 9v33q0 13 14 13h234q17 0 30 13t13 38v106q0 50 -26 67l-211 110q-60 32 -60 129v112q0 52 28 80.5t66 28.5h233q4 0 8.5 -4.5t4.5 -8.5v-33q0 -5 -4.5 -9t-8.5 -4h-230q-40 0 -40 -53v-110q0 -56 27 -70l217 -113q53 -29 53 -124v-107
q0 -52 -28 -79.5t-66 -27.5zM186 810q-16 0 -26 19l-68 120q-4 9 9 9h25q13 0 17 -8h-1l64 -99q3 -5 4 -5l5 5l64 99h-1q4 8 17 8h25q13 0 9 -9l-68 -120q-10 -19 -27 -19h-48z" />
    <glyph glyph-name="scaron" unicode="&#x161;" horiz-adv-x="393" 
d="M308 497h-174q-27 0 -27 -36v-69q0 -31 30 -54l132 -79q44 -28 56.5 -50.5t12.5 -51.5v-74q0 -43 -21.5 -63t-47.5 -20h-206q-10 0 -10 10v37q0 10 10 10h183q36 0 36 48v37q0 36 -28 55l-134 82q-70 43 -70 102v89q0 43 20.5 64.5t54.5 21.5h183q10 0 10 -10v-39
q0 -10 -10 -10zM172 623q-17 0 -26 19l-68 120h1q-2 4 0.5 6.5t6.5 2.5h25q11 0 17 -8l64 -99q3 -5 4 -5l4 5l64 99q6 8 17 8h25q4 0 6.5 -2.5t0.5 -6.5h1l-68 -120q-9 -19 -26 -19h-48z" />
    <glyph glyph-name="Ydieresis" unicode="&#x178;" horiz-adv-x="470" 
d="M255 0h-34q-12 0 -12 10v259l-180 458q-3 7 1.5 11.5t9.5 4.5h27q17 0 29 -29l142 -371l143 371q12 29 28 29h28q5 0 9.5 -4.5t1.5 -11.5l-181 -458v-259q0 -10 -12 -10zM208 920v-61q0 -10 -11 -10h-36q-10 0 -10 10v61q0 10 10 10h36q11 0 11 -10zM325 920v-61
q0 -10 -11 -10h-36q-10 0 -10 10v61q0 10 10 10h36q11 0 11 -10z" />
    <glyph glyph-name="Zcaron" unicode="&#x17d;" horiz-adv-x="470" 
d="M31 68l352 623l-57 -7h-265q-5 0 -10 4t-5 9v33q0 5 5 9t10 4h371q12 0 12 -13v-28q0 -14 -7 -23q-1 -1 -3 -5.5t-3 -5.5h1q-69 -142 -345 -617l59 7h269q5 0 10 -4t5 -9v-32q0 -5 -5 -9t-10 -4h-378q-12 0 -12 13v31zM211 810q-17 0 -26 19l-68 120h1q-5 9 8 9h24
q14 0 18 -8h-1l64 -99q3 -5 4 -5l4 5l64 99q6 8 17 8h25q13 0 9 -9l-68 -120q-10 -19 -27 -19h-48z" />
    <glyph glyph-name="zcaron" unicode="&#x17e;" horiz-adv-x="369" 
d="M112 95l-30 -40q24 0 35 1q6 0 18.5 0.5t18.5 0.5h168q10 0 10 -12v-32q0 -13 -10 -13h-289q-12 0 -12 13v31q0 10 7 24l113 196q76 134 114 196l26 38h-31q-6 0 -17.5 -0.5t-17.5 -0.5h-169q-11 0 -11 13v33q0 13 11 13h288q12 0 12 -13v-31q0 -9 -7 -23zM160 623
q-17 0 -26 19l-68 120h1q-2 4 0.5 6.5t6.5 2.5h25q11 0 17 -8l64 -99q3 -5 4 -5l4 5l64 99q6 8 17 8h25q4 0 6.5 -2.5t0.5 -6.5h1l-68 -120q-9 -19 -26 -19h-48z" />
    <glyph glyph-name="florin" unicode="&#x192;" horiz-adv-x="368" 
d="M167 463h-60q-5 0 -9 3t-3 7l3 33q2 10 12 10h62l9 124q4 40 30.5 71.5t62.5 31.5h50q10 0 10 -10l-2 -38q0 -10 -13 -10h-41q-15 0 -26 -14t-12 -31l-9 -124h67q11 0 11 -10l-5 -33q0 -10 -12 -10h-67l-43 -464q-4 -41 -29 -72t-62 -31h-42q-12 0 -10 10q1 7 3 20t2 19
q0 10 12 10h32q15 0 25.5 13.5t12.5 32.5z" />
    <glyph glyph-name="circumflex" unicode="&#x2c6;" horiz-adv-x="337" 
d="M145 771h48q17 0 26 -19l68 -120h-1q2 -4 -0.5 -6.5t-6.5 -2.5h-25q-11 0 -17 8l-64 99q-3 5 -4 5l-4 -5l-64 -99q-6 -8 -17 -8h-25q-4 0 -6.5 2.5t-0.5 6.5h-1l68 120q9 19 26 19z" />
    <glyph glyph-name="caron" unicode="&#x2c7;" horiz-adv-x="337" 
d="M145 623q-17 0 -26 19l-68 120h1q-2 4 0.5 6.5t6.5 2.5h25q11 0 17 -8l64 -99q3 -5 4 -5l4 5l64 99q6 8 17 8h25q4 0 6.5 -2.5t0.5 -6.5h1l-68 -120q-9 -19 -26 -19h-48z" />
    <glyph glyph-name="breve" unicode="&#x2d8;" horiz-adv-x="298" 
d="M48 728v7q3 7 9 7h21q10 0 10 -10q11 -71 61 -71q52 0 61 74q3 7 9 7h22q6 0 7.5 -1.5t1.5 -5.5v-8q0 -10 -4 -25.5t-14 -36.5t-32 -35.5t-51 -14.5q-30 0 -51.5 14t-31.5 35t-14 37t-4 27z" />
    <glyph glyph-name="dotaccent" unicode="&#x2d9;" horiz-adv-x="153" 
d="M105 733v-61q0 -10 -11 -10h-36q-10 0 -10 10v61q0 10 10 10h36q11 0 11 -10z" />
    <glyph glyph-name="ring" unicode="&#x2da;" horiz-adv-x="252" 
d="M48 750q0 38 23 65.5t55 27.5t55 -27.5t23 -65.5t-23 -65t-55 -27t-55 27t-23 65zM91 750q0 -20 10 -34t25 -14q14 0 24.5 14t10.5 34t-10.5 34.5t-24.5 14.5q-15 0 -25 -14.5t-10 -34.5z" />
    <glyph glyph-name="ogonek" unicode="&#x2db;" horiz-adv-x="226" 
d="M162 -146q16 0 16 -15v-13q0 -11 -13 -11q-3 0 -10 -0.5t-11 -0.5q-12 -1 -37 -1q-31 0 -45 6t-14 24q0 31 45 114q11 13 20 13h27q13 0 9 -9l-13 -26q-13 -26 -19.5 -40t-10 -25.5t-1 -15t10.5 -3.5z" />
    <glyph glyph-name="tilde" unicode="&#x2dc;" horiz-adv-x="298" 
d="M69 630h-9q-12 0 -12 10v29q0 25 15 41.5t35 16.5h96q5 0 9 6.5t4 15.5t7 15.5t16 6.5h8q12 0 12 -10v-29q0 -25 -15 -41.5t-35 -16.5h-95q-14 0 -14 -22q0 -9 -6.5 -15.5t-15.5 -6.5z" />
    <glyph glyph-name="hungarumlaut" unicode="&#x2dd;" horiz-adv-x="364" 
d="M176 761l-67 -131q-8 -8 -18 -8h-32q-4 0 -6.5 2.5t-0.5 6.5h-1l57 124q11 16 21 16h38q5 0 8 -3t1 -7zM316 761l-67 -131q-8 -8 -18 -8h-32q-4 0 -6.5 2.5t-0.5 6.5h-1l57 124q11 16 21 16h38q5 0 8 -3t1 -7z" />
    <glyph glyph-name="Delta" unicode="&#x394;" horiz-adv-x="483" 
d="M291 710l176 -710h-451q5 16 171 710q3 13 14.5 24.5t25.5 14.5q10 1 27 0q13 -2 23.5 -14t13.5 -25zM394 57l-145 607l-9 35l-9 -35l-145 -607h308z" />
    <glyph glyph-name="Delta" unicode="&#x2206;" horiz-adv-x="483" 
d="M291 710l176 -710h-451q5 16 171 710q3 13 14.5 24.5t25.5 14.5q10 1 27 0q13 -2 23.5 -14t13.5 -25zM394 57l-145 607l-9 35l-9 -35l-145 -607h308z" />
    <glyph glyph-name="Omega" unicode="&#x3a9;" horiz-adv-x="535" 
d="M377 684h-218q-19 0 -29.5 -17.5t-10.5 -42.5v-307q0 -59 22 -82l82 -76q9 -10 11.5 -18.5t2.5 -35.5v-77q0 -12 -7.5 -20t-17.5 -8h-104q-12 0 -12 10v36q0 10 12 10h69q6 0 6 17v44h1l-69 66q-24 23 -36 49.5t-13.5 43t-1.5 46.5v314q0 34 16 61q28 44 74 46h227
q46 -2 74 -46q16 -24 16 -61v-314q0 -30 -1.5 -46.5t-13.5 -43t-35 -49.5l-70 -66h1v-44q0 -17 6 -17h69q12 0 12 -10v-36q0 -10 -12 -10h-104q-10 0 -17.5 8t-7.5 20v77q0 27 2.5 35.5t11.5 18.5l83 76q21 22 21 82v307q0 25 -10.5 42.5t-28.5 17.5z" />
    <glyph glyph-name="Omega" unicode="&#x2126;" horiz-adv-x="535" 
d="M377 684h-218q-19 0 -29.5 -17.5t-10.5 -42.5v-307q0 -59 22 -82l82 -76q9 -10 11.5 -18.5t2.5 -35.5v-77q0 -12 -7.5 -20t-17.5 -8h-104q-12 0 -12 10v36q0 10 12 10h69q6 0 6 17v44h1l-69 66q-24 23 -36 49.5t-13.5 43t-1.5 46.5v314q0 34 16 61q28 44 74 46h227
q46 -2 74 -46q16 -24 16 -61v-314q0 -30 -1.5 -46.5t-13.5 -43t-35 -49.5l-70 -66h1v-44q0 -17 6 -17h69q12 0 12 -10v-36q0 -10 -12 -10h-104q-10 0 -17.5 8t-7.5 20v77q0 27 2.5 35.5t11.5 18.5l83 76q21 22 21 82v307q0 25 -10.5 42.5t-28.5 17.5z" />
    <glyph glyph-name="pi" unicode="&#x3c0;" horiz-adv-x="502" 
d="M98 497h-68q-10 0 -10 10v39q0 10 10 10h416q11 0 11 -10v-39q0 -10 -11 -10h-67v-361q0 -33 17 -58t44 -25h32q10 0 10 -10v-33q0 -10 -10 -10h-38q-52 0 -83 40.5t-31 93.5v363h-164v-489q0 -8 -12 -8h-34q-12 0 -12 8v489z" />
    <glyph glyph-name="endash" unicode="&#x2013;" horiz-adv-x="461" 
d="M413 245h-365q-12 0 -12 10v39q0 10 12 10h365q12 0 12 -10v-39q0 -10 -12 -10z" />
    <glyph glyph-name="emdash" unicode="&#x2014;" horiz-adv-x="594" 
d="M546 245h-498q-12 0 -12 10v39q0 10 12 10h498q12 0 12 -10v-39q0 -10 -12 -10z" />
    <glyph glyph-name="quoteleft" unicode="&#x2018;" horiz-adv-x="153" 
d="M80 567l-59 166q0 10 9 10h35q13 0 19 -12l56 -167q0 -9 -9 -9h-32q-13 0 -19 12z" />
    <glyph glyph-name="quoteright" unicode="&#x2019;" horiz-adv-x="153" 
d="M134 733l-58 -166q-4 -12 -20 -12h-32q-10 0 -8 9l55 167q6 12 19 12h34q10 0 10 -10z" />
    <glyph glyph-name="quotesinglbase" unicode="&#x201a;" horiz-adv-x="155" 
d="M134 130l-55 -160q-6 -12 -19 -12h-30q-9 0 -9 9l52 161q6 12 19 12h33q9 0 9 -10z" />
    <glyph glyph-name="quotedblleft" unicode="&#x201c;" horiz-adv-x="272" 
d="M80 567l-59 166q0 10 9 10h35q13 0 19 -12l56 -167q0 -9 -9 -9h-32q-13 0 -19 12zM191 567l-59 166q0 10 10 10h34q13 0 19 -12l56 -167q0 -9 -9 -9h-32q-15 0 -19 12z" />
    <glyph glyph-name="quotedblright" unicode="&#x201d;" horiz-adv-x="272" 
d="M251 733l-59 -166q-6 -12 -19 -12h-32q-9 0 -9 9l56 167q6 12 19 12h35q9 0 9 -10zM140 733l-59 -166q-5 -12 -19 -12h-32q-9 0 -9 9l56 167q6 12 19 12h34q6 0 9 -3t1 -7z" />
    <glyph glyph-name="quotedblbase" unicode="&#x201e;" horiz-adv-x="269" 
d="M134 130l-55 -160q-6 -12 -19 -12h-30q-9 0 -9 9l52 161q6 12 19 12h33q9 0 9 -10zM248 130l-55 -160q-5 -12 -19 -12h-31q-11 0 -9 9l52 161q5 12 20 12h32q6 0 9 -3t1 -7z" />
    <glyph glyph-name="dagger" unicode="&#x2020;" horiz-adv-x="386" 
d="M162 13v520h-102q-11 0 -11 13v32q0 13 11 13h102v146q0 13 12 13h35q12 0 12 -13v-146h103q12 0 12 -13v-32q0 -13 -12 -13h-103v-520q0 -13 -12 -13h-35q-12 0 -12 13z" />
    <glyph glyph-name="daggerdbl" unicode="&#x2021;" horiz-adv-x="386" 
d="M163 10v180h-103q-12 0 -12 10v36q0 10 12 10h103v290h-103q-12 0 -12 10v37q0 10 12 10h103v147q0 10 12 10h35q12 0 12 -10v-147h104q12 0 12 -10v-37q0 -10 -12 -10h-104v-290h104q12 0 12 -10v-36q0 -10 -12 -10h-104v-180q0 -10 -12 -10h-35q-12 0 -12 10z" />
    <glyph glyph-name="bullet" unicode="&#x2022;" horiz-adv-x="283" 
d="M49 358q0 30 2 45.5t10 34t28 26.5t53 8t53 -8t28 -26.5t10 -34t2 -45.5q0 -31 -1.5 -45.5t-9.5 -33.5t-28.5 -27t-53.5 -8q-27 0 -45.5 6.5t-28 14.5t-14 26.5t-5 30t-0.5 36.5z" />
    <glyph glyph-name="ellipsis" unicode="&#x2026;" 
d="M112 63v-53q0 -10 -10 -10h-44q-10 0 -10 10v53q0 10 10 10h44q10 0 10 -10zM272 63v-53q0 -10 -10 -10h-44q-10 0 -10 10v53q0 10 10 10h44q10 0 10 -10zM432 63v-53q0 -10 -10 -10h-44q-10 0 -10 10v53q0 10 10 10h44q10 0 10 -10z" />
    <glyph glyph-name="perthousand" unicode="&#x2030;" horiz-adv-x="930" 
d="M271 686v-267q0 -24 -13.5 -42t-37.5 -18h-111q-25 0 -38.5 18t-13.5 42v269q0 25 15.5 43.5t37.5 18.5h108q20 0 36.5 -20t16.5 -44zM215 430v248q0 19 -13 19h-76q-12 0 -12 -21v-246q0 -19 11 -19h77q13 0 13 19zM201 10l295 730q4 10 -1 10h-33q-2 0 -8 -10
l-296 -730q0 -10 2 -10h34q5 0 7 10zM606 327v-267q0 -24 -13.5 -42t-37.5 -18h-111q-25 0 -38.5 18t-13.5 42v269q0 25 15.5 43.5t37.5 18.5h108q20 0 36.5 -20t16.5 -44zM550 71v248q0 19 -12 19h-77q-12 0 -12 -21v-246q0 -19 11 -19h78q12 0 12 19zM873 327v-267
q0 -24 -13.5 -42t-37.5 -18h-112q-25 0 -38.5 18t-13.5 42v269q0 25 16 43.5t37 18.5h108q20 0 37 -20t17 -44zM817 71v248q0 19 -13 19h-77q-12 0 -12 -21v-246q0 -19 11 -19h78q13 0 13 19z" />
    <glyph glyph-name="guilsinglleft" unicode="&#x2039;" horiz-adv-x="254" 
d="M143 82l-108 160q-15 22 -15 31q0 11 15 33l108 160q7 10 18 10h40q14 0 2 -17l-116 -175q-7 -11 0 -20l116 -175q12 -17 -2 -17h-40q-11 0 -18 10z" />
    <glyph glyph-name="guilsinglright" unicode="&#x203a;" horiz-adv-x="254" 
d="M231 242l-108 -160q-8 -10 -17 -10h-40q-15 0 -3 17l116 175q8 10 0 20l-116 175q-12 17 3 17h40q9 0 17 -10l108 -160q15 -21 15 -33q0 -11 -15 -31z" />
    <glyph glyph-name="fraction" unicode="&#x2044;" horiz-adv-x="439" 
d="M393 740l-296 -730q-5 -10 -15 -10h-20q-12 0 -9 10l296 730q6 10 15 10h20q11 0 9 -10z" />
    <glyph glyph-name="peseta" unicode="&#x20a7;" horiz-adv-x="1109" 
d="M677 0h-94q-31 0 -56.5 26.5t-25.5 68.5v626q0 10 11 14l36 14h-1q7 3 10.5 -0.5t3.5 -9.5v-183h102q11 0 11 -10v-38q0 -10 -11 -10h-102v-395q0 -46 32 -46h84q10 0 10 -10v-37q0 -10 -10 -10zM117 317v-304q0 -13 -11 -13h-36q-11 0 -11 13v648q0 32 18.5 57t48.5 25
h189q50 0 80.5 -42t30.5 -96v-149q0 -55 -30.5 -97t-80.5 -42h-198zM309 684h-175q-17 0 -17 -20v-288h192q26 0 42.5 23t16.5 52v159q0 29 -16.5 51.5t-42.5 22.5zM1016 497h-174q-27 0 -27 -36v-69q0 -31 30 -54l132 -79q44 -28 56.5 -50.5t12.5 -51.5v-74
q0 -43 -21.5 -63t-47.5 -20h-206q-10 0 -10 10v37q0 10 10 10h183q36 0 36 48v37q0 36 -28 55l-134 82q-70 43 -70 102v89q0 43 20.5 64.5t54.5 21.5h183q10 0 10 -10v-39q0 -10 -10 -10z" />
    <glyph glyph-name="Euro" unicode="&#x20ac;" horiz-adv-x="476" 
d="M111 469v138q0 54 31 95t82 41h225q10 0 10 -10v-39q0 -10 -10 -10h-219q-27 0 -44 -24t-17 -54v-137h224q5 0 7 -0.5t5 -2.5t0 -7l-12 -34q-5 -10 -16 -10h-208v-80h224q5 0 7 -0.5t5 -2.5t0 -7l-12 -34q-5 -10 -16 -10h-208v-146q0 -30 17 -54t44 -24h219q10 0 10 -10
v-37q0 -10 -10 -10h-225q-51 0 -82 41t-31 95v145h-79q-15 0 -12 10l13 34q4 10 15 10h63v80h-79q-15 0 -12 10l13 34q4 10 15 10h63z" />
    <glyph glyph-name="trademark" unicode="&#x2122;" horiz-adv-x="658" 
d="M455 405l77 312q8 33 40 33q19 0 30.5 -12.5t11.5 -29.5v-341q0 -5 -5 -9t-10 -4h-17q-16 0 -16 13v295l-69 -282q-8 -30 -42 -30q-32 0 -41 30q-24 91 -42 172q-24 107 -28 121v-306q0 -5 -4.5 -9t-9.5 -4h-19q-15 0 -15 13v336h-101v-336q0 -5 -4.5 -9t-9.5 -4h-19
q-15 0 -15 13v336h-89q-5 0 -9.5 4.5t-4.5 9.5v20q0 5 4.5 9t9.5 4h273q37 0 48 -34z" />
    <glyph glyph-name="estimated" unicode="&#x212e;" horiz-adv-x="518" 
d="M482 282h-343v-193h-1q54 -63 119 -63q58 0 95.5 34t70.5 96l30 -23q-36 -68 -80.5 -104t-115.5 -36q-97 0 -159 84.5t-62 205.5q0 123 61.5 206.5t162.5 83.5q100 0 161 -84.5t61 -206.5zM378 315v163h1q-22 26 -54.5 44t-64.5 18q-74 0 -122 -62h1v-163h239z" />
    <glyph glyph-name="onethird" unicode="&#x2153;" horiz-adv-x="720" 
d="M496 740l-296 -730q-5 -10 -14 -10h-20q-5 0 -8 3t-2 7l296 730q6 10 15 10h20q5 0 8 -3t1 -7zM180 343v349q0 5 -2 5h-40q-5 0 -9.5 4t-4.5 9v19q0 6 4.5 10t9.5 4h44q21 0 32.5 -14t11.5 -36v-350q0 -13 -14 -13h-18q-14 0 -14 13zM545 0h-124q-15 0 -15 14v17
q0 5 5.5 9.5t9.5 4.5h117q12 0 12 18v111q0 4 -4.5 10t-8.5 8h-97q-4 0 -9.5 4.5t-5.5 9.5v18q0 7 5.5 10.5t9.5 3.5h92q9 0 11 17v94q0 18 -11 18h-111q-6 0 -10.5 4t-4.5 9v19q0 5 5.5 9.5t9.5 4.5h116q25 0 38.5 -18t13.5 -42v-97q0 -22 -13 -36h-1q20 -13 20 -42v-119
q0 -25 -14.5 -42t-35.5 -17z" />
    <glyph glyph-name="twothirds" unicode="&#x2154;" horiz-adv-x="720" 
d="M536 740l-296 -730q-5 -10 -14 -10h-20q-5 0 -8 3t-2 7l296 730q6 10 15 10h20q5 0 8 -3t1 -7zM569 0h-124q-15 0 -15 14v17q0 5 5.5 9.5t9.5 4.5h117q12 0 12 18v111q0 4 -4.5 10t-8.5 8h-97q-4 0 -9.5 4.5t-5.5 9.5v18q0 7 5.5 10.5t9.5 3.5h92q9 0 11 17v94
q0 18 -11 18h-111q-6 0 -10.5 4t-4.5 9v19q0 5 5.5 9.5t9.5 4.5h116q25 0 38.5 -18t13.5 -42v-97q0 -22 -13 -36h-1q20 -13 20 -42v-119q0 -25 -14.5 -42t-35.5 -17zM282 330h-161q-11 0 -19.5 9t-8.5 21v63q0 36 21 56l132 121q8 10 8 34v41q0 22 -13 22h-124q-6 0 -10.5 4
t-4.5 9v19q0 14 15 14h124q24 0 41.5 -17.5t17.5 -50.5v-41q0 -27 -6 -42.5t-25 -33.5l-85 -77l-40 -36q-5 -4 -7 -25v-45h145q5 0 9.5 -4t4.5 -10v-17q0 -6 -4.5 -10t-9.5 -4z" />
    <glyph glyph-name="oneeighth" unicode="&#x215b;" horiz-adv-x="720" 
d="M482 740l-296 -730q-5 -10 -15 -10h-20q-12 0 -9 10l296 730q6 10 15 10h20q11 0 9 -10zM173 343v349q0 5 -2 5h-41q-4 0 -8.5 4.5t-4.5 8.5v19q0 6 4 10t9 4h45q43 0 43 -50v-350q0 -13 -13 -13h-18q-14 0 -14 13zM456 217l-34 30q-14 13 -20.5 27.5t-7.5 24t-1 26.5v24
q0 20 10 37q15 25 45 27h97q29 -2 43 -27q11 -25 11 -37v-24q0 -17 -1 -26.5t-7.5 -24t-20.5 -27.5l-35 -30l19 -17q9 -9 23 -19q27 -26 27 -78v-38q0 -63 -56 -65h-104q-24 0 -40 18.5t-16 46.5v38q0 53 30 81zM496 193l-55 -48q-9 -12 -9 -39v-39q0 -22 15 -22h99
q14 0 14 22v41q0 27 -10 37l-29 25zM447 285l49 -44l49 44q8 9 8 34v25q0 24 -13 24h-88q-13 0 -13 -24v-25q0 -23 8 -34z" />
    <glyph glyph-name="threeeighths" unicode="&#x215c;" horiz-adv-x="720" 
d="M523 740l-296 -730q-5 -10 -14 -10h-20q-12 0 -10 10l296 730q5 10 15 10h20q5 0 8 -3t1 -7zM470 217l-34 30q-14 13 -20.5 27.5t-7.5 24t-1 26.5v24q0 20 10 37q15 25 45 27h97q29 -2 43 -27q11 -25 11 -37v-24q0 -17 -1 -26.5t-7.5 -24t-20.5 -27.5l-35 -30l19 -17
q9 -9 23 -19q27 -26 27 -78v-38q0 -63 -56 -65h-104q-24 0 -40 18.5t-16 46.5v38q0 53 30 81zM510 193l-55 -48q-9 -12 -9 -39v-39q0 -22 15 -22h99q14 0 14 22v41q0 27 -10 37l-29 25zM461 285l49 -44l49 44q8 9 8 34v25q0 24 -13 24h-88q-13 0 -13 -24v-25q0 -23 8 -34z
M234 330h-124q-15 0 -15 14v17q0 5 5.5 9.5t9.5 4.5h117q12 0 12 18v111q0 4 -4.5 10t-8.5 8h-97q-4 0 -9.5 4.5t-5.5 9.5v18q0 7 5.5 10.5t9.5 3.5h92q9 0 11 17v94q0 18 -11 18h-111q-6 0 -10.5 4t-4.5 9v19q0 5 5.5 9.5t9.5 4.5h116q25 0 38.5 -18t13.5 -42v-97
q0 -22 -13 -36h-1q20 -13 20 -42v-119q0 -25 -14.5 -42t-35.5 -17z" />
    <glyph glyph-name="fiveeighths" unicode="&#x215d;" horiz-adv-x="720" 
d="M526 740l-296 -730q-2 -10 -14 -10h-20q-12 0 -10 10l296 730q5 10 16 10h20q4 0 7 -3t1 -7zM472 217l-34 30q-14 13 -20.5 27.5t-7.5 24t-1 26.5v24q0 20 10 37q15 25 45 27h97q29 -2 43 -27q11 -25 11 -37v-24q0 -17 -1 -26.5t-7.5 -24t-20.5 -27.5l-35 -30l19 -17
q9 -9 23 -19q27 -26 27 -78v-38q0 -63 -56 -65h-104q-24 0 -40 18.5t-16 46.5v38q0 53 30 81zM512 193l-55 -48q-9 -12 -9 -39v-39q0 -22 15 -22h99q14 0 14 22v41q0 27 -10 37l-29 25zM463 285l49 -44l49 44q8 9 8 34v25q0 24 -13 24h-88q-13 0 -13 -24v-25q0 -23 8 -34z
M229 330h-111q-4 0 -9 4.5t-5 9.5v17q0 5 5 9.5t9 4.5h103q24 0 24 33v93q0 19 -13 19h-121q-6 0 -11 5t-5 12v175q0 14 8.5 22.5t19.5 8.5h129q5 0 9.5 -4t4.5 -10v-18q0 -13 -14 -13h-113q1 -1 1 -4v-103l-1 -24q2 0 7 -0.5t7 -0.5h85q23 0 37.5 -20.5t14.5 -44.5v-98
q0 -31 -17.5 -52t-43.5 -21z" />
    <glyph glyph-name="seveneighths" unicode="&#x215e;" horiz-adv-x="720" 
d="M483 740l-296 -730q-5 -10 -14 -10h-20q-12 0 -10 10l296 730q5 10 15 10h20q5 0 8 -3t1 -7zM466 217l-34 30q-14 13 -20.5 27.5t-7.5 24t-1 26.5v24q0 20 10 37q15 25 45 27h97q29 -2 43 -27q11 -25 11 -37v-24q0 -17 -1 -26.5t-7.5 -24t-20.5 -27.5l-35 -30l19 -17
q9 -9 23 -19q27 -26 27 -78v-38q0 -63 -56 -65h-104q-24 0 -40 18.5t-16 46.5v38q0 53 30 81zM506 193l-55 -48q-9 -12 -9 -39v-39q0 -22 15 -22h99q14 0 14 22v41q0 27 -10 37l-29 25zM457 285l49 -44l49 44q8 9 8 34v25q0 24 -13 24h-88q-13 0 -13 -24v-25q0 -23 8 -34z
M144 330h-15q-5 0 -9.5 4t-4.5 10q0 1 2 7l53 134l79 195l1 2q2 3 3.5 8.5t2.5 6.5h-142q-5 0 -9 4t-4 9v19q0 14 13 14h180q6 0 10 -4.5t4 -9.5v-18q0 -4 -3 -13l-141 -353q-8 -15 -20 -15z" />
    <glyph glyph-name="partialdiff" unicode="&#x2202;" horiz-adv-x="526" 
d="M363 141l23 204h-148q-44 0 -70.5 -33t-30.5 -83q0 -8 -2 -24.5t-3 -24.5q-5 -51 15.5 -87t56.5 -36h82q68 0 77 84zM333 684h-160q-12 0 -12 10l4 39q0 10 12 10h155q68 0 101.5 -46t30.5 -121v-4q-3 -52 -44 -446q-9 -59 -40.5 -92.5t-86.5 -33.5h-92q-58 0 -94.5 51.5
t-29.5 124.5q0 9 2 30.5t3 31.5q6 64 49.5 115.5t107.5 51.5h150q11 101 12 115q3 31 5 56q3 41 -15.5 74.5t-57.5 33.5z" />
    <glyph glyph-name="product" unicode="&#x220f;" horiz-adv-x="562" 
d="M447 684v-676q0 -8 -12 -8h-33q-12 0 -12 8v676h-216v-676q0 -8 -12 -8h-35q-12 0 -12 8v676h-85q-10 0 -10 10v39q0 10 10 10h502q10 0 10 -10v-39q0 -10 -10 -10h-85z" />
    <glyph glyph-name="summation" unicode="&#x2211;" horiz-adv-x="392" 
d="M182 329q0 10 -5 20l-163 310q-6 12 -6 27v47q0 10 12 10h348q12 0 12 -10v-39q0 -10 -12 -10h-265l-42 3q2 -3 5.5 -8.5t6.5 -10t5 -8.5l159 -292h-1q6 -8 6 -20v-40q0 -12 -6 -20h1l-155 -286l-21 -32l42 3h265q12 0 12 -10v-40q0 -10 -12 -10h-348q-12 0 -12 10v47
q0 15 6 27l163 310q5 10 5 22z" />
    <glyph glyph-name="minus" unicode="&#x2212;" horiz-adv-x="304" 
d="M254 296h-206q-12 0 -12 12v34q0 11 12 11h206q12 0 12 -11v-34q0 -12 -12 -12z" />
    <glyph glyph-name="radical" unicode="&#x221a;" horiz-adv-x="506" 
d="M125 546l114 -456q9 -35 14 -35q3 0 10 26l3 9l168 639q5 14 22 14h25q4 0 9 -3t4 -7l-187 -706q-4 -11 -14 -19.5t-22 -9.5h-6q-6 -1 -11 -1l-17 1q-13 1 -23.5 9.5t-13.5 19.5l-122 470h-54q-12 0 -12 10v39q0 10 12 10h80q17 0 21 -10z" />
    <glyph glyph-name="infinity" unicode="&#x221e;" horiz-adv-x="487" 
d="M234 359l-37 -63q-16 -26 -33 -33t-40 -7h-31q-23 0 -34 12h1q-24 20 -24 56v157q0 37 23 57q14 12 34 12h31q15 0 24.5 -1.5t23.5 -11t25 -28.5l38 -63l41 70q13 21 27.5 31.5t23.5 12t25 1.5h40q20 0 35 -13q22 -22 24 -62v-166q-2 -41 -23 -61q-14 -14 -36 -14h-40
q-16 0 -25.5 1.5t-24 11.5t-26.5 30zM268 402l50 -84q4 -8 15 -14.5t21 -6.5h16q13 0 22.5 12t9.5 29v128q0 17 -9.5 29.5t-22.5 12.5h-15q-24 0 -42 -32zM162 333l44 70l-45 69q-15 28 -39 28h-7q-12 0 -20.5 -12t-8.5 -26v-118q0 -15 8.5 -26.5t20.5 -11.5h7q23 0 40 27z
" />
    <glyph glyph-name="integral" unicode="&#x222b;" horiz-adv-x="317" 
d="M118 -105v739q0 43 25 76t67 33h71q12 0 12 -10v-39q0 -10 -12 -10h-83q-9 0 -15 -9.5t-6 -22.5v-739q0 -43 -25 -76t-66 -33h-50q-12 0 -12 10v39q0 10 12 10h61q9 0 15 9.5t6 22.5z" />
    <glyph glyph-name="approxequal" unicode="&#x2248;" horiz-adv-x="432" 
d="M53 422l-7 1q-10 1 -10 11l3 31q3 25 20 39t37 12l219 -34l28 -4q8 -1 12 5t5 21q2 13 18 13q1 0 3.5 -0.5t3.5 -0.5q12 -2 10 -12l-3 -30q-2 -26 -19.5 -39.5t-36.5 -11.5h1l-28 4l-222 34q-6 2 -10 -4t-5 -22q-3 -16 -19 -13zM53 251l-7 1q-10 1 -10 11l3 31
q3 25 20 39t37 12l219 -34l28 -4q8 -1 12 5t5 21q2 13 18 13q1 0 3.5 -0.5t3.5 -0.5q12 -2 10 -12l-3 -30q-2 -26 -19.5 -39.5t-36.5 -11.5h1l-28 4l-222 34q-6 2 -10 -4t-5 -22q-3 -16 -19 -13z" />
    <glyph glyph-name="notequal" unicode="&#x2260;" horiz-adv-x="450" 
d="M162 221h-114q-12 0 -12 10v43q0 10 12 10h132l45 156h-177q-12 0 -12 10v42q0 10 12 10h195l67 231q5 10 16 10h30q11 0 9 -10l-67 -231h104q12 0 12 -10v-42q0 -10 -12 -10h-122l-45 -156h167q12 0 12 -10v-43q0 -10 -12 -10h-184l-61 -211q-5 -10 -15 -10h-31
q-9 0 -9 10z" />
    <glyph glyph-name="lessequal" unicode="&#x2264;" horiz-adv-x="357" 
d="M63 410l161 203q7 10 18 10h44q14 0 2 -17l-171 -218q-9 -10 0 -20l171 -218q12 -17 -2 -17h-44q-11 0 -18 10l-161 203q-13 17 -13 33q0 13 13 31zM325 0h-293q-12 0 -12 10v37q0 10 12 10h293q12 0 12 -10v-37q0 -10 -12 -10z" />
    <glyph glyph-name="greaterequal" unicode="&#x2265;" horiz-adv-x="357" 
d="M133 613l160 -203q13 -18 13 -31q0 -16 -13 -33l-160 -203q-7 -10 -18 -10h-44q-14 0 -2 17l171 218q9 10 0 20l-171 218q-12 17 2 17h44q11 0 18 -10zM325 0h-293q-12 0 -12 10v37q0 10 12 10h293q12 0 12 -10v-37q0 -10 -12 -10z" />
    <glyph glyph-name="lozenge" unicode="&#x25ca;" 
d="M224 132l-198 248q-4 6 -4 15.5t4 15.5l198 248q6 7 15.5 6.5t16.5 -6.5l198 -248q5 -6 5 -15.5t-5 -15.5l-198 -248q-6 -7 -15.5 -6.5t-16.5 6.5zM94 384l139 -174q6 -9 13 0l139 174q9 11 0 22l-139 174q-7 9 -13 0l-139 -174q-9 -11 0 -22z" />
    <glyph glyph-name="s_t" unicode="&#xfb06;" horiz-adv-x="663" 
d="M441 95v402h-307q-27 0 -27 -36v-69q0 -31 30 -54l132 -79q44 -28 56.5 -50.5t12.5 -51.5v-74q0 -43 -21.5 -63t-47.5 -20h-206q-10 0 -10 10v37q0 10 10 10h183q36 0 36 48v37q0 36 -28 55l-134 82q-70 43 -70 102v89q0 43 20.5 64.5t54.5 21.5h316v165q0 10 11 14
l36 14h-1q7 3 10.5 -0.5t3.5 -9.5v-183h102q11 0 11 -10v-34q0 -10 -11 -10h-102v-399q0 -46 32 -46h84q10 0 10 -10v-37q0 -10 -10 -10h-94q-31 0 -56.5 26.5t-25.5 68.5z" />
    <glyph glyph-name="_0000" horiz-adv-x="0" 
 />
    <glyph glyph-name="zero.taboldstyle" 
d="M270 0h-45q-50 0 -81.5 41.5t-31.5 96.5v280q0 54 31.5 96t81.5 42h45q51 0 81.5 -41.5t30.5 -96.5v-280q0 -55 -30.5 -96.5t-81.5 -41.5zM232 57h30q27 0 45 24t18 55v281q0 31 -18 55.5t-45 24.5h-30q-27 0 -44.5 -24.5t-17.5 -55.5v-281q0 -31 17.5 -55t44.5 -24z" />
    <glyph glyph-name="one.taboldstyle" 
d="M276 57h101q10 0 10 -10v-37q0 -10 -10 -10h-260q-11 0 -11 10v37q0 10 11 10h101v415q0 25 -17 25h-74q-10 0 -10 10v39q0 10 10 10h82q32 0 49.5 -21t17.5 -56v-422z" />
    <glyph glyph-name="two.taboldstyle" 
d="M366 0h-240q-14 0 -23.5 10.5t-9.5 25.5v50q0 56 29 82l189 200q19 20 19 68v12q0 21 -10.5 35t-23.5 14h-180q-10 0 -10 9v41q0 9 10 9h180q35 0 60.5 -25t25.5 -72v-30q0 -38 -10 -61.5t-37 -53.5l-172 -183q-17 -17 -17 -50v-24h220q10 0 10 -9v-39q0 -9 -10 -9z" />
    <glyph glyph-name="six.taboldstyle" 
d="M394 684h-222q-32 0 -32 -46v-225h207q40 0 61.5 -28.5t21.5 -67.5v-221q0 -47 -23.5 -71.5t-60.5 -24.5h-180q-35 0 -60 25t-25 72v543q0 47 23 75t65 28h225q10 0 10 -10v-39q0 -10 -10 -10zM172 57h166q32 0 32 43v210q0 21 -9.5 35.5t-24.5 14.5h-196v-260
q0 -43 32 -43z" />
    <glyph glyph-name="eight.taboldstyle" 
d="M193 392l-75 65q-23 22 -34.5 47.5t-13 42t-1.5 45.5v45q0 37 14 63q24 41 71 43h183q44 -2 69 -43q17 -34 17 -63v-45q0 -29 -1.5 -45.5t-13 -42t-34.5 -47.5l-77 -65l85 -72q24 -23 36.5 -50.5t14 -44t1.5 -45.5v-71q0 -53 -25 -80t-67 -29h-193q-39 0 -65 30.5
t-26 78.5v71q0 30 1.5 46.5t13.5 43.5t35 50zM246 363l-111 -95q-22 -24 -22 -83v-73q0 -55 41 -55h184q17 0 29 15t12 40v77q0 56 -24 79zM147 507l99 -90l98 90q22 19 22 74v48q0 25 -10.5 40.5t-27.5 15.5h-165q-16 0 -26.5 -15.5t-10.5 -40.5v-43q0 -56 21 -79z" />
    <glyph glyph-name="three.taboldstyle" 
d="M313 -196h-238q-10 0 -10 10v39q0 10 10 10h226q14 0 25 14.5t11 35.5v195q0 20 -9.5 34.5t-25.5 15.5h-188q-11 0 -11 10v43q0 10 11 10h174q13 0 23.5 14t11.5 34v178q0 20 -9.5 35t-25.5 15h-213q-10 0 -10 10v39q0 10 10 10h225q40 0 61 -28.5t21 -67.5v-190
q0 -20 -13.5 -44t-42.5 -27q34 -5 51.5 -29.5t17.5 -47.5v-222q0 -40 -24 -68t-58 -28z" />
    <glyph glyph-name="four.taboldstyle" 
d="M309 502l-200 -343h1q-11 -23 -11 -63v-65h210v471zM70 204l201 342h-1q4 10 21 10h64q12 0 12 -10v-515h55q11 0 11 -10v-38q0 -10 -11 -10h-55v-161q0 -8 -12 -8h-34q-12 0 -12 8v161h-228q-16 0 -27 12t-11 29v91q0 29 4.5 48t22.5 51z" />
    <glyph glyph-name="five.taboldstyle" 
d="M320 -196h-212q-10 0 -10 10v39q0 10 10 10h198q24 0 41 21t17 57v169q0 23 -10 38.5t-28 15.5h-228q-16 0 -16 14v338q0 18 12 29t28 11h244q11 0 11 -10v-39q0 -10 -11 -10h-216q-12 0 -12 -22v-255h199q38 0 61.5 -33.5t23.5 -73.5v-188q0 -51 -30 -86t-72 -35z" />
    <glyph glyph-name="seven.taboldstyle" 
d="M135 -196h-28q-13 0 -13 10q0 1 2 7l3 7l134 328l121 295l24 48q-10 0 -30 -1t-30 -1h-230q-10 0 -10 10v39q0 10 10 10h339q11 0 11 -9v-33q0 -8 -4 -20l-275 -670q-9 -20 -24 -20z" />
    <glyph glyph-name="nine.taboldstyle" 
d="M97 -137h221q32 0 32 46v213h-207q-39 0 -60.5 28.5t-21.5 67.5v242q0 47 23.5 71.5t59.5 24.5h181q34 0 59.5 -25t25.5 -72v-563q0 -92 -88 -92h-225q-11 0 -11 10v39q0 10 11 10zM318 497h-166q-32 0 -32 -43v-223q0 -21 9.5 -35.5t24.5 -14.5h196v273q0 43 -32 43z
" />
    <glyph glyph-name="zero.oldstyle" 
d="M270 0h-45q-50 0 -81.5 41.5t-31.5 96.5v280q0 54 31.5 96t81.5 42h45q51 0 81.5 -41.5t30.5 -96.5v-280q0 -55 -30.5 -96.5t-81.5 -41.5zM232 57h30q27 0 45 24t18 55v281q0 31 -18 55.5t-45 24.5h-30q-27 0 -44.5 -24.5t-17.5 -55.5v-281q0 -31 17.5 -55t44.5 -24z" />
    <glyph glyph-name="one.oldstyle" horiz-adv-x="376" 
d="M216 57h101q10 0 10 -10v-37q0 -10 -10 -10h-260q-11 0 -11 10v37q0 10 11 10h101v415q0 25 -17 25h-74q-10 0 -10 10v39q0 10 10 10h82q32 0 49.5 -21t17.5 -56v-422z" />
    <glyph glyph-name="two.oldstyle" 
d="M366 0h-240q-14 0 -23.5 10.5t-9.5 25.5v50q0 56 29 82l189 200q19 20 19 68v12q0 21 -10.5 35t-23.5 14h-180q-10 0 -10 9v41q0 9 10 9h180q35 0 60.5 -25t25.5 -72v-30q0 -38 -10 -61.5t-37 -53.5l-172 -183q-17 -17 -17 -50v-24h220q10 0 10 -9v-39q0 -9 -10 -9z" />
    <glyph glyph-name="three.oldstyle" 
d="M313 -196h-238q-10 0 -10 10v39q0 10 10 10h226q14 0 25 14.5t11 35.5v195q0 20 -9.5 34.5t-25.5 15.5h-188q-11 0 -11 10v43q0 10 11 10h174q13 0 23.5 14t11.5 34v178q0 20 -9.5 35t-25.5 15h-213q-10 0 -10 10v39q0 10 10 10h225q40 0 61 -28.5t21 -67.5v-190
q0 -20 -13.5 -44t-42.5 -27q34 -5 51.5 -29.5t17.5 -47.5v-222q0 -40 -24 -68t-58 -28z" />
    <glyph glyph-name="four.oldstyle" 
d="M309 502l-200 -343h1q-11 -23 -11 -63v-65h210v471zM70 204l201 342h-1q4 10 21 10h64q12 0 12 -10v-515h55q11 0 11 -10v-38q0 -10 -11 -10h-55v-161q0 -8 -12 -8h-34q-12 0 -12 8v161h-228q-16 0 -27 12t-11 29v91q0 29 4.5 48t22.5 51z" />
    <glyph glyph-name="five.oldstyle" 
d="M320 -196h-212q-10 0 -10 10v39q0 10 10 10h198q24 0 41 21t17 57v169q0 23 -10 38.5t-28 15.5h-228q-16 0 -16 14v338q0 18 12 29t28 11h244q11 0 11 -10v-39q0 -10 -11 -10h-216q-12 0 -12 -22v-255h199q38 0 61.5 -33.5t23.5 -73.5v-188q0 -51 -30 -86t-72 -35z" />
    <glyph glyph-name="six.oldstyle" 
d="M394 684h-222q-32 0 -32 -46v-225h207q40 0 61.5 -28.5t21.5 -67.5v-221q0 -47 -23.5 -71.5t-60.5 -24.5h-180q-35 0 -60 25t-25 72v543q0 47 23 75t65 28h225q10 0 10 -10v-39q0 -10 -10 -10zM172 57h166q32 0 32 43v210q0 21 -9.5 35.5t-24.5 14.5h-196v-260
q0 -43 32 -43z" />
    <glyph glyph-name="seven.oldstyle" horiz-adv-x="400" 
d="M77 -196h-28q-13 0 -13 10l4 11q1 2 1 3l136 333l118 290l24 48q-10 0 -30 -1t-30 -1h-229q-11 0 -11 10v39q0 10 11 10h339q11 0 11 -9v-33q0 -7 -5 -20l-274 -670q-9 -20 -24 -20z" />
    <glyph glyph-name="eight.oldstyle" 
d="M193 392l-75 65q-23 22 -34.5 47.5t-13 42t-1.5 45.5v45q0 37 14 63q24 41 71 43h183q44 -2 69 -43q17 -34 17 -63v-45q0 -29 -1.5 -45.5t-13 -42t-34.5 -47.5l-77 -65l85 -72q24 -23 36.5 -50.5t14 -44t1.5 -45.5v-71q0 -53 -25 -80t-67 -29h-193q-39 0 -65 30.5
t-26 78.5v71q0 30 1.5 46.5t13.5 43.5t35 50zM246 363l-111 -95q-22 -24 -22 -83v-73q0 -55 41 -55h184q17 0 29 15t12 40v77q0 56 -24 79zM147 507l99 -90l98 90q22 19 22 74v48q0 25 -10.5 40.5t-27.5 15.5h-165q-16 0 -26.5 -15.5t-10.5 -40.5v-43q0 -56 21 -79z" />
    <glyph glyph-name="nine.oldstyle" 
d="M97 -137h221q32 0 32 46v213h-207q-39 0 -60.5 28.5t-21.5 67.5v242q0 47 23.5 71.5t59.5 24.5h181q34 0 59.5 -25t25.5 -72v-563q0 -92 -88 -92h-225q-11 0 -11 10v39q0 10 11 10zM318 497h-166q-32 0 -32 -43v-223q0 -21 9.5 -35.5t24.5 -14.5h196v273q0 43 -32 43z
" />
    <glyph glyph-name="zero.fitted" 
d="M305 0h-121q-50 0 -80.5 41.5t-30.5 97.5v465q0 55 30.5 97t80.5 42h121q51 0 81 -42t30 -97v-465q0 -56 -30 -97.5t-81 -41.5zM191 57h107q27 0 44 23t17 53v474q0 30 -17 53.5t-44 23.5h-107q-26 0 -43.5 -23.5t-17.5 -53.5v-474q0 -30 17.5 -53t43.5 -23z" />
    <glyph glyph-name="one.fitted" horiz-adv-x="336" 
d="M190 11v651q0 22 -16 22h-76q-5 0 -9 4t-4 8v34q0 13 13 13h84q31 0 48.5 -21.5t17.5 -57.5v-653q0 -11 -11 -11h-35q-12 0 -12 11z" />
    <glyph glyph-name="two.fitted" 
d="M401 0h-301q-15 0 -26 12.5t-11 31.5v116q0 63 32 94l245 226q22 21 22 74v77q0 23 -12 38t-27 15h-232q-5 0 -9 4t-4 8v34q0 5 4.5 9t8.5 4h233q39 0 67.5 -29t28.5 -83v-77q0 -49 -9.5 -75t-42.5 -56l-195 -176l-36 -35q-19 -17 -19 -58v-97h283q4 0 8.5 -3.5t4.5 -8.5
v-32q0 -5 -4 -9t-9 -4z" />
    <glyph glyph-name="three.fitted" 
d="M319 0h-232q-4 0 -8.5 4t-4.5 9v33q0 5 5 8.5t8 3.5h220q14 0 25 13.5t11 33.5v206q0 17 -9.5 31t-24.5 15h-184q-5 0 -9 4t-4 9v36q0 5 4.5 8.5t8.5 3.5h170q13 0 23.5 13t11.5 32v174q0 19 -10 33t-25 14h-208q-3 0 -8 4t-5 8v34q0 5 5 9t8 4h219q40 0 61 -29t21 -69
v-179q0 -55 -40 -70q25 -10 39 -33t14 -43v-222q0 -41 -24 -69.5t-58 -28.5z" />
    <glyph glyph-name="four.fitted" 
d="M310 684l-198 -341h1q-11 -23 -11 -60v-54h208v455zM74 392l198 339h-1q6 12 22 12h63q12 0 12 -13v-501h51q5 0 9.5 -4.5t4.5 -8.5v-33q0 -5 -5 -9t-9 -4h-51v-159q0 -11 -12 -11h-34q-12 0 -12 11v159h-226q-15 0 -26 12.5t-11 31.5v78q0 29 4.5 48.5t22.5 51.5z" />
    <glyph glyph-name="five.fitted" 
d="M318 0h-207q-5 0 -9 4t-4 9v33q0 5 4.5 8.5t8.5 3.5h193q24 0 41 20t17 55v172q0 21 -10.5 35.5t-28.5 14.5h-225q-16 0 -16 17v328q0 20 12 31.5t28 11.5h240q4 0 8 -4t4 -9v-33q0 -5 -4 -8.5t-8 -3.5h-212q-12 0 -12 -19v-192l-1 -58q12 0 36.5 -0.5t36.5 -0.5h124
q38 0 61 -34t23 -75v-183q0 -52 -29 -87.5t-71 -35.5z" />
    <glyph glyph-name="six.fitted" 
d="M388 685h-217q-31 0 -31 -43v-227h205q39 0 60 -29.5t21 -68.5v-219q0 -47 -23 -72.5t-59 -25.5h-179q-34 0 -58.5 25.5t-24.5 73.5v539q0 48 22.5 76.5t63.5 28.5h220q4 0 8.5 -4t4.5 -9v-33q0 -4 -4 -8t-9 -4zM171 58h165q32 0 32 40v212q0 19 -9.5 32.5t-24.5 13.5
h-194v-258q0 -40 31 -40z" />
    <glyph glyph-name="seven.fitted" horiz-adv-x="432" 
d="M100 0h-28q-13 0 -13 13q0 3 2 7l1 1v2t3 5h-1l98 243l146 364l22 51q-5 0 -14 -0.5t-13 -0.5q-10 -1 -31 -1h-226q-11 0 -11 12v34q0 13 11 13h335q4 0 7.5 -4t3.5 -8v-34q0 -7 -5 -20l-263 -655q-10 -22 -24 -22z" />
    <glyph glyph-name="eight.fitted" 
d="M193 392l-75 65q-23 22 -34.5 47.5t-13 42t-1.5 45.5v45q0 37 14 63q24 41 71 43h183q44 -2 69 -43q17 -34 17 -63v-45q0 -29 -1.5 -45.5t-13 -42t-34.5 -47.5l-77 -65l85 -72q24 -23 36.5 -50.5t14 -44t1.5 -45.5v-71q0 -53 -25 -80t-67 -29h-193q-39 0 -65 30.5
t-26 78.5v71q0 30 1.5 46.5t13.5 43.5t35 50zM246 363l-111 -95q-22 -24 -22 -83v-73q0 -55 41 -55h184q17 0 29 15t12 40v77q0 56 -24 79zM147 507l99 -90l98 90q22 19 22 74v48q0 25 -10.5 40.5t-27.5 15.5h-165q-16 0 -26.5 -15.5t-10.5 -40.5v-43q0 -56 21 -79z" />
    <glyph glyph-name="nine.fitted" 
d="M105 57h216q32 0 32 43v227q-12 0 -36.5 -0.5t-36.5 -0.5h-132q-40 0 -61 29.5t-21 68.5v221q0 47 23.5 72.5t59.5 25.5h178q34 0 59 -25.5t25 -73.5v-539q0 -48 -22.5 -76.5t-64.5 -28.5h-219q-4 0 -9 3.5t-5 9.5v32q0 12 14 12zM321 684h-164q-32 0 -32 -40v-213
q0 -19 9 -32.5t24 -13.5h195v259q0 40 -32 40z" />
    <glyph glyph-name="zero.numerator" horiz-adv-x="360" 
d="M210 330h-65q-30 0 -48.5 24.5t-18.5 57.5v249q0 32 19 57t48 25h65q31 0 49 -25t18 -57v-249q0 -33 -18 -57.5t-49 -24.5zM149 375h57q11 0 18 9.5t7 23.5v255q0 13 -7 23.5t-18 10.5h-57q-11 0 -18.5 -10.5t-7.5 -23.5v-255q0 -13 7.5 -23t18.5 -10z" />
    <glyph glyph-name="one.numerator" horiz-adv-x="360" 
d="M183 343v349q0 5 -1 5h-41q-5 0 -9.5 4t-4.5 9v19q0 6 4.5 10t9.5 4h45q20 0 31.5 -14t11.5 -36v-350q0 -13 -14 -13h-17q-15 0 -15 13z" />
    <glyph glyph-name="two.numerator" horiz-adv-x="360" 
d="M263 330h-161q-11 0 -19.5 9t-8.5 21v63q0 36 21 56l132 121q8 10 8 34v41q0 22 -13 22h-124q-6 0 -10.5 4t-4.5 9v19q0 14 15 14h124q24 0 41.5 -17.5t17.5 -50.5v-41q0 -27 -6 -42.5t-25 -33.5l-85 -77l-40 -36q-5 -4 -7 -25v-45h145q5 0 9.5 -4t4.5 -10v-17
q0 -6 -4.5 -10t-9.5 -4z" />
    <glyph glyph-name="three.numerator" horiz-adv-x="360" 
d="M222 330h-124q-15 0 -15 14v17q0 5 5.5 9.5t9.5 4.5h117q12 0 12 18v111q0 4 -4.5 10t-8.5 8h-97q-4 0 -9.5 4.5t-5.5 9.5v18q0 7 5.5 10.5t9.5 3.5h92q9 0 11 17v94q0 18 -11 18h-111q-6 0 -10.5 4t-4.5 9v19q0 5 5.5 9.5t9.5 4.5h116q25 0 38.5 -18t13.5 -42v-97
q0 -22 -13 -36h-1q20 -13 20 -42v-119q0 -25 -14.5 -42t-35.5 -17z" />
    <glyph glyph-name="four.numerator" horiz-adv-x="360" 
d="M208 677l-93 -159h1q-5 -11 -5 -29v-23h97v211zM83 551l106 182h-1q5 10 18 10h34q6 0 10 -4.5t4 -9.5v-263h20q4 0 9.5 -4.5t5.5 -8.5v-18q0 -13 -15 -13h-20v-79q0 -13 -14 -13h-18q-14 0 -14 13v79h-114q-11 0 -19 8.5t-8 21.5v42q0 28 16 57z" />
    <glyph glyph-name="five.numerator" horiz-adv-x="360" 
d="M214 330h-111q-4 0 -9 4.5t-5 9.5v17q0 5 5 9.5t9 4.5h103q24 0 24 33v93q0 19 -13 19h-121q-6 0 -11 5t-5 12v175q0 14 8.5 22.5t19.5 8.5h129q5 0 9.5 -4t4.5 -10v-18q0 -13 -14 -13h-113q1 -1 1 -4v-103l-1 -24q2 0 7 -0.5t7 -0.5h85q23 0 37.5 -20.5t14.5 -44.5v-98
q0 -31 -17.5 -52t-43.5 -21z" />
    <glyph glyph-name="six.numerator" horiz-adv-x="360" 
d="M250 698h-116q-11 0 -11 -17v-115h103q24 0 37.5 -18t13.5 -41v-118q0 -29 -14.5 -44t-36.5 -15h-96q-22 0 -37 15t-15 45v289q0 29 14 46.5t39 17.5h119q4 0 9 -4.5t5 -9.5v-18q0 -5 -5 -9t-9 -4zM134 375h88q9 0 9 14v115q0 17 -11 17h-97v-132q0 -14 11 -14z" />
    <glyph glyph-name="seven.numerator" horiz-adv-x="360" 
d="M117 330h-15q-5 0 -9.5 4t-4.5 10q0 1 2 7l53 134l79 195l2 2q1 3 2.5 8.5t2.5 6.5h-142q-5 0 -9 4t-4 9v19q0 14 13 14h180q6 0 10 -4.5t4 -9.5v-18q0 -4 -3 -13l-141 -353q-7 -15 -20 -15z" />
    <glyph glyph-name="eight.numerator" horiz-adv-x="360" 
d="M138 547l-34 30q-14 13 -20.5 27.5t-7.5 24t-1 26.5v24q0 20 10 37q15 25 45 27h97q29 -2 43 -27q11 -25 11 -37v-24q0 -17 -1 -26.5t-7.5 -24t-20.5 -27.5l-35 -30l19 -17q9 -9 23 -19q27 -26 27 -78v-38q0 -63 -56 -65h-104q-24 0 -40 18.5t-16 46.5v38q0 53 30 81z
M178 523l-55 -48q-9 -12 -9 -39v-39q0 -22 15 -22h99q14 0 14 22v41q0 27 -10 37l-29 25zM129 615l49 -44l49 44q8 9 8 34v25q0 24 -13 24h-88q-13 0 -13 -24v-25q0 -23 8 -34z" />
    <glyph glyph-name="nine.numerator" horiz-adv-x="360" 
d="M106 375h116q9 0 9 15v115h-102q-25 0 -38 18t-13 41v119q0 29 14.5 44.5t37.5 15.5h95q21 0 36.5 -16t15.5 -45v-289q0 -29 -14 -46t-40 -17h-117q-15 0 -15 14v17q0 5 5.5 9.5t9.5 4.5zM222 697h-88q-11 0 -11 -15v-114q0 -18 11 -18h97v132q0 15 -9 15z" />
    <glyph glyph-name="zero.denominator" horiz-adv-x="360" 
d="M210 0h-65q-30 0 -48.5 24.5t-18.5 57.5v249q0 32 19 57t48 25h65q31 0 49 -25t18 -57v-249q0 -33 -18 -57.5t-49 -24.5zM149 45h57q11 0 18 9.5t7 23.5v255q0 13 -7 23.5t-18 10.5h-57q-11 0 -18.5 -10.5t-7.5 -23.5v-255q0 -13 7.5 -23t18.5 -10z" />
    <glyph glyph-name="one.denominator" horiz-adv-x="360" 
d="M183 13v349q0 5 -1 5h-41q-5 0 -9.5 4t-4.5 9v19q0 6 4.5 10t9.5 4h45q20 0 31.5 -14t11.5 -36v-350q0 -13 -14 -13h-17q-15 0 -15 13z" />
    <glyph glyph-name="two.denominator" horiz-adv-x="360" 
d="M263 0h-161q-11 0 -19.5 9t-8.5 21v63q0 36 21 56l132 121q8 9 8 34v41q0 22 -13 22h-124q-6 0 -10.5 4t-4.5 9v19q0 14 15 14h124q24 0 41.5 -17.5t17.5 -50.5v-41q0 -27 -6 -42.5t-25 -33.5l-119 -109q-11 -8 -13 -29v-45h145q5 0 9.5 -4t4.5 -10v-17q0 -6 -4.5 -10
t-9.5 -4z" />
    <glyph glyph-name="three.denominator" horiz-adv-x="360" 
d="M222 0h-124q-15 0 -15 14v17q0 5 5.5 9.5t9.5 4.5h117q12 0 12 18v111q0 4 -4.5 10t-8.5 8h-97q-4 0 -9.5 4.5t-5.5 9.5v18q0 7 5.5 10.5t9.5 3.5h92q9 0 11 17v94q0 18 -11 18h-111q-6 0 -10.5 4t-4.5 9v19q0 5 5.5 9.5t9.5 4.5h116q25 0 38.5 -18t13.5 -42v-97
q0 -22 -13 -36h-1q20 -13 20 -42v-119q0 -25 -14.5 -42t-35.5 -17z" />
    <glyph glyph-name="four.denominator" horiz-adv-x="360" 
d="M208 348l-93 -160h1q-5 -11 -5 -29v-23h97v212zM83 221l106 182h-1q5 10 18 10h34q6 0 10 -4.5t4 -9.5v-263h20q4 0 9.5 -4.5t5.5 -8.5v-18q0 -13 -15 -13h-20v-79q0 -13 -14 -13h-18q-14 0 -14 13v79h-114q-11 0 -19 8.5t-8 21.5v42q0 28 16 57z" />
    <glyph glyph-name="five.denominator" horiz-adv-x="360" 
d="M214 0h-111q-4 0 -9 4.5t-5 9.5v17q0 5 5 9.5t9 4.5h103q24 0 24 33v93q0 19 -13 19h-121q-6 0 -11 5t-5 12v175q0 14 8.5 22.5t19.5 8.5h129q5 0 9.5 -4t4.5 -10v-18q0 -13 -14 -13h-113q1 -1 1 -4v-103l-1 -24q2 0 7 -0.5t7 -0.5h85q23 0 37.5 -20.5t14.5 -44.5v-98
q0 -31 -17.5 -52t-43.5 -21z" />
    <glyph glyph-name="six.denominator" horiz-adv-x="360" 
d="M250 368h-116q-11 0 -11 -17v-115h103q24 0 37.5 -18t13.5 -41v-118q0 -29 -14.5 -44t-36.5 -15h-96q-22 0 -37 15t-15 45v289q0 29 14 46.5t39 17.5h119q4 0 9 -4.5t5 -9.5v-18q0 -5 -5 -9t-9 -4zM134 45h88q9 0 9 14v115q0 17 -11 17h-97v-132q0 -14 11 -14z" />
    <glyph glyph-name="seven.denominator" horiz-adv-x="360" 
d="M117 0h-15q-5 0 -9.5 4t-4.5 10q0 1 2 7l132 329l2 2q1 3 2.5 8.5t2.5 6.5h-142q-5 0 -9 4t-4 9v19q0 14 13 14h180q6 0 10 -4.5t4 -9.5v-18q0 -4 -3 -13l-141 -353q-7 -15 -20 -15z" />
    <glyph glyph-name="eight.denominator" horiz-adv-x="360" 
d="M138 217l-34 30q-14 13 -20.5 27.5t-7.5 24t-1 26.5v24q0 20 10 37q15 25 45 27h97q29 -2 43 -27q11 -25 11 -37v-24q0 -17 -1 -26.5t-7.5 -24t-20.5 -27.5l-35 -30l19 -17q9 -9 23 -19q27 -26 27 -78v-38q0 -63 -56 -65h-104q-24 0 -40 18.5t-16 46.5v38q0 53 30 81z
M178 193l-55 -48q-9 -12 -9 -39v-39q0 -22 15 -22h99q14 0 14 22v41q0 27 -10 37l-29 25zM129 285l49 -44l49 44q8 9 8 34v25q0 24 -13 24h-88q-13 0 -13 -24v-25q0 -23 8 -34z" />
    <glyph glyph-name="nine.denominator" horiz-adv-x="360" 
d="M106 45h116q9 0 9 15v115h-102q-25 0 -38 18t-13 41v119q0 29 14.5 44.5t37.5 15.5h95q21 0 36.5 -16t15.5 -45v-289q0 -29 -14 -46t-40 -17h-117q-15 0 -15 14v17q0 5 5.5 9.5t9.5 4.5zM222 367h-88q-11 0 -11 -15v-114q0 -18 11 -18h97v132q0 15 -9 15z" />
    <glyph glyph-name="a.superior" horiz-adv-x="280" 
d="M178 581h-109q-5 0 -9.5 4t-4.5 9v24q0 5 4 9t10 4h119q20 0 35 -14t15 -39v-244q0 -23 -13 -38t-35 -15h-102q-20 0 -34.5 13t-14.5 39v66q0 49 30 61l110 37h-1q10 5 10 20v47q0 17 -10 17zM183 444l-89 -29q-5 -5 -5 -19v-49q0 -18 11 -18h77q11 0 11 20v97l-2 -1
q-2 -1 -3 -1z" />
    <glyph glyph-name="b.superior" horiz-adv-x="280" 
d="M84 581v-234q0 -18 11 -18h85q12 0 12 19v214q0 19 -11 19h-97zM83 730v-99h102q25 0 41 -20t16 -46v-217q0 -28 -17 -47.5t-41 -19.5h-94q-27 0 -41.5 18t-14.5 47v384q0 14 15 14h20q14 0 14 -14z" />
    <glyph glyph-name="d.superior" horiz-adv-x="280" 
d="M192 348v233h-96q-12 0 -12 -19v-213q0 -20 13 -20h84q11 0 11 19zM193 631v99q0 14 14 14h21q5 0 9.5 -4t4.5 -10v-384q0 -29 -15.5 -47t-40.5 -18h-94q-24 0 -41 19.5t-17 47.5v217q0 26 16 46t41 20h102z" />
    <glyph glyph-name="e.superior" horiz-adv-x="280" 
d="M102 329h106q4 0 8.5 -4t4.5 -8v-23q0 -13 -13 -13h-120q-20 0 -34.5 14t-14.5 39v244q0 24 12.5 38.5t34.5 14.5h102q20 0 35 -13t15 -39v-66q0 -49 -30 -61l-110 -37h1q-10 -6 -10 -20v-45q0 -21 13 -21zM93 467l90 29q6 5 6 20v47q0 19 -11 19h-78q-11 0 -11 -20v-97z
" />
    <glyph glyph-name="i.superior" horiz-adv-x="216" 
d="M130 618v-325q0 -12 -13 -12h-21q-14 0 -14 12v325q0 13 14 13h21q5 0 9 -4t4 -9zM130 731v-37q0 -13 -13 -13h-21q-14 0 -14 13v37q0 13 14 13h21q5 0 9 -4t4 -9z" />
    <glyph glyph-name="l.superior" horiz-adv-x="216" 
d="M142 281h-38q-22 0 -34.5 14.5t-12.5 37.5v399q0 12 13 12h22q14 0 14 -12v-394q0 -9 3 -9h33q6 0 10 -4t4 -9v-23q0 -12 -14 -12z" />
    <glyph glyph-name="m.superior" horiz-adv-x="384" 
d="M310 293v270q0 19 -13 19h-71q-13 0 -13 -19v-270q0 -12 -14 -12h-21q-13 0 -13 12v270q0 19 -14 19h-70q-12 0 -12 -19v-270q0 -12 -15 -12h-20q-15 0 -15 12v270q0 26 16.5 47t42.5 21h76q22 0 34 -17q12 17 34 17h80q24 0 40.5 -21t16.5 -47v-270q0 -12 -14 -12h-21
q-14 0 -14 12z" />
    <glyph glyph-name="o.superior" horiz-adv-x="272" 
d="M238 563v-215q0 -27 -14 -47t-41 -20h-96q-27 0 -42 20.5t-15 46.5v215q0 28 17 48t40 20h93q21 0 39.5 -21.5t18.5 -46.5zM189 350v210q0 22 -12 22h-84q-12 0 -12 -22v-210q0 -21 12 -21h84q12 0 12 21z" />
    <glyph glyph-name="r.superior" horiz-adv-x="200" 
d="M81 293q0 -12 -14 -12h-23q-14 0 -14 12v327q0 25 16 45.5t42 20.5h67q13 0 13 -13v-24q0 -5 -4 -9t-9 -4h-63q-11 0 -11 -21v-322z" />
    <glyph glyph-name="s.superior" horiz-adv-x="280" 
d="M207 582h-105q-10 0 -10 -16v-41q0 -14 15 -27l79 -48q30 -18 38 -33t8 -34v-45q0 -30 -15 -43.5t-34 -13.5h-125q-12 0 -12 13v23q0 4 4 8t8 4h112q14 0 14 23v22q0 16 -12 27l-82 50q-46 28 -46 67v54q0 59 52 59h111q13 0 13 -13v-23q0 -13 -13 -13z" />
    <glyph glyph-name="t.superior" horiz-adv-x="200" 
d="M149 281h-57q-22 0 -40 18t-18 47v378q0 10 12 16l21 7h-1q9 5 14.5 0t5.5 -12v-103h54q6 0 10 -4.5t4 -9.5v-20q0 -13 -14 -13h-54v-234q0 -22 12 -22h51q5 0 9 -4t4 -8v-23q0 -13 -13 -13z" />
    <glyph glyph-name="a.alt" horiz-adv-x="384" 
d="M110 321h153q11 0 16 7.5t6 15.5t1 23v90q0 24 -6.5 31.5t-21.5 7.5h-180q-11 0 -11 10v40q0 10 11 10h196q29 0 49.5 -19.5t20.5 -56.5v-404q0 -34 -17.5 -55t-49.5 -21h-167q-28 0 -49 19t-21 55v172q0 37 21 56t49 19zM286 264h-157q-31 0 -31 -41v-125q0 -41 31 -41
h126q31 0 31 43v164z" />
    <glyph glyph-name="aacute.alt" horiz-adv-x="384" 
d="M110 321h153q11 0 16 7.5t6 15.5t1 23v90q0 24 -6.5 31.5t-21.5 7.5h-180q-11 0 -11 10v40q0 10 11 10h196q29 0 49.5 -19.5t20.5 -56.5v-404q0 -34 -17.5 -55t-49.5 -21h-167q-28 0 -49 19t-21 55v172q0 37 21 56t49 19zM286 264h-157q-31 0 -31 -41v-125q0 -41 31 -41
h126q31 0 31 43v164zM267 761l-66 -127q-7 -12 -20 -12h-27q-4 0 -6.5 2.5t-0.5 6.5h-1l57 124q11 16 21 16h34q5 0 8 -3t1 -7z" />
    <glyph glyph-name="agrave.alt" horiz-adv-x="384" 
d="M185 634l-67 127q-2 10 10 10h34q10 0 17 -9l61 -131q4 -9 -9 -9h-26q-13 0 -20 12zM263 321h-153q-28 0 -49 -19t-21 -56v-172q0 -36 21 -55t49 -19h167q32 0 49.5 21t17.5 55v404q0 37 -20.5 56.5t-49.5 19.5h-196q-11 0 -11 -10v-40q0 -10 11 -10h180q15 0 21.5 -7.5
t6.5 -31.5v-90q0 -15 -1 -23t-6 -15.5t-16 -7.5zM129 264h157v-164q0 -43 -31 -43h-126q-31 0 -31 41v125q0 41 31 41z" />
    <glyph glyph-name="acircumflex.alt" horiz-adv-x="384" 
d="M175 771h48q17 0 27 -19l68 -120q4 -9 -9 -9h-25q-11 0 -17 8l-64 99q-3 5 -4 5l-4 -5l-64 -99h1q-4 -8 -18 -8h-24q-13 0 -8 9h-1l68 120q9 19 26 19zM110 321h153q11 0 16 7.5t6 15.5t1 23v90q0 24 -6.5 31.5t-21.5 7.5h-180q-11 0 -11 10v40q0 10 11 10h196
q29 0 49.5 -19.5t20.5 -56.5v-404q0 -34 -17.5 -55t-49.5 -21h-167q-28 0 -49 19t-21 55v172q0 37 21 56t49 19zM286 264h-157q-31 0 -31 -41v-125q0 -41 31 -41h126q31 0 31 43v164z" />
    <glyph glyph-name="adieresis.alt" horiz-adv-x="384" 
d="M157 733v-61q0 -10 -11 -10h-36q-10 0 -10 10v61q0 10 10 10h36q11 0 11 -10zM274 733v-61q0 -10 -11 -10h-36q-10 0 -10 10v61q0 10 10 10h36q11 0 11 -10zM110 321h153q11 0 16 7.5t6 15.5t1 23v90q0 24 -6.5 31.5t-21.5 7.5h-180q-11 0 -11 10v40q0 10 11 10h196
q29 0 49.5 -19.5t20.5 -56.5v-404q0 -34 -17.5 -55t-49.5 -21h-167q-28 0 -49 19t-21 55v172q0 37 21 56t49 19zM286 264h-157q-31 0 -31 -41v-125q0 -41 31 -41h126q31 0 31 43v164z" />
    <glyph glyph-name="atilde.alt" horiz-adv-x="384" 
d="M106 630h-8q-12 0 -12 10v29q0 25 15 41.5t35 16.5h95q14 0 14 22q0 9 6.5 15.5t15.5 6.5h9q12 0 12 -10v-29q0 -25 -15 -41.5t-35 -16.5h-96q-5 0 -9 -6.5t-4 -15.5t-7 -15.5t-16 -6.5zM110 321h153q11 0 16 7.5t6 15.5t1 23v90q0 24 -6.5 31.5t-21.5 7.5h-180
q-11 0 -11 10v40q0 10 11 10h196q29 0 49.5 -19.5t20.5 -56.5v-404q0 -34 -17.5 -55t-49.5 -21h-167q-28 0 -49 19t-21 55v172q0 37 21 56t49 19zM286 264h-157q-31 0 -31 -41v-125q0 -41 31 -41h126q31 0 31 43v164z" />
    <glyph glyph-name="aring.alt" horiz-adv-x="384" 
d="M109 750q0 38 22.5 65.5t54.5 27.5t55.5 -27.5t23.5 -65.5t-23.5 -65t-55.5 -27t-54.5 27t-22.5 65zM152 750q0 -20 10 -34t24 -14q15 0 25.5 14t10.5 34t-10.5 34.5t-25.5 14.5q-14 0 -24 -14.5t-10 -34.5zM263 321h-153q-28 0 -49 -19t-21 -56v-172q0 -36 21 -55
t49 -19h167q32 0 49.5 21t17.5 55v404q0 37 -20.5 56.5t-49.5 19.5h-196q-11 0 -11 -10v-40q0 -10 11 -10h180q15 0 21.5 -7.5t6.5 -31.5v-90q0 -15 -1 -23t-6 -15.5t-16 -7.5zM129 264h157v-164q0 -43 -31 -43h-126q-31 0 -31 41v125q0 41 31 41z" />
    <glyph glyph-name="y.alt" horiz-adv-x="426" 
d="M378 546v-634q0 -48 -23.5 -78t-64.5 -30h-187q-10 0 -10 13v33q0 12 10 12h178q15 0 26.5 14.5t11.5 35.5v88h-189q-38 0 -60 29.5t-22 67.5v449q0 10 10 10h38q10 0 10 -10v-447q0 -18 8.5 -30t23.5 -12h180v489q0 10 11 10h38q11 0 11 -10z" />
    <glyph glyph-name="yacute.alt" horiz-adv-x="426" 
d="M293 761l-67 -127q-6 -12 -20 -12h-26q-13 0 -9 9l61 131q7 9 18 9h33q12 0 10 -10zM378 546v-634q0 -48 -23.5 -78t-64.5 -30h-187q-10 0 -10 13v33q0 12 10 12h178q15 0 26.5 14.5t11.5 35.5v88h-189q-38 0 -60 29.5t-22 67.5v449q0 10 10 10h38q10 0 10 -10v-447
q0 -18 8.5 -30t23.5 -12h180v489q0 10 11 10h38q11 0 11 -10z" />
    <glyph glyph-name="ydieresis.alt" horiz-adv-x="426" 
d="M182 733v-61q0 -10 -11 -10h-36q-10 0 -10 10v61q0 10 10 10h36q11 0 11 -10zM298 733v-61q0 -10 -10 -10h-36q-10 0 -10 10v61q0 10 10 10h36q10 0 10 -10zM378 546v-634q0 -48 -23.5 -78t-64.5 -30h-187q-10 0 -10 13v33q0 12 10 12h178q15 0 26.5 14.5t11.5 35.5v88
h-189q-38 0 -60 29.5t-22 67.5v449q0 10 10 10h38q10 0 10 -10v-447q0 -18 8.5 -30t23.5 -12h180v489q0 10 11 10h38q11 0 11 -10z" />
    <glyph glyph-name="J.alt" horiz-adv-x="346" 
d="M230 83v647q0 13 10 13h37q10 0 10 -13v-652q0 -36 -17 -57t-48 -21h-190q-12 0 -12 10v37q0 11 12 11h182q16 0 16 25z" />
    <glyph glyph-name="W.alt" horiz-adv-x="703" 
d="M593 101v634q0 8 12 8h34q12 0 12 -8v-634q0 -40 -23 -70.5t-61 -30.5h-161q-42 0 -56 41q-14 -41 -56 -41h-158q-38 0 -61 31t-23 70v634q0 8 12 8h34q12 0 12 -8v-634q0 -18 8.5 -30t23.5 -12h148q15 0 23.5 12t8.5 30v489q0 8 12 8h34q12 0 12 -8v-489q0 -18 8.5 -30
t24.5 -12h147q16 0 24.5 12t8.5 30z" />
    <glyph glyph-name="e.alt" horiz-adv-x="392" 
d="M282 231h-151q-25 -14 -25 -46v-83q0 -45 33 -45h175q11 0 11 -10v-37q0 -10 -11 -10h-196q-29 0 -49.5 19.5t-20.5 56.5v404q0 34 17.5 55t49.5 21h167q28 0 49 -19t21 -55v-178q0 -36 -21 -54.5t-49 -18.5zM127 290h143q14 0 19.5 6t5.5 27v141q0 21 -5.5 27t-19.5 6
h-140q-15 0 -19.5 -6t-4.5 -28v-177q3 1 10 2t11 2z" />
    <glyph glyph-name="eacute.alt" horiz-adv-x="392" 
d="M277 761l-67 -127q-6 -12 -20 -12h-26q-13 0 -9 9l61 131q7 9 18 9h33q12 0 10 -10zM282 231h-151q-25 -14 -25 -46v-83q0 -45 33 -45h175q11 0 11 -10v-37q0 -10 -11 -10h-196q-29 0 -49.5 19.5t-20.5 56.5v404q0 34 17.5 55t49.5 21h167q28 0 49 -19t21 -55v-178
q0 -36 -21 -54.5t-49 -18.5zM127 290h143q14 0 19.5 6t5.5 27v141q0 21 -5.5 27t-19.5 6h-140q-15 0 -19.5 -6t-4.5 -28v-177q3 1 10 2t11 2z" />
    <glyph glyph-name="egrave.alt" horiz-adv-x="392" 
d="M174 634l-67 127q-2 10 10 10h33q11 0 18 -9l61 -131q4 -9 -9 -9h-26q-13 0 -20 12zM131 231h151q28 0 49 18.5t21 54.5v178q0 36 -21 55t-49 19h-167q-32 0 -49.5 -21t-17.5 -55v-404q0 -37 20.5 -56.5t49.5 -19.5h196q11 0 11 10v37q0 10 -11 10h-175q-33 0 -33 45v83
q0 32 25 46zM270 290h-143q-4 -1 -11 -2t-10 -2v177q0 22 4.5 28t19.5 6h140q14 0 19.5 -6t5.5 -27v-141q0 -21 -5.5 -27t-19.5 -6z" />
    <glyph glyph-name="ecircumflex.alt" horiz-adv-x="392" 
d="M282 231h-151q-25 -14 -25 -46v-83q0 -45 33 -45h175q11 0 11 -10v-37q0 -10 -11 -10h-196q-29 0 -49.5 19.5t-20.5 56.5v404q0 34 17.5 55t49.5 21h167q28 0 49 -19t21 -55v-178q0 -36 -21 -54.5t-49 -18.5zM127 290h143q14 0 19.5 6t5.5 27v141q0 21 -5.5 27t-19.5 6
h-140q-15 0 -19.5 -6t-4.5 -28v-177q3 1 10 2t11 2zM172 771h48q17 0 26 -19l68 -120h-1q2 -4 -0.5 -6.5t-6.5 -2.5h-25q-11 0 -17 8l-64 99q-3 5 -4 5l-4 -5l-64 -99q-6 -8 -17 -8h-25q-4 0 -6.5 2.5t-0.5 6.5h-1l68 120q9 19 26 19z" />
    <glyph glyph-name="edieresis.alt" horiz-adv-x="392" 
d="M166 733v-61q0 -10 -11 -10h-36q-10 0 -10 10v61q0 10 10 10h36q11 0 11 -10zM282 733v-61q0 -10 -10 -10h-36q-10 0 -10 10v61q0 10 10 10h36q10 0 10 -10zM282 231h-151q-25 -14 -25 -46v-83q0 -45 33 -45h175q11 0 11 -10v-37q0 -10 -11 -10h-196q-29 0 -49.5 19.5
t-20.5 56.5v404q0 34 17.5 55t49.5 21h167q28 0 49 -19t21 -55v-178q0 -36 -21 -54.5t-49 -18.5zM127 290h143q14 0 19.5 6t5.5 27v141q0 21 -5.5 27t-19.5 6h-140q-15 0 -19.5 -6t-4.5 -28v-177q3 1 10 2t11 2z" />
    <glyph glyph-name="w.alt" horiz-adv-x="634" 
d="M528 101v447q0 8 12 8h34q12 0 12 -8v-447q0 -40 -23 -70.5t-61 -30.5h-131q-38 0 -55 41l-1 1v-1q-15 -41 -55 -41h-128q-38 0 -61 31t-23 70v447q0 8 12 8h34q12 0 12 -8v-447q0 -18 8.5 -30t23.5 -12h117q16 0 24.5 12t8.5 30v332q0 8 12 8h34q12 0 12 -8v-332
q0 -18 8.5 -30t23.5 -12h117q16 0 24.5 12t8.5 30z" />
    <glyph glyph-name="T_h" horiz-adv-x="833" 
d="M775 460v-523q0 -29 17 -52.5t44 -23.5h100q5 0 9 -4t4 -8v-33q0 -5 -4.5 -8.5t-8.5 -3.5h-106q-51 0 -82 42t-31 96v510q0 19 -8 32t-23 13h-152v-489q0 -8 -12 -8h-36q-12 0 -12 8v658q0 18 -9 18h-209v-671q0 -13 -10 -13h-37q-11 0 -11 13v671h-180q-13 0 -13 13v33
q0 4 4.5 8.5t8.5 4.5h480q15 0 25.5 -12t10.5 -25v-150h158q38 0 60.5 -29t22.5 -67z" />
    <glyph glyph-name="f_titl" horiz-adv-x="290" 
d="M48 -91v737q0 39 23 68t61 29h144q10 0 10 -10v-39q0 -10 -10 -10h-137q-14 0 -22.5 -13t-8.5 -33v-195h135q11 0 11 -10v-40q0 -10 -11 -10h-135v-482q0 -39 -23 -68t-61 -29h-78q-10 0 -10 10v39q0 10 10 10h71q14 0 22.5 13t8.5 33z" />
    <glyph glyph-name="T_H" horiz-adv-x="980" 
d="M890 733v-777q0 -95 68 -95h124q5 0 9 -4t4 -8v-33q0 -12 -13 -12h-137q-51 0 -82 42t-31 96v415h-298v-347q0 -10 -11 -10h-37q-10 0 -10 10v656q0 18 -10 18h-210v-671q0 -13 -10 -13h-37q-11 0 -11 13v671h-180q-13 0 -13 13v33q0 4 4.5 8.5t8.5 4.5h480
q15 0 25.5 -12t10.5 -25v-292h298v319q0 10 10 10h37q11 0 11 -10z" />
    <glyph glyph-name="R.titl" horiz-adv-x="460" 
d="M309 684h-175q-17 0 -17 -20v-289h192q26 0 43 23t17 52v160q0 29 -17 51.5t-43 22.5zM322 285l160 -383q13 -26 23.5 -34t34.5 -8h69q13 0 13 -10v-36q0 -10 -11 -10h-91q-37 0 -55.5 18.5t-37.5 61.5l-129 311l-17 39l-24 52q-15 30 -42 30h-98v-303q0 -13 -11 -13h-36
q-11 0 -11 13v648q0 32 18 57t48 25h190q50 0 80.5 -42t30.5 -96v-150q0 -55 -30.5 -97t-80.5 -42l-23 1q24 -17 30 -32z" />
    <glyph glyph-name="G.titl" horiz-adv-x="478" 
d="M385 -64v64h-225q-51 0 -81.5 41.5t-30.5 95.5v469q0 54 30.5 95.5t81.5 41.5h242q5 0 9 -4t4 -8v-33q0 -5 -4.5 -8.5t-8.5 -3.5h-235q-27 0 -44 -23t-17 -52v-479q0 -29 17 -52t44 -23h214q9 0 9 12v250q0 14 -10 14h-150q-4 0 -9 3.5t-5 8.5v38q0 4 4.5 8t9.5 4h174
q18 0 28.5 -15t10.5 -34v-405q0 -54 -31 -95.5t-82 -41.5h-157q-4 0 -8.5 3.5t-4.5 8.5v33q0 4 4 8t9 4h151q27 0 44 23t17 52z" />
    <glyph glyph-name="K.titl" horiz-adv-x="490" 
d="M290 395l212 -493q12 -26 22.5 -34t34.5 -8h69q13 0 13 -10v-36q1 -4 -2.5 -7t-8.5 -3h-88q-34 0 -55 21t-38 59l-224 513l-85 -131q-15 -24 -19.5 -38.5t-4.5 -43.5v-174q0 -10 -10 -10h-37q-11 0 -11 10v723q0 10 11 10h37q10 0 10 -10v-405l237 395h-1q0 1 1 1h1
q13 19 24 19h27q13 0 13 -10q0 -5 -5 -14q-150 -253 -165 -274l-3 -4q14 1 24.5 -10.5t20.5 -35.5z" />
    <glyph glyph-name="A.titl" horiz-adv-x="504" 
d="M140 283h226l-102 397q-4 11 -9 11q-9 0 -13 -11zM313 705l210 -808q13 -42 44 -42h77q13 0 13 -10l-1 -31q2 -10 -10 -10h-89q-38 0 -55 16t-27 52l-95 359q-43 0 -127 0.5t-127 0.5l-30 -111q-22 -83 -29 -110q-4 -11 -13 -11h-36q-3 0 -6 2.5t-2 5.5l183 697
q11 40 44 44q15 2 31 0q35 -6 45 -44z" />
    <glyph glyph-name="Adieresis.titl" horiz-adv-x="504" 
d="M223 920v-61q0 -10 -11 -10h-36q-10 0 -10 10v61q0 10 10 10h36q11 0 11 -10zM339 920v-61q0 -10 -10 -10h-36q-10 0 -10 10v61q0 10 10 10h36q10 0 10 -10zM140 283h226l-102 397q-4 11 -9 11q-9 0 -13 -11zM313 705l210 -808q13 -42 44 -42h77q13 0 13 -10l-1 -31
q2 -10 -10 -10h-89q-38 0 -55 16t-27 52l-95 359q-43 0 -127 0.5t-127 0.5l-30 -111q-22 -83 -29 -110q-4 -11 -13 -11h-36q-3 0 -6 2.5t-2 5.5l183 697q11 40 44 44q15 2 31 0q35 -6 45 -44z" />
    <glyph glyph-name="Aring.titl" horiz-adv-x="504" 
d="M172 900q0 38 23 65.5t55 27.5t55 -27.5t23 -65.5t-23 -65t-55 -27t-55 27t-23 65zM215 900q0 -20 10 -34t25 -14q14 0 24.5 14t10.5 34t-10.5 34.5t-24.5 14.5q-15 0 -25 -14.5t-10 -34.5zM366 283h-226l102 397q4 11 13 11q5 0 9 -11zM523 -103l-210 808q-10 38 -45 44
q-16 2 -31 0q-33 -4 -44 -44l-183 -697q-1 -3 2 -5.5t6 -2.5h36q9 0 13 11q7 27 29 110l30 111q43 0 127 -0.5t127 -0.5l95 -359q10 -36 27 -52t55 -16h89q12 0 10 10l1 31q0 10 -13 10h-77q-31 0 -44 42z" />
    <glyph glyph-name="Agrave.titl" horiz-adv-x="504" 
d="M223 810l-67 127q-2 10 10 10h29q11 0 18 -9l61 -131q4 -9 -9 -9h-22q-13 0 -20 12zM366 283h-226l102 397q4 11 13 11q5 0 9 -11zM523 -103l-210 808q-10 38 -45 44q-16 2 -31 0q-33 -4 -44 -44l-183 -697q-1 -3 2 -5.5t6 -2.5h36q9 0 13 11q7 27 29 110l30 111
q43 0 127 -0.5t127 -0.5l95 -359q10 -36 27 -52t55 -16h89q12 0 10 10l1 31q0 10 -13 10h-77q-31 0 -44 42z" />
    <glyph glyph-name="Atilde.titl" horiz-adv-x="504" 
d="M140 283h226l-102 397q-4 11 -9 11q-9 0 -13 -11zM313 705l210 -808q13 -42 44 -42h77q13 0 13 -10l-1 -31q2 -10 -10 -10h-89q-38 0 -55 16t-27 52l-95 359q-43 0 -127 0.5t-127 0.5l-30 -111q-22 -83 -29 -110q-4 -11 -13 -11h-36q-3 0 -6 2.5t-2 5.5l183 697
q11 40 44 44q15 2 31 0q35 -6 45 -44zM170 806h-9q-12 0 -12 10v29q0 25 15 41.5t35 16.5h96q5 0 9 6.5t4 15.5t7 15.5t16 6.5h8q12 0 12 -10v-29q0 -25 -15 -41.5t-35 -16.5h-95q-14 0 -14 -22q0 -9 -6.5 -15.5t-15.5 -6.5z" />
    <glyph glyph-name="Acircumflex.titl" horiz-adv-x="504" 
d="M226 947h48q17 0 26 -19l68 -120h-1q2 -4 -0.5 -6.5t-7.5 -2.5h-24q-14 0 -18 8h1l-64 99q-3 5 -4 5l-4 -5l-64 -99q-6 -8 -17 -8h-25q-13 0 -9 9l68 120q10 19 27 19zM140 283h226l-102 397q-4 11 -9 11q-9 0 -13 -11zM313 705l210 -808q13 -42 44 -42h77q13 0 13 -10
l-1 -31q2 -10 -10 -10h-89q-38 0 -55 16t-27 52l-95 359q-43 0 -127 0.5t-127 0.5l-30 -111q-22 -83 -29 -110q-4 -11 -13 -11h-36q-3 0 -6 2.5t-2 5.5l183 697q11 40 44 44q15 2 31 0q35 -6 45 -44z" />
    <glyph glyph-name="Aacute.titl" horiz-adv-x="504" 
d="M345 937l-66 -127q-7 -12 -20 -12h-27q-13 0 -9 9l58 124q11 16 21 16h33q6 0 9 -3t1 -7zM140 283h226l-102 397q-4 11 -9 11q-9 0 -13 -11zM313 705l210 -808q13 -42 44 -42h77q13 0 13 -10l-1 -31q2 -10 -10 -10h-89q-38 0 -55 16t-27 52l-95 359q-43 0 -127 0.5
t-127 0.5l-30 -111q-22 -83 -29 -110q-4 -11 -13 -11h-36q-3 0 -6 2.5t-2 5.5l183 697q11 40 44 44q15 2 31 0q35 -6 45 -44z" />
    <glyph glyph-name="F.titl" horiz-adv-x="394" 
d="M106 356v-428q0 -55 -29.5 -89.5t-67.5 -34.5h-37q-4 0 -8.5 4t-4.5 9v30q0 5 4.5 9t8.5 4h26q22 0 36.5 17.5t14.5 38.5v745q0 36 19.5 59t45.5 23h252q4 0 8 -4t4 -9v-33q0 -5 -4 -9t-8 -4h-243q-7 0 -12 -6t-5 -14v-249h219q9 0 9 -13v-33q0 -13 -9 -13h-219z" />
    <glyph glyph-name="S_S.titl" horiz-adv-x="724" 
d="M293 0h-240q-4 0 -9 4t-5 9v33q0 13 14 13h234q17 0 30 13t13 38v106q0 50 -26 67l-211 110q-60 32 -60 129v112q0 52 28 80.5t66 28.5h233q4 0 8.5 -4.5t4.5 -8.5v-33q0 -5 -4.5 -9t-8.5 -4h-230q-17 0 -28.5 -13.5t-11.5 -39.5v-110q0 -56 27 -70l217 -113
q46 -25 52 -94h213q35 0 35 48v37q0 18 -4.5 30t-22.5 25l-135 82q-69 41 -69 102v89q0 43 20.5 64.5t54.5 21.5h183q10 0 10 -10v-39q0 -10 -10 -10h-175q-26 0 -26 -36v-69q0 -31 30 -54l132 -79q44 -28 56.5 -50.5t12.5 -51.5v-74q0 -43 -21.5 -63t-47.5 -20h-235v-80
q0 -52 -28 -79.5t-66 -27.5z" />
    <glyph glyph-name="W.titl" horiz-adv-x="773" 
d="M764 804l-157 -754q-13 -57 -71 -57q-27 0 -44.5 15t-22.5 40l-82 449l-81 -449q-5 -25 -22.5 -40t-44.5 -15q-58 0 -71 57l-142 677q-1 7 3 11.5t8 4.5h18q26 0 36 -37l133 -638q4 -19 15 -19q9 0 13 19l90 480q3 15 16 24t29 9q37 0 46 -33l90 -480q4 -19 13 -19
q11 0 15 19l159 764q6 25 26.5 40.5t42.5 15.5h98q12 0 12 -10v-40q0 -10 -12 -10h-90q-19 0 -23 -24z" />
    <glyph glyph-name="w.titl" horiz-adv-x="618" 
d="M620 659l-124 -591q-18 -75 -62 -75q-12 0 -20 2t-17.5 9t-17 24t-12.5 44l-58 288l-59 -288q-10 -47 -27 -63t-39 -16q-45 0 -62 75l-101 475q0 13 14 13h22q10 0 17.5 -7t9.5 -15l93 -459q2 -22 8 -22q3 0 8 18q0 1 0.5 2t0.5 2l74 348q4 15 16 23.5t25 8.5t25.5 -8.5
t15.5 -23.5l74 -348q4 -22 9 -22q3 0 8 22l125 612q6 25 26.5 40.5t42.5 15.5h79q12 0 12 -10v-40q0 -10 -12 -10h-72q-7 0 -13.5 -6t-8.5 -18z" />
    <glyph glyph-name="h.titl" horiz-adv-x="385" 
d="M108 735v-179h158q38 0 61 -29t23 -67v-523q0 -30 17 -53t43 -23h100q5 0 9 -4t4 -8v-33q0 -12 -13 -12h-106q-51 0 -82 42t-31 96v510q0 19 -8 32t-23 13h-151v-489q0 -8 -12 -8h-36q-12 0 -12 8v727q0 8 12 8h35q12 0 12 -8z" />
    <glyph glyph-name="V.titl" horiz-adv-x="527" 
d="M523 804l-206 -777q-2 -11 -13 -21t-24 -12h-6q-6 -1 -11 -1l-17 1q-12 2 -22.5 11.5t-13.5 21.5q-186 707 -186 709q0 7 10 7h30q16 0 20 -20q20 -57 170 -644v-3l1 -2q4 -19 9 -19t9 19l1 2v3l199 752q7 25 27 41t42 16h95q12 0 12 -10v-40q0 -10 -12 -10h-91
q-19 0 -23 -24z" />
    <glyph glyph-name="v.titl" horiz-adv-x="423" 
d="M436 659l-168 -631q-5 -15 -19.5 -25t-34.5 -10q-44 0 -55 35l-136 515q-2 6 1.5 9.5t12.5 3.5h22q22 0 28 -23l121 -465q0 -16 7 -16q1 0 6 12q1 2 1 4l158 616q7 25 27 42t41 17h60q12 0 12 -10v-40q0 -10 -12 -10h-50q-17 0 -22 -24z" />
    <glyph glyph-name="N.titl" horiz-adv-x="529" 
d="M52 -63v750q0 25 14.5 44t38.5 19h15q50 0 64 -36l202 -640q8 -21 22 -21q10 0 10 24v688q0 54 30.5 95.5t81.5 41.5h96q5 0 9 -4t4 -8v-34q0 -12 -13 -12h-88q-29 0 -45 -22.5t-16 -52.5v-708q0 -26 -16 -47t-40 -21h-16q-55 0 -70 46l-199 634q-9 22 -16 22
q-10 0 -10 -21v-733q0 -54 -30.5 -95.5t-81.5 -41.5h-96q-5 0 -9 4t-4 8v34q0 12 13 12h89q28 0 44.5 22.5t16.5 52.5z" />
    <glyph glyph-name="n.titl" horiz-adv-x="414" 
d="M366 455v-518q0 -30 16.5 -52.5t44.5 -22.5h64q4 0 8.5 -3.5t4.5 -8.5v-34q0 -4 -4 -8t-9 -4h-70q-51 0 -82 41.5t-31 95.5v509q0 19 -8.5 33t-24.5 14h-136q-15 0 -23 -14t-8 -33v-442q0 -8 -12 -8h-36q-12 0 -12 8v447q0 39 23 70t61 31h150q38 0 61 -30.5t23 -70.5z
" />
    <glyph glyph-name="U.titl" horiz-adv-x="483" 
d="M435 769v-637q0 -52 -30.5 -92t-80.5 -40h-164q-51 0 -81.5 40t-30.5 92v601q0 10 10 10h37q11 0 11 -10v-610q0 -25 13.5 -45.5t34.5 -20.5h173q21 0 35 20.5t16 45.5v642q0 54 30.5 95.5t81.5 41.5h96q5 0 9 -4t4 -8v-34q0 -12 -13 -12h-90q-28 0 -44.5 -22.5
t-16.5 -52.5z" />
    <glyph glyph-name="u.titl" horiz-adv-x="414" 
d="M366 610v-513q0 -39 -23 -68t-61 -29h-150q-38 0 -61 29.5t-23 67.5v449q0 10 10 10h38q10 0 10 -10v-438q0 -20 9 -35.5t24 -15.5h135q16 0 24.5 15.5t8.5 35.5v498q0 54 31 95.5t82 41.5h70q5 0 9 -4t4 -8v-34q0 -12 -13 -12h-63q-28 0 -44.5 -22.5t-16.5 -52.5z" />
    <glyph glyph-name="H.titl" horiz-adv-x="532" 
d="M58 10v701q0 95 -68 95h-24q-4 0 -8 4t-4 8v33q0 5 4 8.5t8 3.5h37q51 0 82 -42t31 -96v-311h298v319q0 10 11 10h37q10 0 10 -10v-777q0 -95 68 -95h125q5 0 9 -4t4 -8v-33q0 -5 -4.5 -8.5t-8.5 -3.5h-138q-51 0 -82 42t-31 96v415h-298v-347q0 -10 -10 -10h-37
q-11 0 -11 10z" />
    <glyph glyph-name="L_L.titl" horiz-adv-x="469" 
d="M360 0h-235q-32 0 -49.5 21.5t-17.5 56.5v652q0 13 11 13h37q11 0 11 -13v-647q0 -24 17 -24h226q13 0 13 -11v-37q0 -11 -13 -11zM442 171h-192q-32 0 -49.5 21.5t-17.5 56.5v481q0 13 11 13h37q11 0 11 -13v-476q0 -24 16 -24h184q12 0 12 -11v-37q0 -11 -12 -11z" />
    <glyph glyph-name="Y.alt" horiz-adv-x="459" 
d="M312 281h-60v-271q0 -10 -12 -10h-34q-12 0 -12 10v271h-46q-51 0 -81.5 40t-30.5 92v320q0 10 10 10h37q11 0 11 -10v-329q0 -25 13.5 -45.5t34.5 -20.5h173q21 0 35 20.5t16 45.5v329q0 10 10 10h37q10 0 10 -10v-320q0 -52 -30.5 -92t-80.5 -40z" />
    <glyph glyph-name="Yacute.alt" horiz-adv-x="459" 
d="M309 937l-67 -127q-6 -12 -20 -12h-26q-13 0 -9 9l61 131q7 9 18 9h33q12 0 10 -10zM312 281h-60v-271q0 -10 -12 -10h-34q-12 0 -12 10v271h-46q-51 0 -81.5 40t-30.5 92v320q0 10 10 10h37q11 0 11 -10v-329q0 -25 13.5 -45.5t34.5 -20.5h173q21 0 35 20.5t16 45.5v329
q0 10 10 10h37q10 0 10 -10v-320q0 -52 -30.5 -92t-80.5 -40z" />
    <glyph glyph-name="Ydieresis.alt" horiz-adv-x="459" 
d="M205 920v-61q0 -10 -11 -10h-36q-10 0 -10 10v61q0 10 10 10h36q11 0 11 -10zM322 920v-61q0 -10 -11 -10h-36q-10 0 -10 10v61q0 10 10 10h36q11 0 11 -10zM312 281h-60v-271q0 -10 -12 -10h-34q-12 0 -12 10v271h-46q-51 0 -81.5 40t-30.5 92v320q0 10 10 10h37
q11 0 11 -10v-329q0 -25 13.5 -45.5t34.5 -20.5h173q21 0 35 20.5t16 45.5v329q0 10 10 10h37q10 0 10 -10v-320q0 -52 -30.5 -92t-80.5 -40z" />
    </font>
</defs>
</svg>
